<svg xmlns="http://www.w3.org/2000/svg" xmlns:xlink="http://www.w3.org/1999/xlink" viewBox="0 0 1080 1350"><defs><style>.cls-1{fill:url(#linear-gradient);}.cls-2{font-size:100px;font-family:Quicksand-Bold, Quicksand;font-weight:700;}.cls-10,.cls-11,.cls-2{fill:#fff;}.cls-3{letter-spacing:-0.01em;}.cls-4{letter-spacing:0.01em;}.cls-5{letter-spacing:0em;}.cls-6{font-size:60px;fill:#fffc66;font-family:Quicksand-Medium, Quicksand;}.cls-7{letter-spacing:-0.01em;}.cls-8{letter-spacing:0.01em;}.cls-9{fill:none;stroke:#fff;stroke-linecap:round;stroke-linejoin:round;stroke-width:7px;}.cls-10,.cls-12,.cls-25{opacity:0.1;}.cls-10,.cls-12,.cls-15{isolation:isolate;}.cls-13{fill:#ffd037;}.cls-14{fill:#a8a8a8;}.cls-15{opacity:0.2;}.cls-16{opacity:0.8;}.cls-17{fill:#e74d89;}.cls-18{fill:#b2215a;}.cls-19{fill:url(#linear-gradient-2);}.cls-20{fill:#925978;}.cls-21{fill:#ff6484;}.cls-22{fill:#575988;}.cls-23{fill:#ffc5cb;}.cls-24{fill:#e8f4ff;}.cls-26{fill:#1769ff;}.cls-27{fill:#b3bbc6;}.cls-28{fill:#666c76;}.cls-29{fill:url(#linear-gradient-3);}.cls-30{fill:#ffaab0;}.cls-31{fill:#dce6f2;}.cls-32{fill:#f1faff;}.cls-33{fill:#794f6a;}.cls-34{fill:#61beec;}.cls-35{fill:#4064ac;}.cls-36{fill:#d4dfec;}</style><linearGradient id="linear-gradient" x1="-73.45" y1="218.51" x2="1075.66" y2="1073.6" gradientUnits="userSpaceOnUse"><stop offset="0.01" stop-color="#4848f6"/><stop offset="1" stop-color="#b06ab3"/></linearGradient><linearGradient id="linear-gradient-2" x1="336.59" y1="17.48" x2="336.59" y2="470.7" gradientTransform="matrix(1, 0, 0, -1, -58.95, 1295.14)" gradientUnits="userSpaceOnUse"><stop offset="0" stop-color="gray" stop-opacity="0.25"/><stop offset="0.54" stop-color="gray" stop-opacity="0.12"/><stop offset="1" stop-color="gray" stop-opacity="0.1"/></linearGradient><linearGradient id="linear-gradient-3" x1="747.51" y1="203.68" x2="747.51" y2="665.49" xlink:href="#linear-gradient-2"/></defs><title>graphic-design-card</title><g id="Design"><rect class="cls-1" width="1080" height="1350"/><text class="cls-2" transform="translate(90 210)">G<tspan class="cls-3" x="69.6" y="0">r</tspan><tspan x="111.8" y="0">aphic </tspan><tspan class="cls-4" x="398.1" y="0">D</tspan><tspan class="cls-5" x="470.4" y="0">esign</tspan></text><text class="cls-6" transform="translate(93.77 412.18)">Visual Concept<tspan x="0" y="72">B</tspan><tspan class="cls-7" x="39.18" y="72">r</tspan><tspan x="62.52" y="72">anding</tspan><tspan class="cls-8" x="0" y="144">D</tspan><tspan x="43.56" y="144">esign</tspan></text><g id="Design-2" data-name="Design"><path class="cls-9" d="M885.5,209.5h36"/><path class="cls-9" d="M903.5,143.5a8.49,8.49,0,0,1,12,12l-50,50-16,4,4-16Z"/></g><g id="Design_Art" data-name="Design Art"><path class="cls-10" d="M371.83,645.21c24.84-22.1,63.8-26.63,99.27-24.87,111.42,5.54,212,59.33,299,120.17,31.5,22,62.5,45.76,82.94,76.1,41.65,61.73,29.27,147.28-28.59,198.14-19.69,17.31-43.56,30.6-68.06,42.33-43.57,20.92-90.58,37.71-140,42.5-35.26,3.4-71,.64-106-4.11-97.93-13.31-194.07-42.68-274.64-92.88-35.34-22.05-68.66-49.44-83.22-85.11s-5.25-80.83,30.84-101.94c14.92-8.72,32.77-12.67,50.24-16.37,25.72-5.44,51.84-10.81,75.05-21.89,24-11.44,52.35-33.57,47.6-58.89C351.13,691.18,347,667.31,371.83,645.21Z"/><ellipse class="cls-10" cx="801.01" cy="1221.74" rx="93.03" ry="5.97"/><ellipse class="cls-10" cx="559.2" cy="1181.81" rx="93.03" ry="5.97"/><ellipse class="cls-10" cx="217.65" cy="1276.46" rx="93.03" ry="5.97"/><ellipse class="cls-10" cx="394.43" cy="1285.83" rx="38.28" ry="2.46"/><ellipse class="cls-10" cx="968.07" cy="1222.59" rx="29.83" ry="1.91"/><ellipse class="cls-10" cx="694.27" cy="1182.73" rx="25.29" ry="1.62"/><path class="cls-11" d="M972.36,1176.69s4,5.23-1.84,13.12-10.65,14.54-8.71,19.45c0,0,8.82-14.64,16-14.85S980.25,1185.51,972.36,1176.69Z"/><path class="cls-12" d="M972.36,1176.69a6.91,6.91,0,0,1,.85,1.64c7,8.22,10.72,15.89,4,16.08-6.26.18-13.77,11.38-15.58,14.21a4.83,4.83,0,0,0,.22.64s8.81-14.64,16-14.85S980.25,1185.51,972.36,1176.69Z"/><path class="cls-13" d="M979.8,1183.35c0,1.84-.21,3.33-.46,3.33s-.46-1.49-.46-3.33.25-1,.51-1S979.8,1181.51,979.8,1183.35Z"/><path class="cls-13" d="M982.35,1185.55c-1.62.85-3,1.41-3.15,1.19s1.09-1.12,2.7-2,1-.24,1.1,0S984,1184.66,982.35,1185.55Z"/><path class="cls-11" d="M951.27,1176.69s-4,5.23,1.85,13.12,10.65,14.54,8.7,19.45c0,0-8.81-14.64-16-14.85S943.39,1185.51,951.27,1176.69Z"/><path class="cls-12" d="M951.27,1176.69a6.91,6.91,0,0,0-.85,1.64c-7,8.22-10.72,15.89-4,16.08,6.26.18,13.79,11.38,15.58,14.21-.06.22-.13.43-.21.64,0,0-8.81-14.64-16-14.85S943.39,1185.51,951.27,1176.69Z"/><path class="cls-13" d="M943.84,1183.35c0,1.84.21,3.33.46,3.33s.47-1.49.47-3.33-.26-1-.52-1S943.84,1181.51,943.84,1183.35Z"/><path class="cls-13" d="M941.29,1185.55c1.62.85,3,1.41,3.15,1.19s-1.09-1.12-2.7-2-1-.24-1.1,0S939.68,1184.66,941.29,1185.55Z"/><path class="cls-14" d="M945.16,1208.58s11.17-.34,14.54-2.74,17.17-5.26,18-1.42,16.78,19.12,4.18,19.22-29.3-2-32.67-4S945.16,1208.58,945.16,1208.58Z"/><path class="cls-15" d="M982.07,1222.31c-12.61.1-29.3-2-32.66-4-2.55-1.56-3.58-7.15-3.92-9.74h-.37s.7,9,4.06,11,20.05,4.11,32.66,4c3.64,0,4.9-1.32,4.83-3.24C986.16,1221.56,984.78,1222.28,982.07,1222.31Z"/><path class="cls-11" d="M698.75,1143.49s3.4,4.47-1.58,11.21-9.11,12.45-7.44,16.65c0,0,7.53-12.52,13.66-12.74S705.48,1151,698.75,1143.49Z"/><path class="cls-12" d="M698.75,1143.49a5.8,5.8,0,0,1,.7,1.41c5.95,7,9.17,13.6,3.4,13.75-5.35.15-11.79,9.74-13.33,12.16a4.29,4.29,0,0,0,.19.54s7.53-12.52,13.67-12.74S705.48,1151,698.75,1143.49Z"/><path class="cls-13" d="M705.1,1149.19c0,1.57-.18,2.85-.39,2.85s-.4-1.28-.4-2.85.22-.85.44-.85S705.1,1147.62,705.1,1149.19Z"/><path class="cls-13" d="M707.29,1151.07c-1.39.74-2.55,1.2-2.7,1s.94-.95,2.31-1.7.85-.21,1,0S708.66,1150.31,707.29,1151.07Z"/><path class="cls-11" d="M680.7,1143.49s-3.4,4.47,1.57,11.21,9.12,12.45,7.46,16.65c0,0-7.54-12.52-13.68-12.74S674,1151,680.7,1143.49Z"/><path class="cls-12" d="M680.7,1143.49a5.46,5.46,0,0,0-.7,1.41c-6,7-9.18,13.6-3.4,13.75,5.36.15,11.78,9.74,13.32,12.16a4.88,4.88,0,0,1-.18.54s-7.54-12.52-13.67-12.74S674,1151,680.7,1143.49Z"/><path class="cls-13" d="M674.34,1149.19c0,1.57.18,2.85.4,2.85s.39-1.28.39-2.85-.22-.85-.44-.85S674.34,1147.62,674.34,1149.19Z"/><path class="cls-13" d="M672.17,1151.07c1.37.74,2.55,1.2,2.68,1s-.92-.95-2.31-1.7-.85-.21-.94,0S670.78,1150.31,672.17,1151.07Z"/><path class="cls-14" d="M675.43,1170.78s9.55-.3,12.44-2.35,14.7-4.5,15.41-1.21,14.36,16.36,3.57,16.44-25.06-1.7-27.93-3.4S675.43,1170.78,675.43,1170.78Z"/><path class="cls-15" d="M707.05,1182.51c-10.8.1-25.07-1.7-27.95-3.4-2.18-1.33-3.06-6.12-3.35-8.32h-.32s.6,7.7,3.49,9.45,17.15,3.51,27.93,3.4c3.11,0,4.19-1.13,4.13-2.77C710.58,1181.92,709.36,1182.5,707.05,1182.51Z"/><g class="cls-16"><path class="cls-17" d="M203.8,1148.46a63.54,63.54,0,1,1-.09,0Z"/><path class="cls-18" d="M203.8,1280.09A68.09,68.09,0,1,1,272,1212,68.09,68.09,0,0,1,203.8,1280.09Zm57.47-58.79a85.84,85.84,0,0,0-36.27-2.55,248.34,248.34,0,0,1,11.33,41.48A57.9,57.9,0,0,0,261.27,1221.3Zm-34.72,44.3a243.45,243.45,0,0,0-12.41-44.08,1.26,1.26,0,0,1-.38.1c-32.85,11.45-44.63,34.19-45.69,36.32a58.06,58.06,0,0,0,35.7,12.24,56.61,56.61,0,0,0,22.74-4.58Zm-66-14.64c1.32-2.24,17.3-28.64,47.34-38.39.74-.27,1.54-.48,2.28-.69-1.43-3.31-3-6.61-4.74-9.85-29.07,8.68-57.29,8.3-59.85,8.25,0,.59,0,1.17,0,1.75A58.15,58.15,0,0,0,160.57,1251Zm-13.75-50.8a215.21,215.21,0,0,0,53.81-7.08,371,371,0,0,0-21.57-33.61,58.37,58.37,0,0,0-32.24,40.69Zm43.35-44.62a307.34,307.34,0,0,1,21.73,34c20.71-7.76,29.44-19.48,30.51-21a58.08,58.08,0,0,0-38.61-14.65,60.8,60.8,0,0,0-13.63,1.66Zm58.69,19.75c-1.23,1.66-11,14.17-32.49,23,1.33,2.77,2.66,5.59,3.89,8.41.42,1,.85,2,1.28,3,19.38-2.45,38.6,1.49,40.52,1.87a58,58,0,0,0-13.2-36.22Z"/></g><path class="cls-19" d="M361.42,1018c-1.54-1.93-3.29-15.2-3.29-15.2L351.33,969l-3.52-19.48s-.85-24.6-16.25-36.81l-1.2-.94v-.65h0a22.54,22.54,0,0,0-1.53-6.93,4.82,4.82,0,0,1-.56-2.32,2.35,2.35,0,0,1,.31-.9h0a7.53,7.53,0,0,1,2.77-2.33,12.1,12.1,0,0,0,5.82-7.55v-.21a1.09,1.09,0,0,1,.06-.43c.06-.14,0-.15,0-.23a3.38,3.38,0,0,0,0-.45V889a2.89,2.89,0,0,0-.08-.59v0h0a6.85,6.85,0,0,0-3.94-5.33,2.56,2.56,0,0,0,1.74-1.46h0a3.23,3.23,0,0,0,.25-.65h0a3.53,3.53,0,0,0,.11-.65v-.1a5.23,5.23,0,0,0,0-.56v-.18a4.88,4.88,0,0,0-.12-.55.38.38,0,0,0,0-.15l-.05-.12h0c-.57-1.63-1.92-2.89-3.09-4.19-6.71-7.53-8-18.11-9.84-27.92-1-5.44-2.92-11.63-8.19-13.7a41.9,41.9,0,0,0-4.54-1.15c-4.67-1.24-8.5-4.51-13.07-6.1a19.61,19.61,0,0,0-9.61-.81c-2.46.41-4.52,1.61-6.89,2.18-5.1,1.25-11.28-.14-15.3,4-2.81,2.86-3,7.23-4.42,11-2.61,6.93-9.41,12-11.17,19.17-1.13,4.64,0,9.35,1.27,14a50.71,50.71,0,0,1,1.87,9.61,20.19,20.19,0,0,1,0,2.46,24,24,0,0,1-1.6,7c-5.75,2.12-11.69,4.63-12.13,6-.85,2.78-14.72,10.7-14.72,10.7s-5.27,4.5-5.27,6.21-1.75,7.06-2.86,7.06-3.29,21.61-3.29,21.61v22.48s-8.11,26.53-10,50.07c0,0-3.28,15,2.07,23.66A11.87,11.87,0,0,0,207,1045l2.74,7.15a16.78,16.78,0,0,1,3.62-4.25c.14.89.29,1.94.48,3.1.23,1.46.5,3.12.85,4.9-1.7,2.66-5.81,8.22-10.74,10.31-4.55,1.92,1.38,7,5.48,10-1.09,5.42-2.66,12.07-3.94,12.93-2.2,1.5-9.22,20.33-9.22,20.33s-13.83,32.3,6,35.95,30-4.92,30-4.92h4.76s5.79-3.26,5.95-10c3.24-2.67,8.21-6.9,9.22-8.61s-1.77-7.27-3.54-10.3l.47-.85s18.89-24.18,21.31-21.61,3.95,6.63,2.85,9.2l1,14.82v23.1s-2.71,10.49,0,11.56,0,5.1,0,5.1,1,4.71,1.2,6.21q.14,2.88,0,5.78l-.91,23.11-1.76,34.24s-2,2.79-.44,4.71.85,6.42.44,7.27-.66,7.92-.66,7.92-6.37,6.63-1.31,8.35l.19.06c-2.09,1.94-2.12,6.3-1.95,7.65s-1.35,6.8-2.48,9.88a7.56,7.56,0,0,1-1,2.21c-.78.54,0,6.53,0,6.53s24.69,2,26.79,0c.85-.79.63-2.71,0-4.93a50.38,50.38,0,0,0-3.78-9.3,10.45,10.45,0,0,1-.76-6.1v-2.55c1.66.27,2.74.42,2.74.42s3.07-2.55,1.76-4.92,2.41-15.62,2.41-15.62,4.17-15,4.17-16.48,5.49-21,5.49-21,8.13-34.46,4.18-50.73c0,0,3.51-4.06,3.06-5.1s-1.46-5.56.05-7.48,7.87-25.9,9.63-30c.8-1.88,2.83-7.07,4.76-12.12,8.75-1.31,19.17-3.73,19.17-3.73s-1.56-6.62-2.71-13.38l.95-4.65.34-1.61a15,15,0,0,1,2.08,2.55l1.75-8.56s.2-.29.53-.85c2.05-3.2,9.51-14.72,13.09-18.21C365.59,1038.35,363,1019.94,361.42,1018Z"/><rect class="cls-20" x="283.92" y="874.83" width="24.22" height="27.2"/><rect class="cls-12" x="283.92" y="874.83" width="24.22" height="27.2"/><path class="cls-21" d="M248.42,1109.2s6.16,9.77,4.68,12.32-11.67,10.84-11.67,10.84l-3-20.4Z"/><path class="cls-22" d="M229.3,1140.65l4.5-.64h4.6a12.36,12.36,0,0,0,5.77-10.84c-.35-7.31,0-14.45,0-14.45Z"/><path class="cls-12" d="M229.3,1140.65l4.5-.64h4.6a12.36,12.36,0,0,0,5.77-10.84c-.35-7.31,0-14.45,0-14.45Z"/><path class="cls-22" d="M238.4,1041l-25.5,28s-3,18.49-5.09,20-8.88,20.19-8.88,20.19-13.37,32.08,5.85,35.7,29-4.89,29-4.89l16.32-29.54s18.28-24,20.62-21.46,3.82,6.59,2.76,9.14l1,14.66v23s-2.61,10.41,0,11.47,0,5.1,0,5.1,1,4.68,1.17,6.17,0,5.73,0,5.73l-.85,23-1.7,34s-1.91,2.76-.43,4.67.85,6.38.43,7.23-.64,7.86-.64,7.86-6.16,6.58-1.27,8.28,19.12,3.83,19.12,3.83,3-2.55,1.7-4.89,2.34-15.51,2.34-15.51,4-14.87,4-16.36,5.31-20.82,5.31-20.82,7.87-34.21,4-50.36c0,0,3.4-4,3-5.1s-1.42-5.52,0-7.44,7.65-25.71,9.35-29.74,8.92-23.59,8.92-23.59v-36.12Z"/><path class="cls-23" d="M314.52,912.87l-14.67,27.71-3.87,7.3L295.4,949l-37.82,1.49s-1.08-2.39-2.61-6.1c-2.65-6.41-6.64-16.8-8.66-25.56a55.07,55.07,0,0,1-1.1-6.37c-.56-5.3.29-9.08,3.69-9.41a6.68,6.68,0,0,1,2.55.27,19.31,19.31,0,0,0,7.29.7c9-1.09,11.6-10.56,12-19.47,0-.63.06-1.26.07-1.88,0-1.93,0-3.8-.13-5.51a76.53,76.53,0,0,0-1-8.69,36.75,36.75,0,0,1,7-2.59c7.18-1.84,17.28-1.79,17.42,13a47,47,0,0,0,1,9.76,22,22,0,0,0,1.82,5.28c2.49,4.78,5.95,5.3,7.58,5.24a4.41,4.41,0,0,0,.89-.09Z"/><path class="cls-12" d="M276.77,928.91a14.39,14.39,0,0,1,.79,4.69,21.25,21.25,0,0,1-.12,5,7.16,7.16,0,0,1-2.36,4.36"/><circle class="cls-12" cx="287.47" cy="868.05" r="22.74"/><path class="cls-23" d="M310.19,867.2a22.72,22.72,0,0,1-39.39,15.46,6.93,6.93,0,0,1-.56-.64,22.73,22.73,0,1,1,39.95-14.82Z"/><path class="cls-12" d="M251,923.92s8.08,21,25.08,17.63c0,0,17.16,1.35,27-11.26s10.41,72.24,10.41,72.24l-3.82,56.31s-27.4,16.36-39.29,14.24-17.64-8.5-17.64-8.5-12.54-11.69-15.94-13.17,1.49-74,1.49-74l4-27.2Z"/><path class="cls-24" d="M251,922.22s8.08,21,25.08,17.63c0,0,17.16,1.35,27-11.26s10.41,72.25,10.41,72.25l-3.82,56.3s-27.4,16.36-39.29,14.24-17.64-8.5-17.64-8.5-12.54-11.69-15.94-13.17,1.49-74,1.49-74l4-27.19Z"/><path class="cls-12" d="M250.12,1041s18.28,20.4,17.21,22.53S249.7,1047.16,250.12,1041Z"/><path class="cls-12" d="M247,990.27s5.84,8.16,9.49,7.31"/><path class="cls-12" d="M259.6,903.31a6.07,6.07,0,0,1-.06.7c-.2,2.61-.93,12.07-1.91,22.61-.56,6-1.18,12.19-1.83,17.76-1.05,9.07-2.18,16.33-3.13,17.36-2.76,3-1.7,31-1.7,31v35.49s-2.33,11.26-4.25,13.81-6.61,12.11-10.37,13.38a13.21,13.21,0,0,0-3.51,2.8c-3.4,3.4-8.21,9.07-11.9,13.54-3,3.73-5.29,6.61-5.29,6.61s-14.87-9.35-8.5-12.11c4.77-2.07,8.71-7.59,10.39-10.2a12.07,12.07,0,0,0,.85-1.45,39.06,39.06,0,0,1,1.35-5.85,20,20,0,0,1,2.35-5.1,5.79,5.79,0,0,1,3.52-2.66c5.53-1.06,8.29-53.55,8.29-53.55l-17-37.09-1.7-3.7s2.12-21.46,3.19-21.46,2.76-5.31,2.76-7,5.1-6.17,5.1-6.17,13.48-7.88,14.33-10.65c.45-1.45,6.63-4.08,12.38-6.23,5.17-1.94,10-3.51,10-3.51C265.76,895.94,259.6,903.31,259.6,903.31Z"/><path class="cls-21" d="M258.75,903.31a6.07,6.07,0,0,1-.06.7c-.2,2.61-.93,12.07-1.91,22.61-.55,6-1.18,12.19-1.83,17.76-1,9.07-2.18,16.33-3.13,17.36-2.76,3-1.7,31-1.7,31v35.49s-2.33,11.26-4.25,13.81-6.61,12.11-10.37,13.38a13.21,13.21,0,0,0-3.51,2.8c-3.4,3.4-8.21,9.07-11.9,13.54-3,3.73-5.29,6.61-5.29,6.61s-14.87-9.35-8.5-12.11c4.77-2.07,8.71-7.59,10.39-10.2a12.07,12.07,0,0,0,.85-1.45,39.06,39.06,0,0,1,1.35-5.85,20,20,0,0,1,2.35-5.1,5.79,5.79,0,0,1,3.52-2.66c5.53-1.06,8.29-53.55,8.29-53.55l-17-37.09-1.7-3.7s2.12-21.46,3.19-21.46,2.76-5.31,2.76-7,5.1-6.17,5.1-6.17,13.48-7.88,14.33-10.65c.45-1.45,6.63-4.08,12.38-6.23,5.17-1.94,10-3.51,10-3.51C264.91,895.94,258.75,903.31,258.75,903.31Z"/><path class="cls-12" d="M343.27,952.13l-18.35,21.51s15.93,82.65,14,86.48a3.1,3.1,0,0,0-.28,1,25.2,25.2,0,0,0,.11,6c.22,2.08.56,4.39.94,6.7,1.12,6.71,2.63,13.29,2.63,13.29s-21.46,5.1-28,4.46-2.76-11.26-1.7-16.15-7.22-11.73-7.22-11.73l-11.69-48s-.85-10.63-3.4-15.73-.21-10.62-1.06-17.85c-.6-5.15,3.1-23.56,5.9-34.26,1.06-4.07,2-7,2.55-7.7a.44.44,0,0,1,.08-.11c1.7-1.48,0-10.2,0-10.2s4-22.94,3.61-24.86c-.23-1.08,1.1-3.75,2.3-5.85.91-1.59,1.74-2.86,1.74-2.86a270.25,270.25,0,0,1,22.31,16.6l1.28,1c14.87,12.11,15.72,36.54,15.72,36.54Z"/><path class="cls-21" d="M344.12,952.13l-18.35,21.51s15.93,82.65,14,86.48a3.1,3.1,0,0,0-.28,1,25.2,25.2,0,0,0,.11,6c.22,2.08.56,4.39.94,6.7,1.12,6.71,2.63,13.29,2.63,13.29s-21.46,5.1-28.05,4.46-2.76-11.26-1.7-16.15-7.22-11.73-7.22-11.73l-11.69-48s-.85-10.63-3.4-15.73-.21-10.62-1.06-17.85c-.6-5.15,3.1-23.56,5.9-34.26,1.06-4.07,2-7,2.55-7.7a.44.44,0,0,1,.08-.11c1.7-1.48,0-10.2,0-10.2s4-22.94,3.61-24.86c-.23-1.08,1.1-3.75,2.3-5.85.91-1.59,1.74-2.86,1.74-2.86a270.25,270.25,0,0,1,22.31,16.6l1.28,1c14.87,12.11,15.72,36.54,15.72,36.54Z"/><path class="cls-12" d="M305.37,963.65c-.22,1.7,5.1,92,10.62,97.32Z"/><path class="cls-23" d="M233.73,1089.23c-5.95,3.74-10.49-6.11-13.6-17.45-1.45-5.33-2.55-11-3.4-15.73-.32-1.77-.58-3.4-.8-4.87-.59-3.79-.85-6.27-.85-6.27l6.26-1.26,6.91-1.38.85,7.81.4,3.54s1.09,1.81,2.55,4.62C236.16,1066.47,243.13,1083.37,233.73,1089.23Z"/><path class="cls-23" d="M343,1061.86l-1.49,7.33-.93,4.62-.05.23s-18.57,25.17-24.52,14.76c-4.55-8,6.55-21,12-26.7,1.7-1.77,2.86-2.83,2.86-2.83l8.64,1.85Z"/><path class="cls-21" d="M292,1275.36c-2,2-25.92,0-25.92,0s-.75-5.95,0-6.49a7.37,7.37,0,0,0,1-2.19c1.1-3.1,2.55-8.5,2.4-9.81-.21-1.8-.1-9,4.77-8.5,0,0,6.38-13,13.4,3v3.82a10.68,10.68,0,0,0,.74,6.06,50.94,50.94,0,0,1,3.65,9.23C292.6,1272.67,292.77,1274.56,292,1275.36Z"/><path class="cls-24" d="M292,1275.36c-2,2-25.92,0-25.92,0s-.75-5.95,0-6.49a7.37,7.37,0,0,0,1-2.19c3.16-1.35,7.46-2.66,10.47-1.52,3.8,1.45,10.81,4,14.45,5.3C292.6,1272.67,292.77,1274.56,292,1275.36Z"/><path class="cls-12" d="M270.73,884.54a32.65,32.65,0,0,1,1.47,7.37c.05,3.4-1.42,6.68-3,9.74-1.78,3.5-3.8,7.26-3.2,11.14a33.08,33.08,0,0,0,1.26,4.34,19.06,19.06,0,0,1-1.2,13.7c-1.4,2.81-4.25,5.53-7.31,4.62-.22-3-.6-6.27-2-8.83a8.33,8.33,0,0,0-2.27-2.67c-2.21-1.7-5.26-2.06-7.26-4a6.19,6.19,0,0,1-.95-1.15,9,9,0,0,1-1.19-5.48,5,5,0,0,1,.11-.85,23,23,0,0,1,2.06-6c.53-1.13,1.08-2.27,1.63-3.39a53.46,53.46,0,0,0,3.21-7.89c5.17-1.94,10-3.5,10-3.5,2.83,4.25-3.33,11.65-3.33,11.65a5.91,5.91,0,0,1-.06.7C267.66,902.92,270.33,893.45,270.73,884.54Z"/><path class="cls-12" d="M283.46,852.57a9.53,9.53,0,0,0-5.94,4.75c-1.18,2.63-.57,5.68-.85,8.55a11.75,11.75,0,0,1-.36,1.86c-1.06,3.53-4.36,6-5.66,9.42-.1.25-.18.51-.26.78a10.08,10.08,0,0,0-.18,4.09,22.72,22.72,0,1,1,32,2.43,22.29,22.29,0,0,1-3.22,2.32c1-2.87,2-5.72,2.75-8.65,1.84-6.87,2.15-14.82-2.18-20.47A15.12,15.12,0,0,0,283.46,852.57Z"/><path class="cls-12" d="M327.86,921.38c-.74,2.72-2.65,5.69-5.45,5.56-1.34-.06-2.55-.85-3.89-1a5.77,5.77,0,0,0-4.82,2.55,34.31,34.31,0,0,0-2.69,5c-2.09,4.07-6.19,7.72-10.71,7.08l-.47-.08a6.59,6.59,0,0,1-1.35-.42c-4.05-1.7-6.24-6.92-6.1-11.53.17-5.26,2.37-10.24,3.09-15.46.68-4.81.06-9.72.58-14.54a36.05,36.05,0,0,1,.85-4.73c2.49,4.79,6,5.3,7.58,5.25.9-1.59,1.74-2.86,1.74-2.86a270.25,270.25,0,0,1,22.31,16.6A22.63,22.63,0,0,1,327.86,921.38Z"/><path class="cls-20" d="M295.82,827.31c4.41,1.59,8.13,4.82,12.65,6.06a36.75,36.75,0,0,1,4.39,1.14c5.1,2,7,8.2,7.93,13.59,1.76,9.74,3,20.25,9.52,27.72,1.16,1.33,2.5,2.6,3,4.25s-.19,3.93-1.92,4.29c3,1.25,4.42,4.91,3.8,8.06a12.15,12.15,0,0,1-5.64,7.49c-1.27.85-2.8,1.7-3,3.19a5,5,0,0,0,.54,2.31,22.87,22.87,0,0,1,.72,14.23c-.75,2.7-2.65,5.69-5.45,5.56-1.34-.06-2.55-.85-3.88-1a5.83,5.83,0,0,0-4.84,2.55,34.87,34.87,0,0,0-2.68,5.05c-2.08,4.06-6.18,7.72-10.71,7.08-5.21-.74-8.08-6.8-7.92-12s2.38-10.24,3.1-15.46c.66-4.81.05-9.72.58-14.55.76-7.07,3.92-13.64,5.75-20.5s2.14-14.83-2.18-20.48a15.15,15.15,0,0,0-16.15-5.1,9.55,9.55,0,0,0-5.95,4.75c-1.43,3.22-.21,7-1.22,10.41-1.13,3.79-4.87,6.4-5.95,10.2-1.25,4.58,1.7,9.24,1.79,14,.05,3.4-1.42,6.68-3,9.74-1.79,3.51-3.8,7.26-3.2,11.15a32.5,32.5,0,0,0,1.26,4.33,19.09,19.09,0,0,1-1.17,13.79c-1.4,2.81-4.3,5.53-7.31,4.62-.33-4.21-.92-9-4.29-11.5-2.22-1.7-5.27-2.06-7.27-4a8.23,8.23,0,0,1-2.15-6.65,20.91,20.91,0,0,1,2.16-6.85c2.44-5.27,5.41-10.52,5.75-16.32.51-8.75-5.1-17.36-3.06-25.9,1.7-7.14,8.3-12.14,10.79-19,1.34-3.71,1.55-8,4.25-10.9,3.91-4.09,9.89-2.7,14.83-3.93,2.3-.58,4.25-1.77,6.67-2.17A18.33,18.33,0,0,1,295.82,827.31Z"/><path class="cls-12" d="M235.48,1008.68v27.62c0,1.14,0,2.32-.07,3.51-.29,7.65-1.45,15.62-1.45,15.62a25.51,25.51,0,0,0-4.86-5.35c-4.08-3.2-7.54-2.8-10.15-1.33a12.7,12.7,0,0,0-3,2.43c-.58-3.79-.85-6.27-.85-6.27l6.26-1.26a5.83,5.83,0,0,1,3.52-2.66c5.52-1.06,8.28-53.54,8.28-53.54l-17-37.09v-1.81l5.75-9.14c9.56-8.29,11.9,3.61,11.9,3.61s1.7,32.3,1.7,33.15Z"/><path class="cls-21" d="M233.78,1006.78v27.63c0,1.14,0,2.32-.07,3.51-.29,7.65-1.45,15.61-1.45,15.61-11.9-16.79-20.3-1.19-20.3-1.19l-2.65-7.1a11.72,11.72,0,0,1-2.55-3.06c-5.18-8.56-2-23.5-2-23.5,1.81-23.37,9.67-49.72,9.67-49.72V946.65l5.76-9.13c9.56-8.29,13.6,3.61,13.6,3.61v65.65Z"/><path class="cls-12" d="M233.73,1037.07c-.29,7.65-1.46,15.61-1.46,15.61-11.89-16.79-20.29-1.19-20.29-1.19l-2.65-7.1a11.72,11.72,0,0,1-2.55-3.06C212.32,1038.28,224.53,1032.66,233.73,1037.07Z"/><path class="cls-21" d="M233.73,1037.92c-.29,7.65-1.46,15.61-1.46,15.61-11.89-16.79-20.29-1.19-20.29-1.19l-2.65-7.1a11.72,11.72,0,0,1-2.55-3.06C212.32,1039.13,224.53,1033.51,233.73,1037.92Z"/><path class="cls-10" d="M233.73,1037.92c-.29,7.65-1.46,15.61-1.46,15.61-11.89-16.79-20.29-1.19-20.29-1.19l-2.65-7.1a11.72,11.72,0,0,1-2.55-3.06C212.32,1039.13,224.53,1033.51,233.73,1037.92Z"/><path class="cls-12" d="M217.63,980.44s3.82,21,7.65,27.19S217.63,980.44,217.63,980.44Z"/><path class="cls-12" d="M207.84,1016.13s2.34,12.75,7.22,14.24S207.84,1016.13,207.84,1016.13Z"/><path class="cls-12" d="M339.51,1061.12l3.47.74-1.49,7.33a17.57,17.57,0,0,0-1.87-2.08,18.24,18.24,0,0,0-11.61-5,22.66,22.66,0,0,0-5.64.35,48,48,0,0,0,1.59-8.83,5.72,5.72,0,0,0-.53-3.28c-1.7-2.33-2.55-24-2.55-24s1.49-11,2.34-13.17-3.83-13-3.62-16.27,2.77-31.54,2.77-33,5.52-30.59,17-19.54l4.47,6.16.29,1.65-18.35,21.51s15.93,82.65,14,86.48A3.1,3.1,0,0,0,339.51,1061.12Z"/><path class="cls-21" d="M358.72,1042.69c-3.47,3.47-10.69,14.91-12.67,18.09l-.51.85-1.7,8.5s-5.95-10.2-19.76-7.65a47.29,47.29,0,0,0,1.6-8.83,5.71,5.71,0,0,0-.53-3.28c-1.7-2.34-2.55-24-2.55-24s1.48-11,2.33-13.18-3.82-13-3.61-16.26,2.76-31.54,2.76-33,5.53-30.6,17-19.55l4.46,6.16,3.4,19.34,6.59,33.57s1.7,13.17,3.19,15.09S362.74,1038.66,358.72,1042.69Z"/><path class="cls-12" d="M346,1059.93l-.51.85-1.7,8.5s-5.95-10.2-19.76-7.65a48.1,48.1,0,0,0,1.59-8.83C330.4,1053.1,339.93,1054.43,346,1059.93Z"/><path class="cls-21" d="M346,1060.78l-.51.85-1.7,8.5s-5.95-10.2-19.76-7.65a48.1,48.1,0,0,0,1.59-8.83C330.4,1054,339.93,1055.28,346,1060.78Z"/><path class="cls-10" d="M346,1060.78l-.51.85-1.7,8.5s-5.95-10.2-19.76-7.65a48.1,48.1,0,0,0,1.59-8.83C330.4,1054,339.93,1055.28,346,1060.78Z"/><path class="cls-12" d="M332.14,1001.05s14.45-.18,16.57,7.34S332.14,1001.05,332.14,1001.05Z"/><path class="cls-12" d="M329.38,1022.3s24.43-1.07,23.37,9.56S329.38,1022.3,329.38,1022.3Z"/><path class="cls-12" d="M330.87,1038.66s1.91-.43,3.18,4S330.87,1038.66,330.87,1038.66Z"/><path class="cls-12" d="M281.37,1142.56s5.83-1.7,8.5,0S281.37,1142.56,281.37,1142.56Z"/><path class="cls-12" d="M282.42,1148.72s13.81.21,15.09,1.7S282.42,1148.72,282.42,1148.72Z"/><g class="cls-25"><path d="M253,885.9c.41-6.95-3-13.81-3.44-20.62-.44,6.87,3,13.79,3.4,20.79A1,1,0,0,0,253,885.9Z"/><path d="M269.23,897.39c-1.77,3.45-3.74,7.14-3.23,11,.36-2.91,1.86-5.73,3.23-8.41,1.55-3.06,3-6.31,3-9.74a8.42,8.42,0,0,0-.07-1.12A24.42,24.42,0,0,1,269.23,897.39Z"/><path d="M331.42,881.85a5.46,5.46,0,0,1,1.7,1.12,4,4,0,0,0,.22-2.86.22.22,0,0,0,0-.12A2.64,2.64,0,0,1,331.42,881.85Z"/><path d="M266.08,926.57c-1.4,2.81-4.3,5.53-7.31,4.62-.33-4.2-.92-9-4.29-11.5-2.22-1.7-5.27-2.05-7.26-4a7.49,7.49,0,0,1-2.11-4.51c0,.14,0,.27-.05.41a8.19,8.19,0,0,0,2.16,6.65c2,1.92,5,2.31,7.26,4,3.4,2.55,4,7.29,4.29,11.5,3,.91,5.91-1.81,7.31-4.62a19,19,0,0,0,1.87-9.62A19,19,0,0,1,266.08,926.57Z"/><path d="M335.21,889.9a12.1,12.1,0,0,1-5.63,7.49c-1.27.85-2.8,1.7-3,3.2a3.68,3.68,0,0,0,.29,1.7,7.29,7.29,0,0,1,2.68-2.31,12.05,12.05,0,0,0,5.63-7.49,8,8,0,0,0,0-2.76Z"/><path d="M327.86,917.13c-.74,2.7-2.64,5.68-5.45,5.55-1.34,0-2.55-.84-3.88-1a5.77,5.77,0,0,0-4.83,2.55,33,33,0,0,0-2.68,5c-2.09,4.06-6.19,7.71-10.71,7.08s-7.42-5.51-7.86-10.28c0,.26-.06.53-.06.8-.17,5.26,2.7,11.29,7.92,12,4.52.64,8.62-3,10.71-7.08a33.33,33.33,0,0,1,2.68-5,5.63,5.63,0,0,1,4.83-2.55c1.33.12,2.55.91,3.88,1,2.81.13,4.71-2.85,5.45-5.56a22.28,22.28,0,0,0,.76-7.36A22.33,22.33,0,0,1,327.86,917.13Z"/><path d="M299.63,856a17.9,17.9,0,0,1,3.4,10.2c.22-4.63-.65-9.18-3.4-12.8a15.11,15.11,0,0,0-16.15-5.1,9.55,9.55,0,0,0-6,4.75c-1.43,3.21-.22,7-1.22,10.41-1.13,3.79-4.87,6.39-5.95,10.2a9.62,9.62,0,0,0-.22,3.74,7.91,7.91,0,0,1,.22-1.18c1-3.81,4.78-6.41,5.95-10.2,1-3.4-.21-7.2,1.22-10.41a9.3,9.3,0,0,1,6-4.75A15.12,15.12,0,0,1,299.63,856Z"/></g><g class="cls-16"><circle id="c40b9370-e8cf-4f46-b0aa-8f4512275a8b" class="cls-26" cx="560.84" cy="1113.65" r="68.16"/><path id="_2e22f7a4-7c1b-458a-b567-b65e93177032" data-name="2e22f7a4-7c1b-458a-b567-b65e93177032" class="cls-11" d="M540.82,1082.76a38.89,38.89,0,0,1,8,.78,17.25,17.25,0,0,1,6.23,2.55,11.94,11.94,0,0,1,4,4.72,16.39,16.39,0,0,1,1.44,7.27,13.66,13.66,0,0,1-2.13,7.79,15.36,15.36,0,0,1-6.27,5.1,14.92,14.92,0,0,1,8.5,5.75,18.88,18.88,0,0,1,1,18,15.62,15.62,0,0,1-4.88,5.58,21.69,21.69,0,0,1-7,3.2,31.92,31.92,0,0,1-8.08,1H511.75v-61.78Zm-1.7,25a9.76,9.76,0,0,0,6-1.7c1.56-1.13,2.34-3,2.34-5.62a7.4,7.4,0,0,0-.78-3.55,5.75,5.75,0,0,0-2.08-2.16,8.61,8.61,0,0,0-3-1.08,20.71,20.71,0,0,0-3.51-.3H525.31v14.45Zm.78,26.22a18.06,18.06,0,0,0,3.81-.4,9.1,9.1,0,0,0,3.2-1.29,6.63,6.63,0,0,0,2.21-2.46,8.59,8.59,0,0,0,.85-4q0-4.74-2.69-6.8a11.49,11.49,0,0,0-7.1-2H525.39v17Zm40.71-1.31c1.85,1.8,4.5,2.69,8,2.69a10.87,10.87,0,0,0,6.42-1.89,7.61,7.61,0,0,0,3.29-3.93h10.81q-2.6,8-8,11.51a23.51,23.51,0,0,1-13,3.47,25.33,25.33,0,0,1-9.51-1.7,19.73,19.73,0,0,1-7.18-4.8,21.37,21.37,0,0,1-4.55-7.44,27.52,27.52,0,0,1-1.6-9.52,26.12,26.12,0,0,1,1.64-9.34,21.68,21.68,0,0,1,11.9-12.46,23.07,23.07,0,0,1,9.31-1.81,21.18,21.18,0,0,1,10,2.21,19.85,19.85,0,0,1,7,5.94,24.44,24.44,0,0,1,3.94,8.5,31.8,31.8,0,0,1,.85,10h-32.3c.17,4,1.18,6.85,3,8.62Zm13.89-23.52c-1.47-1.62-3.71-2.42-6.7-2.42a10.7,10.7,0,0,0-4.89,1,9,9,0,0,0-3.11,2.47,8.88,8.88,0,0,0-1.65,3.11,13.89,13.89,0,0,0-.56,2.94h19.95a14,14,0,0,0-3.07-7.09Zm-19-23.27h25v6.92h-25Z"/></g><g class="cls-16"><path class="cls-27" d="M868.86,1153.57v1.93a67.73,67.73,0,1,1,0-1.93h0Z"/><path class="cls-28" d="M868.83,1155.5a68.17,68.17,0,0,1-59.93,65.74l-55.65-41.39,7-45,27.52,1.7,15.66,13.12,11.13-18.14,18.7,15.53,10,7.2v-22.72L868.61,1155C868.67,1155.14,868.76,1155.32,868.83,1155.5Z"/><polygon class="cls-28" points="753.25 1179.85 753.25 1179.85 753.25 1179.85 753.25 1179.85"/><path class="cls-11" d="M795.82,1155.25c0-14.45-8.88-24.24-25.79-24.24h-16.7v48.63h17C786.8,1179.64,795.82,1169.7,795.82,1155.25Zm-12.13.08c0,10.42-5.35,14.94-13.94,14.94h-4.38v-29.89h4.38C778,1140.38,783.69,1145.1,783.69,1155.33Zm60.13,24.31V1131H832.61v27.2l-17.9-27.2H803v48.62h11.21v-29.1l19.17,29.1h10.44Z"/></g><path class="cls-29" d="M817.61,1081.06c-.85-1.7-8.78-13.07-8.78-13.07h0l-.23-1-2.6-11.6-.18-.85c1.7-.44,2.92-1,3.3-1.64,1.87-3.28-1.58-7.25-1.58-7.25l-.72-17.21L805,986.78s-3.88-13.94-4.46-17.2-5.9-10.1-5.9-10.1,1.15-3.4-.29-5.83-4.61-13.8-4.61-13.8L787,908.41l-1.3-30.94a19.46,19.46,0,0,1,3.88.36c.19.16.08-.22-.19-.91a.6.6,0,0,1,.19.06c.44.36-.74-2.3-2-5l-.16-.31c.61-2.22,3.15-11.21,4.91-14.45,1.31-2.4-1.21-19-3.13-30.25l-.4-2.33c3.12-5.46,6.7-11.64,6.7-11.64s9.06-25.88,12.8-37.11,0-40.37,0-40.37h0s0-1.43-.21-3.66c-.58-6-2.83-17.79-11.45-22.36-11.79-6.25-15.53-13.93-15.53-13.93s-14.72-13.39-16.58-8.9l-.13-.25a29.6,29.6,0,0,1-2.41-7.08c-.05-.26-.09-.51-.13-.76a22.8,22.8,0,0,0,4.84-5.25c0,.37-.06.75-.08,1.12h0v1a3.68,3.68,0,0,0,0,.47v.28a2.69,2.69,0,0,0,2.67-1.49,10.53,10.53,0,0,0,.91-3.1,19.1,19.1,0,0,1,2.7-6.43c1.26-1.93,2.94-3.87,3.16-6.07a5.24,5.24,0,0,0,0-1c-.11-1.12-.64-2.16-.8-3.28a6.91,6.91,0,0,1,0-1.7h0a6.41,6.41,0,0,1,.13-1c0-.33.13-.85.19-1.33s.11-.74.16-1.11v0a12.13,12.13,0,0,0,0-3,5.72,5.72,0,0,0-2.76-4.44c-.85-.43-1.82-.57-2.67-1-2.25-1.15-3-3.9-4.25-6a10.65,10.65,0,0,0-8.42-4.83c-3.4-.14-6.73,1.35-10.07.85-2.13-.34-4.1-1.5-6.26-1.65-3.15-.22-6,1.7-8.55,3.54-1.81,1.3-3.74,2.77-4.33,4.91-.48,1.75,0,3.77-1,5.3-.63,1-1.79,1.56-2.5,2.55a4.25,4.25,0,0,0-.85,2.73v.73c.06.65.18,1.31.29,2v.2h0c.25,1.8-.33,3.06-1,4.81a7.19,7.19,0,0,0-.46,2.3V659a4,4,0,0,0,0,.49h0a2.87,2.87,0,0,0,.76,1.63,2.76,2.76,0,0,1,.85-.85v.83a22.45,22.45,0,0,0,6.8,16.06,6.42,6.42,0,0,1-.1.75c-.37,2.55-.85,5.35-1.44,8l-.2.85h-4.25s.72-3.13-6.33.71-15.69,5.69-17,6.39S684.74,707,684.74,707s-13.82,8-13.39,21.61h0l-1.58,15.3-1.15,28.57s-2.16,24.32,0,27.73,5.9,23.6,5.18,26.16c-.52,1.85,4.69,14.87,8.31,22.46a31,31,0,0,0-2.69,3.26s-1.45,5.7-1.45,6.27a.1.1,0,0,0,.07.09c-3.19,3.23-8.27,8.54-8.27,9.72,0,1.7,1,3.18-.57,3.08s-1.63,1.75-1.54,2.88-1.92-.56-1.77,1.57-14.68,35.54-14.68,35.54-6.76,16.35-9.35,19-6.19,14.65-5.9,19.05.43,5.7-.72,5.7-3.45,4-3.45,4l-11.37,35s-3.31,10.8-4.31,10.66-3.27,18.57-3.27,18.57-2.44,5.54-2.87,5.54c-.08,0,.31.4,1,1l-.49.41a34.52,34.52,0,0,1-3.36,2.55s-6.57-4.53-11-4.1-13.66,1.55-18.28-1.7c-2.55-1.82-7.93-3.4-12.25-3.47-3.45-.05-6.25.85-6.45,3.47-.43,5.82,15.69,16.78,15.69,16.78s17,4.82,20.28,9.34S612,1064.43,612,1064.43s4.09-1.81,5.63-3.62h0a1.77,1.77,0,0,0,.56-1.35c-.29-2.13,5.61-10.2,5.61-10.2l.85-4c.42-2,.94-4.39,1.46-6.51l.21-.85a5,5,0,0,0,2-.31c5.75-2.27,6.33-8.5,6.33-8.5l8.61-18s3.74-10.38,4.88-12.24,10.08-20.46,10.08-20.46,1.58-8,3-10.38,1.58-7.65,1.58-7.65,3-8,6.19-11.09a42,42,0,0,0,5.9-8.1s13.09-20.62,22-26.44c0,0,21.45-26.16,22.74-28.44s5.32-8.24,10.2-2.85,10.06,12.38,10.06,12.38l8.79,23.88,9.78,30.6s4.6,7.38,4.32,9,7.48,15.5,7.48,15.5,3,5.1,2.44,7.65,2.16,5.1,2.16,5.1l.85,10.38s3.17,10.2,2.31,11.8,3,11.37,3,11.37,0,8.67,1.44,11.52,3.19,14.21,3,15.06,0,8.68,0,8.68,1,0,2.62,0l.07.85.71,8.56.07.79a3.41,3.41,0,0,0-1.32,2.5c0,2.31.34,9.1.63,14.44.07,1.42.14,2.73.21,3.83a2.82,2.82,0,0,0,3,2.64h.17a37.79,37.79,0,0,1,12.28.45,45.2,45.2,0,0,0,13.67,1s.31-3.21.36-6.08A11.79,11.79,0,0,0,817.61,1081.06Z"/><polygon class="cls-30" points="806.61 1068.39 787.2 1068.39 787.02 1066.1 786.31 1057.57 785.78 1051.11 802.78 1051.11 803.82 1055.81 806.38 1067.37 806.61 1068.39"/><path class="cls-30" d="M628.26,1034.1c-.36.36-1,2.51-1.58,5.1-1.1,4.56-2.24,10.48-2.24,10.48l-.72.17-15.13,3.65s-7.93-18.12-4.25-18.55a9.35,9.35,0,0,0,3.6-1.6,35.28,35.28,0,0,0,3.48-2.63c2-1.7,3.55-3.28,3.55-3.28S629.25,1033.11,628.26,1034.1Z"/><path class="cls-12" d="M628.26,1034.1c-.36.36-1,2.51-1.58,5.1-5.23-.31-13.13-6.51-15.3-8.5,2-1.7,3.55-3.28,3.55-3.28S629.25,1033.11,628.26,1034.1Z"/><path class="cls-12" d="M803.81,1055.8c-4.66,1.26-13.2,1.64-17.51,1.76l-.52-6.46h17Z"/><path class="cls-31" d="M680.53,857s-10.62,10.48-10.62,12.18,1,3.17-.56,3.07-1.61,1.75-1.52,2.88-1.88-.57-1.75,1.55-14.45,35.42-14.45,35.42-6.65,16.29-9.2,19-6.1,14.59-5.81,19,.43,5.66-.71,5.66-3.4,4-3.4,4l-11.18,34.85s-3.27,10.77-4.25,10.62-3.4,18.56-3.4,18.56-2.42,5.52-2.84,5.52,12.32,11,18,8.79,6.23-8.5,6.23-8.5l8.5-17.85s3.69-10.34,4.82-12.19,9.92-20.39,9.92-20.39,1.55-7.93,3-10.34,1.56-7.65,1.56-7.65,3-7.94,6.09-11a42,42,0,0,0,5.81-8.07s12.89-20.54,21.67-26.35c0,0,21.1-26.07,22.38-28.33s5.24-8.21,10.06-2.83,9.91,12.32,9.91,12.32l8.64,23.8L757,951.09s4.54,7.37,4.25,8.92,7.37,15.45,7.37,15.45,3,5.1,2.41,7.65,2.12,5.1,2.12,5.1l.85,10.34s3.12,10.2,2.27,11.75,3,11.33,3,11.33,0,8.65,1.42,11.48,3.11,14.16,3,15,0,8.65,0,8.65,21.38-.15,23.22-3.4-1.56-7.23-1.56-7.23l-.71-17.14-1.84-41.5s-3.82-13.89-4.39-17.14-5.8-10.06-5.8-10.06,1.13-3.4-.29-5.81-4.53-13.74-4.53-13.74l-2.7-31.31-1.38-34.13Z"/><path class="cls-12" d="M787.62,879c-.85-.71-35.7-1-36.12-1s-13.6-5.25-13.6-5.25-29.32-4.81-33.85-2.68-18.56-4-18.56-4v-2.7s-7.51-2.55-7.51-3.11,1.42-6.24,1.42-6.24l.85-.29,3.25-1.12,99.58,16s1.32,2.7,2.55,5.34S788.05,879.35,787.62,879Z"/><path class="cls-32" d="M787.62,878.14c-.85-.71-35.7-1-36.12-1s-13.6-5.25-13.6-5.25-29.32-4.81-33.85-2.68-18.56-4-18.56-4v-2.7S678,860,678,859.44s1.42-6.24,1.42-6.24l.85-.29,3.25-1.12,99.58,16s1.32,2.7,2.55,5.34S788.05,878.5,787.62,878.14Z"/><path class="cls-12" d="M625.24,1044.83l-.85,4s-.28.39-.71,1l-15.09,3.65s-7.93-18.12-4.25-18.55a9.35,9.35,0,0,0,3.6-1.6c-.77,5.68,3.63,11.66,3.63,11.66C617.78,1049.68,625.24,1044.83,625.24,1044.83Z"/><path class="cls-22" d="M625.24,1045.69l-.85,4s-5.8,8.07-5.52,10.2a1.83,1.83,0,0,1-.55,1.35h0c-1.52,1.8-5.55,3.59-5.55,3.59s-13.3-6.8-16.57-11.33-20-9.34-20-9.34-15.86-10.92-15.44-16.72c.19-2.55,2.94-3.5,6.34-3.45,4.25,0,9.55,1.64,12.07,3.45,4.54,3.25,13.6,2.12,18,1.7s10.85,4.09,10.85,4.09c-1.47,6,3.45,12.63,3.45,12.63C617.78,1050.54,625.24,1045.69,625.24,1045.69Z"/><path class="cls-32" d="M618.36,1061.23h0c-1.51,1.8-5.54,3.6-5.54,3.6s-13.31-6.8-16.58-11.33-20-9.35-20-9.35-15.86-10.92-15.43-16.72c.18-2.55,2.94-3.5,6.34-3.45,2.55,4.25,6.31,10.15,9.09,11.8,4.54,2.7,13.46,7.8,13.46,7.8s14.16,8.92,15.16,9.92C605.7,1054.32,613.91,1059.74,618.36,1061.23Z"/><path class="cls-12" d="M806.62,1068.38H787.2l-.19-2.29c2.45-2.3,7.69-3.4,7.69-3.4,3.64-1.11,10.34,3.67,11.67,4.65Z"/><path class="cls-22" d="M815.61,1085.56c-.05,2.87-.37,6.06-.37,6.06a44.08,44.08,0,0,1-13.45-1,36.91,36.91,0,0,0-12.09-.46,2.78,2.78,0,0,1-3.08-2.43,1.11,1.11,0,0,1,0-.19c-.06-1.08-.14-2.39-.2-3.8-.29-5.3-.62-12.06-.62-14.37,0-4,8.92-5.8,8.92-5.8,4-1.24,11.9,4.82,11.9,4.82s7.79,11.33,8.64,13A12.05,12.05,0,0,1,815.61,1085.56Z"/><path class="cls-32" d="M815.61,1085.56c-.05,2.87-.37,6.06-.37,6.06a44.08,44.08,0,0,1-13.45-1,36.91,36.91,0,0,0-12.09-.46,2.78,2.78,0,0,1-3.08-2.43,1.11,1.11,0,0,1,0-.19c-.06-1.08-.14-2.39-.2-3.8,3.26-.5,8.07-1,11.42-.2C801.71,1084.44,810.65,1085.2,815.61,1085.56Z"/><path class="cls-12" d="M622.1,1000.46s-3,5.1,0,7.44S622.1,1000.46,622.1,1000.46Z"/><path class="cls-12" d="M781.88,1020.22c.85,1.7,3.11,4.25,2.72,7.23S781.88,1020.22,781.88,1020.22Z"/><path class="cls-30" d="M779.27,709.43s-13-1.32-26.44-3.1l-.55-.08c-15.62-2.08-31.65-4.77-28.55-6.74,1.39-.85,2.55-3,3.51-5.73a51,51,0,0,0,1.51-5.31h0c.06-.28.12-.57.19-.85.59-2.67,1.06-5.47,1.42-8,.72-5.16,1-9.28,1-9.28s33.29-12.61,29.19,3.11a17.12,17.12,0,0,0-.12,7.7,29.2,29.2,0,0,0,2.37,7.06C768.12,699.53,779.27,709.43,779.27,709.43Z"/><path class="cls-12" d="M760.57,673.45a17.11,17.11,0,0,0-.12,7.7,22.54,22.54,0,0,1-30.09-1.54c.72-5.16,1-9.27,1-9.27S764.67,657.72,760.57,673.45Z"/><path class="cls-30" d="M768.78,662.8a22.53,22.53,0,0,1-45,.06h0v-.06a22.53,22.53,0,0,1,45,0Z"/><path class="cls-12" d="M753.13,705.4a3.88,3.88,0,0,1-.3.93l-.55-.08c-15.62-2.08-31.65-4.77-28.55-6.74,1.39-.85,2.55-3,3.51-5.73a51,51,0,0,0,1.51-5.31h0c.06-.28.12-.57.19-.85h.66c0,.36,1.7,11.25,16.31,13.11l.49.06C752.1,701.43,753.56,703.3,753.13,705.4Z"/><path class="cls-32" d="M752.28,706.25c-.71,3.53-6.73,7.71-6.73,7.71l-16.72-3.12s-10.48-9.35-10.48-9.63,6.23-12.75,6.23-12.75h4.17c0,.36,1.7,11.25,16.31,13.11l.49.06C751.25,702.28,752.71,704.15,752.28,706.25Z"/><path class="cls-12" d="M779.27,709.43s-13.34-1.35-27-3.18c-.71,3.53-6.73,7.71-6.73,7.71l-16.72-3.12s-10.48-9.35-10.48-9.63,6.23-12.75,6.23-12.75h.21a19.93,19.93,0,0,0,2.45,5.32c2.63,4,7.65,8.41,17,7.86l.78-.06c14-1.17,17.19-10.88,17.77-13.38C768.12,699.53,779.27,709.43,779.27,709.43Z"/><path class="cls-12" d="M785.63,873.14l-.28,1c-3.4-2.55-28.18-4.25-28.18-4.25s-6.52-.76-12.75-1.76c-4.52-.72-8.89-1.57-10.5-2.34a11.19,11.19,0,0,0-1.14-.44c-5.65-1.76-22.95-3.81-22.95-3.81s-8.5,3.82-13,2.12-17.43-9.64-17.43-9.64.29-.42.85-1.14l3.25-1.12,99.59,16S784.41,870.5,785.63,873.14Z"/><path class="cls-22" d="M787.23,828.35c1.89,11.27,4.37,27.75,3.08,30.14-2,3.68-5,14.87-5,14.87-3.4-2.55-28.18-4.25-28.18-4.25s-6.52-.76-12.75-1.75c-4.52-.73-8.89-1.58-10.5-2.35a9.2,9.2,0,0,0-1.14-.43c-5.65-1.77-22.95-3.82-22.95-3.82s-8.5,3.82-13,2.12-17.43-9.63-17.43-9.63a41.6,41.6,0,0,1,6.38-6.94c4.38-4,12.46-38.11,12.25-38.53s-2.2-11.33-1.63-17.71-1.7-37.54-1.7-37.54-22.78-8.82-23.18-22.42,13.17-21.53,13.17-21.53,15.72-12.32,17-13,9.77-2.55,16.72-6.37,6.23-.71,6.23-.71,2.84,15,19.69,14,18.7-14,18.7-14c1.81-4.53,16.33,8.93,16.33,8.93S783,705,794.62,711.27c8.5,4.55,10.7,16.28,11.27,22.27.22,2.22.21,3.65.21,3.65L772,761.7l13.42,55.95S786.23,822.22,787.23,828.35Z"/><path class="cls-30" d="M702.77,857.46s11.2,19.26,22.81,13.88a13.65,13.65,0,0,0,6.2-5.68c4.58-7.92,0-18-8.87-20.39-3.27-.85-6.8-1.39-9.66-.85C705.18,845.84,702.77,857.46,702.77,857.46Z"/><path class="cls-12" d="M702.77,857.46s11.2,19.26,22.81,13.88a13.65,13.65,0,0,0,6.2-5.68c4.58-7.92,0-18-8.87-20.39-3.27-.85-6.8-1.39-9.66-.85C705.18,845.84,702.77,857.46,702.77,857.46Z"/><path class="cls-12" d="M686.34,716.8s8.83,6,9,15.3Z"/><path class="cls-12" d="M700.22,721.33c0,.57-2.55,39.95,2,53.4S700.22,721.33,700.22,721.33Z"/><path class="cls-12" d="M768.78,662.8a22.34,22.34,0,0,1-3.65,12.29v-.85c-.14-2.36-1.39-4.49-2.61-6.53a12.92,12.92,0,0,0-3.4-4.2,6.26,6.26,0,0,1-1.14-.85c-.79-.85-.7-2.2-.85-3.4a7.59,7.59,0,0,0-6.12-6.37,2.53,2.53,0,0,0-1.9.27c-.58.41-.85,1.16-1.33,1.63a3.44,3.44,0,0,1-2.95.41c-2.23-.44-4.55-1.25-6.71-.54-3.7,1.24-5.1,6.36-8.9,7.31a21.43,21.43,0,0,1-3.4.24,4.73,4.73,0,0,0-2.07.64v-.05a22.52,22.52,0,1,1,45,0Z"/><path class="cls-33" d="M724,647.85c.71-.94,1.84-1.51,2.48-2.5,1-1.52.49-3.53,1-5.27.57-2.14,2.48-3.6,4.24-4.9,2.55-1.83,5.32-3.75,8.42-3.53,2.12.15,4.05,1.31,6.16,1.65,3.29.53,6.59-.95,9.92-.85a10.43,10.43,0,0,1,8.28,4.82c1.32,2.11,2,4.86,4.25,6,.85.44,1.8.57,2.63,1a5.64,5.64,0,0,1,2.71,4.42,20.17,20.17,0,0,1-.37,5.37,9.32,9.32,0,0,0-.12,2.69c.15,1.11.68,2.15.79,3.27.26,2.55-1.7,4.79-3.12,7a19.37,19.37,0,0,0-2.64,6.41,10.36,10.36,0,0,1-.9,3.09,2.67,2.67,0,0,1-2.64,1.49c-.16-1.54.22-3.09.12-4.64-.14-2.36-1.39-4.49-2.61-6.53a12.81,12.81,0,0,0-3.4-4.2,6.76,6.76,0,0,1-1.14-.85c-.79-.85-.7-2.2-.85-3.4A7.58,7.58,0,0,0,751,652a2.58,2.58,0,0,0-1.9.26c-.58.41-.85,1.17-1.34,1.64a3.34,3.34,0,0,1-2.94.4c-2.23-.43-4.55-1.24-6.71-.53-3.71,1.23-5.1,6.36-8.9,7.31a21.43,21.43,0,0,1-3.4.24,3.58,3.58,0,0,0-2.92,1.52c-1.14-1.19-.91-3.13-.35-4.68.65-1.81,1.25-3.09.93-5S722.74,649.48,724,647.85Z"/><path class="cls-12" d="M641.22,956.9s-8.07,4.25-3.82,5.1S641.22,956.9,641.22,956.9Z"/><path class="cls-12" d="M774.23,967.1s4.47-6,9.35-2.34S774.23,967.1,774.23,967.1Z"/><path class="cls-12" d="M784.6,970.93s5.57-1.92,9,0Z"/><path class="cls-12" d="M674.58,874.46s11.9,11.47,15.72,11.9S674.58,874.46,674.58,874.46Z"/><path class="cls-12" d="M676.28,723.6l-3.09,6.51-1.57,15.3-1.13,28.47s-2.12,24.22,0,27.62,5.81,23.52,5.1,26.07,9.35,26.35,11.2,27.77,8.35,1.7,12,1l6.73,6.4,19.06-17.58-11.77-8.93s2.7-4.53-4.81-9.49c0,0-3.4-5.67-3.54-8.64a63.37,63.37,0,0,0-3.12-17.85c-2.69-7.93-4.25-52-4.25-52S690.73,716.09,676.28,723.6Z"/><path class="cls-22" d="M674.58,723.6l-3.09,6.51-1.57,15.3-1.13,28.47s-2.12,24.22,0,27.62,5.81,23.52,5.1,26.07,9.35,26.35,11.2,27.77,8.35,1.7,12,1l6.73,6.4,19.06-17.58-11.77-8.93s2.7-4.53-4.81-9.49c0,0-3.4-5.67-3.54-8.64a63.37,63.37,0,0,0-3.12-17.85c-2.69-7.93-4.25-52-4.25-52S689,716.09,674.58,723.6Z"/><path class="cls-12" d="M704.19,830.12c-.85.43-18,16.29-11.62,16.72S704.19,830.12,704.19,830.12Z"/><path class="cls-30" d="M726,849.24s-24.5,2.55-23.23,12.47,18.7,19.47,24.23,16.46,10.19-5.88,10.19-5.88Z"/><path class="cls-12" d="M800.79,730.4l3.55,6.8s3.68,29,0,40.23-12.61,37-12.61,37-10.76,18.84-11,19.69S760,864.4,756.32,866s-10.63.74-11.05-1-9.78,7.31-9.78,7.31-18-21.77-15.15-24,11.54-2.83,11.54-2.83.64,2.12,1.35-2.27,4-6.66,6.37-6.37,1.42-2.27,1.84-5,7.08-7.5,7.08-7.5,3.27-5.25,3.27-8.37,6.8-5.8,7.36-5.8.42-1.28.42-5.81,3.4-12.61,3.4-12.61l2.1-25.5,3.69-25.92S778.84,708.73,800.79,730.4Z"/><path class="cls-12" d="M785.38,817.65s.85,4.57,1.88,10.66c-1.7,3.05-3.06,5.48-3.16,5.77-.28.85-20.68,30.32-24.36,31.87s-10.62.74-11-1c-.18-.76-2.13.59-4.25,2.33-2.63,2.18-5.53,5-5.53,5s-2.85-3.45-6.11-7.75c-4.93-6.49-10.77-14.91-9-16.28,2.86-2.27,11.55-2.83,11.55-2.83s.64,2.12,1.34-2.27,4-6.66,6.38-6.37,1.42-2.27,1.84-5,7.08-7.51,7.08-7.51,3.26-5.24,3.26-8.36,6.8-5.8,7.36-5.8.43-1.28.43-5.82,3.4-12.6,3.4-12.6l2.1-25.5,3.68-25.92s10.06-31.59,32-9.92l1.64,3.15c.21,2.22.2,3.65.2,3.65L771.89,761.7Z"/><path class="cls-22" d="M802.49,730.4l3.55,6.8s3.68,29,0,40.23-12.61,37-12.61,37-10.76,18.84-11,19.69S761.7,864.4,758,866s-10.63.74-11-1-9.78,7.31-9.78,7.31-18-21.77-15.15-24,11.54-2.83,11.54-2.83.64,2.12,1.35-2.27,4-6.66,6.37-6.37,1.42-2.27,1.84-5,7.08-7.5,7.08-7.5,3.27-5.25,3.27-8.37,6.8-5.8,7.36-5.8.42-1.28.42-5.81,3.4-12.61,3.4-12.61l2.1-25.5,3.69-25.92S780.54,708.73,802.49,730.4Z"/><path class="cls-12" d="M739.32,844.23s.85,1.91,4.67,2.61S739.32,844.23,739.32,844.23Z"/><path class="cls-12" d="M785.07,730.54c-.14.42-12.75,14.67-10.2,18.39S785.07,730.54,785.07,730.54Z"/><path class="cls-12" d="M770.77,796s7.22,7.09,5.8,10.49S770.77,796,770.77,796Z"/><path class="cls-12" d="M771.9,782.52c.42.71,16,2.55,16.86,8.5S771.9,782.52,771.9,782.52Z"/><g class="cls-25"><path d="M773.48,655.12a5.61,5.61,0,0,1,.13-1,22.59,22.59,0,0,0,.4-4.93c-.06,1.08-.25,2.16-.4,3.23A9.26,9.26,0,0,0,773.48,655.12Z"/><path d="M723.49,653.46a5.51,5.51,0,0,0,0-1.9c-.1-.6-.21-1.21-.27-1.81a11.5,11.5,0,0,0,.27,3.51Z"/><path d="M774.23,659.75c-.36,2-1.88,3.84-3.05,5.63a19,19,0,0,0-2.64,6.4,11.08,11.08,0,0,1-.9,3.09,2.65,2.65,0,0,1-2.64,1.49.11.11,0,0,0,0-.08,13.22,13.22,0,0,0,0,1.78,2.65,2.65,0,0,0,2.64-1.49,11.08,11.08,0,0,0,.9-3.09,19,19,0,0,1,2.64-6.4c1.41-2.18,3.4-4.39,3.11-7C774.33,660,774.25,659.87,774.23,659.75Z"/><path d="M765.12,671.73c-.14-2.36-1.39-4.51-2.61-6.54a13.1,13.1,0,0,0-3.4-4.25,6.26,6.26,0,0,1-1.14-.85c-.79-.85-.7-2.2-.85-3.4a7.6,7.6,0,0,0-6.11-6.36,2.55,2.55,0,0,0-1.91.26c-.58.41-.85,1.17-1.33,1.64a3.43,3.43,0,0,1-2.95.41c-2.23-.44-4.55-1.26-6.71-.54-3.7,1.23-5.1,6.35-8.9,7.31a21.6,21.6,0,0,1-3.4.24,3.54,3.54,0,0,0-2.92,1.51,2.89,2.89,0,0,1-.74-1.48,3.65,3.65,0,0,0,.74,3.18,3.54,3.54,0,0,1,2.92-1.51,21.6,21.6,0,0,0,3.4-.24c3.79-1,5.2-6.08,8.9-7.31,2.16-.72,4.48.1,6.71.54a3.43,3.43,0,0,0,2.95-.41c.52-.47.75-1.23,1.33-1.64A2.55,2.55,0,0,1,751,652a7.6,7.6,0,0,1,6.11,6.36c.14,1.18.06,2.49.85,3.4a6.26,6.26,0,0,0,1.14.85,13.1,13.1,0,0,1,3.4,4.25c1.19,2,2.38,4.06,2.55,6.34A9.41,9.41,0,0,0,765.12,671.73Z"/></g><path class="cls-34" d="M485.78,744.8V834a1.4,1.4,0,0,0,1.38,1.42h0c24.56-.77,45-21.07,45-46s-20.46-45.26-45-46a1.4,1.4,0,0,0-1.43,1.36Z"/><path class="cls-35" d="M424.44,866.6V792.78A54,54,0,0,1,435.21,760c6.69-8.79,17.1-16.74,32.84-16.64a1.6,1.6,0,0,1,1.62,1.6h0v76s2.55,41.52-44.33,46.44a.86.86,0,0,1-.9-.8Z"/><circle class="cls-10" cx="231.18" cy="708.28" r="26.77"/><circle class="cls-10" cx="175.08" cy="644.53" r="16.57"/><circle class="cls-10" cx="88.4" cy="681.5" r="10.2"/><path class="cls-11" d="M426.56,1191.09a14.38,14.38,0,0,0-1.94,3.65c-.12.31-.24.68-.36,1a3.78,3.78,0,0,0-.67-.23,9.37,9.37,0,0,0-3-.26c0-.39.05-.85.06-1.24.12-4.48-.4-10.73-4.68-8.08-4.09,2.55-1.17,6.8,1.47,9.53l.68.66c-2.41,1.7-2.87,5.72-3.27,9.89s-3.94,8.75-6.3,11.34l-.66.72a8.6,8.6,0,0,0-6.84-1.76c-.1-.36-.2-.75-.32-1.15-1.89-6.91-5.84-18.81-10.89-21.36l.66-.85c2.14-2.81,4.56-7,1-8s-3.88,3.61-3.68,7.11a12,12,0,0,0,.1,1.24,5.27,5.27,0,0,0-3.73,1.82l-.55-.65c-2.89-3.4-8.18-8.81-9.79-4.72-1.49,3.81,3.17,8.74,6.45,11.61l.21.18c-2.2,8.94,7.41,16.22,12.58,19.41l.68.41c-7.14,8.41-11.56,24.18-11.56,24.18l20,3.57s13.25-11.44,11.55-22.18h.14c13.25-2.65,16.26-16.78,14.2-25.16a.49.49,0,0,0,.23-.11,15,15,0,0,0,6.14-4.63C438.13,1191.85,430.37,1186,426.56,1191.09Z"/><path class="cls-12" d="M426.56,1191.09a14.38,14.38,0,0,0-1.94,3.65c-.12.31-.24.68-.36,1a3.78,3.78,0,0,0-.67-.23,9.37,9.37,0,0,0-3-.26c0-.39.05-.85.06-1.24.12-4.48-.4-10.73-4.68-8.08-4.09,2.55-1.17,6.8,1.47,9.53l.68.66c-2.41,1.7-2.87,5.72-3.27,9.89s-3.94,8.75-6.3,11.34l-.66.72a8.6,8.6,0,0,0-6.84-1.76c-.1-.36-.2-.75-.32-1.15-1.89-6.91-5.84-18.81-10.89-21.36l.66-.85c2.14-2.81,4.56-7,1-8s-3.88,3.61-3.68,7.11a12,12,0,0,0,.1,1.24,5.27,5.27,0,0,0-3.73,1.82l-.55-.65c-2.89-3.4-8.18-8.81-9.79-4.72-1.49,3.81,3.17,8.74,6.45,11.61l.21.18c-2.2,8.94,7.41,16.22,12.58,19.41l.68.41c-7.14,8.41-11.56,24.18-11.56,24.18l20,3.57s13.25-11.44,11.55-22.18h.14c13.25-2.65,16.26-16.78,14.2-25.16a.49.49,0,0,0,.23-.11,15,15,0,0,0,6.14-4.63C438.13,1191.85,430.37,1186,426.56,1191.09Z"/><path class="cls-11" d="M386.76,1196.85l-2.33,6.8s-1.3-.92-2.94-2.36c-3.28-2.87-7.94-7.8-6.45-11.61,1.6-4.09,6.9,1.31,9.79,4.72C386,1195.8,386.76,1196.85,386.76,1196.85Z"/><path class="cls-11" d="M391.69,1193c-.71.93-1.47,1.82-2.27,2.68q-.3-1.8-.42-3.6c-.2-3.5.18-8.15,3.69-7.11S393.84,1190.15,391.69,1193Z"/><path class="cls-11" d="M421.84,1194c-.07,2.25-.29,4-.29,4a29.6,29.6,0,0,1-2.91-2.56c-2.65-2.75-5.57-7-1.47-9.53C421.44,1183.3,422,1189.57,421.84,1194Z"/><path class="cls-11" d="M435.65,1197a15,15,0,0,1-6.13,4.63,15.39,15.39,0,0,1-2.06.75l-2.76-3.87a30.58,30.58,0,0,1,1.14-3.75,14.7,14.7,0,0,1,1.94-3.65C431.59,1186,439.36,1191.85,435.65,1197Z"/><path class="cls-12" d="M384.83,1194.45c1.16,1.35,1.93,2.4,1.93,2.4l-2.33,6.8s-1.3-.92-2.94-2.36a13.34,13.34,0,0,1,2.63-6Z"/><path class="cls-12" d="M391.69,1193c-.71.93-1.47,1.82-2.27,2.68q-.3-1.8-.42-3.6A4.67,4.67,0,0,1,391.69,1193Z"/><path class="cls-11" d="M403.19,1220.11l-5.82,2.55s-1.27-.62-3.09-1.75c-6.11-3.76-18.39-13.22-10.16-24.37s15.1,8.85,17.81,18.63C402.75,1218.1,403.19,1220.11,403.19,1220.11Z"/><path class="cls-12" d="M418.64,1195.52a4.74,4.74,0,0,1,3.2-1.45c-.07,2.26-.29,4-.29,4A28.73,28.73,0,0,1,418.64,1195.52Z"/><path class="cls-12" d="M429.52,1201.61a15.39,15.39,0,0,1-2.06.75l-2.76-3.87a30.58,30.58,0,0,1,1.14-3.75C427.62,1195.78,428.93,1198.36,429.52,1201.61Z"/><path class="cls-11" d="M415.08,1226.88l-1,.17c-19.49,3-6.43-7.56-6.43-7.56s.85-.85,2.07-2.12c2.35-2.59,5.89-7.14,6.29-11.34.62-6.31,1.32-12.24,8.78-10.5S433.51,1223.18,415.08,1226.88Z"/><rect class="cls-36" x="377.49" y="1275.4" width="37.23" height="9.79"/><rect class="cls-36" x="371.58" y="1243.58" width="48.65" height="34.17"/><rect class="cls-12" x="377.49" y="1275.4" width="37.23" height="9.79"/><rect class="cls-12" x="371.58" y="1243.58" width="48.65" height="34.17"/><rect class="cls-36" x="379.94" y="1275.4" width="37.23" height="9.79"/><path class="cls-12" d="M401.93,1215.18c.85,2.92,1.26,4.93,1.26,4.93l-5.82,2.55s-1.27-.62-3.09-1.75C396.56,1218,399.12,1215.85,401.93,1215.18Z"/><path class="cls-12" d="M415.08,1226.88l-1,.17c-19.49,3-6.43-7.56-6.43-7.56s.85-.85,2.07-2.12C413.38,1220.28,414.89,1223.57,415.08,1226.88Z"/><path class="cls-11" d="M383.36,1245.51s10.92-39.1,26.22-27-6.22,30.6-6.22,30.6Z"/><circle class="cls-12" cx="388.91" cy="1202.67" r="1.22"/><circle class="cls-12" cx="388.81" cy="1208.39" r="1.22"/><circle class="cls-12" cx="424.31" cy="1203.8" r="1.22"/><circle class="cls-12" cx="395.75" cy="1233.08" r="1.22"/><circle class="cls-12" cx="421.76" cy="1213.28" r="1.22"/><circle class="cls-12" cx="409.11" cy="1225.94" r="1.22"/><circle class="cls-12" cx="393.1" cy="1205.12" r="1.22"/><circle class="cls-12" cx="420.94" cy="1207.47" r="1.22"/><circle class="cls-12" cx="416.76" cy="1216.95" r="1.22"/><circle class="cls-12" cx="403.91" cy="1232.16" r="1.22"/><circle class="cls-12" cx="401.26" cy="1226.14" r="1.22"/><circle class="cls-12" cx="394.93" cy="1212.57" r="1.22"/><rect class="cls-12" x="379.94" y="1275.4" width="37.23" height="3.58"/><rect class="cls-36" x="374.02" y="1243.58" width="48.65" height="34.17"/><circle class="cls-12" cx="405.54" cy="1237.67" r="1.22"/><circle class="cls-12" cx="398.2" cy="1239.2" r="1.22"/></g></g></svg>