<svg xmlns="http://www.w3.org/2000/svg" xmlns:xlink="http://www.w3.org/1999/xlink" viewBox="0 0 1080 1350"><defs><style>.cls-1{fill:url(#linear-gradient);}.cls-2{font-size:100px;font-family:Quicksand-Bold, Quicksand;font-weight:700;}.cls-18,.cls-2,.cls-20,.cls-21{fill:#fff;}.cls-3{letter-spacing:0em;}.cls-4{letter-spacing:-0.01em;}.cls-5{font-size:60px;fill:#fffc66;font-family:Quicksand-Medium, Quicksand;}.cls-6{letter-spacing:-0.02em;}.cls-7{letter-spacing:0.02em;}.cls-8{letter-spacing:0em;}.cls-9{letter-spacing:-0.01em;}.cls-10{letter-spacing:0em;}.cls-11{letter-spacing:-0.01em;}.cls-12{font-size:48px;}.cls-13{letter-spacing:0em;}.cls-14{letter-spacing:-0.02em;}.cls-15{fill:#f2f2f2;}.cls-16{fill:#3f3d56;}.cls-17{opacity:0.1;}.cls-17,.cls-20,.cls-21{isolation:isolate;}.cls-19{fill:#2f2e41;}.cls-20{opacity:0.2;}.cls-21{opacity:0.5;}.cls-22{fill:#9f616a;}.cls-23{fill:#555aa8;}.cls-24,.cls-25,.cls-26{fill:none;}.cls-24{stroke:#f2f2f2;}.cls-24,.cls-25{stroke-miterlimit:10;stroke-width:2px;}.cls-25{stroke:#3f3d56;}.cls-26{stroke:#fff;stroke-linecap:round;stroke-linejoin:round;stroke-width:7px;}</style><linearGradient id="linear-gradient" x1="250.04" y1="305.05" x2="1120.12" y2="1415.16" gradientUnits="userSpaceOnUse"><stop offset="0" stop-color="#b06ab3"/><stop offset="0.83" stop-color="#11998e"/><stop offset="0.87" stop-color="#139d8d"/><stop offset="0.9" stop-color="#18a98b"/><stop offset="0.94" stop-color="#21bd87"/><stop offset="0.98" stop-color="#2ed981"/><stop offset="1" stop-color="#38ef7d"/></linearGradient></defs><title>photography-card</title><g id="Photography"><rect class="cls-1" width="1080" height="1350"/><text class="cls-2" transform="translate(90 210)">Pho<tspan class="cls-3" x="180.3" y="0">t</tspan><tspan x="220.7" y="0">og</tspan><tspan class="cls-4" x="345.4" y="0">r</tspan><tspan x="387.6" y="0">ap</tspan><tspan class="cls-3" x="512.2" y="0">h</tspan><tspan x="570.3" y="0">y</tspan></text><text class="cls-5" transform="translate(93.77 412.18)">P<tspan class="cls-6" x="35.94" y="0">r</tspan><tspan x="58.68" y="0">o</tspan><tspan class="cls-7" x="94.8" y="0">d</tspan><tspan x="132.3" y="0">uct Pho</tspan><tspan class="cls-8" x="342.42" y="0">t</tspan><tspan x="363.9" y="0">og</tspan><tspan class="cls-9" x="437.45" y="0">r</tspan><tspan x="460.79" y="0">ap</tspan><tspan class="cls-10" x="533.87" y="0">h</tspan><tspan x="568.01" y="0">y</tspan><tspan x="0" y="72">Co</tspan><tspan class="cls-11" x="74.82" y="72">l</tspan><tspan x="88.8" y="72">or </tspan><tspan class="cls-8" x="165.48" y="72">E</tspan><tspan x="199.38" y="72">diting</tspan><tspan class="cls-12"><tspan x="0" y="201.6">Pho</tspan><tspan class="cls-13" x="85.2" y="201.6">t</tspan><tspan x="102.38" y="201.6">oshop + Light</tspan><tspan class="cls-14" x="404.87" y="201.6">r</tspan><tspan x="423.07" y="201.6">oom</tspan></tspan></text><g id="Photo_Art" data-name="Photo Art"><polygon class="cls-15" points="760.09 806.46 654.78 878.45 809.29 878.45 760.09 806.46"/><polygon class="cls-15" points="817.52 886.14 645.15 886.14 592.6 922.06 842.07 922.06 817.52 886.14"/><polygon class="cls-15" points="586.35 929.14 419.79 1042.99 538.43 1216.55 883.54 980.66 848.32 929.14 586.35 929.14"/><ellipse class="cls-15" cx="603.49" cy="1247.58" rx="347.92" ry="17.18"/><ellipse class="cls-15" cx="239.67" cy="1215.79" rx="100.08" ry="12.89"/><ellipse class="cls-16" cx="414.65" cy="1000.98" rx="11.85" ry="6.86"/><polygon class="cls-16" points="726.02 1051.19 459.71 1051.19 466.26 1027.62 471.92 1007.22 481.54 972.61 704.81 972.61 714.16 1007.22 720.55 1030.92 726.02 1051.19"/><polygon class="cls-17" points="720.55 1030.92 466.26 1030.92 466.26 1027.62 471.92 1007.22 714.16 1007.22 720.55 1030.92"/><rect class="cls-18" x="397.35" y="998.8" width="34.61" height="26.82"/><rect class="cls-16" x="372.4" y="1011.9" width="441.56" height="235.75"/><rect class="cls-18" x="372.4" y="1100.46" width="441.56" height="58.62"/><circle class="cls-19" cx="593.18" cy="1129.77" r="109.45"/><circle class="cls-16" cx="593.18" cy="1129.77" r="101.66"/><circle class="cls-19" cx="593.18" cy="1129.77" r="77.33"/><circle class="cls-20" cx="745.98" cy="1028.11" r="7.48"/><circle class="cls-21" cx="768.43" cy="1028.11" r="7.48"/><circle class="cls-18" cx="790.88" cy="1028.11" r="7.48"/><rect class="cls-19" x="566.67" y="978.22" width="52.39" height="23.7"/><path class="cls-22" d="M185,907.63l4.59-4.59s11.72-20.38,0-18.85-11.72,11.72-11.72,11.72v11.72Z"/><path class="cls-22" d="M366.87,957.05l4.58-1.53s12.23-18.34,13.76-10.19-6.11,19.37-6.11,19.37H366.87Z"/><rect class="cls-16" x="210.18" y="723.42" width="200.26" height="205.35" transform="translate(-566.46 926.17) rotate(-75.92)"/><rect class="cls-20" x="253.6" y="712.5" width="123.59" height="176.36" transform="translate(-537.95 911.86) rotate(-75.92)"/><ellipse class="cls-19" cx="257.45" cy="888.26" rx="20.5" ry="17.07"/><path class="cls-19" d="M225.72,1026.35s-7.65,20.9-9.18,73.89-3,86.12,3.57,90.7,16.31,3.57,16.82,2.55,3-67.26,3-67.26l13.25-49.43L268,1110.43V1169s11.21,10.19,15.8.51,7.64-59.11,7.64-59.11,5.61-84.08-4.08-94.27S225.72,1026.35,225.72,1026.35Z"/><path class="cls-19" d="M227.25,1190.94s-5.61-5.09-10.2,1.53-19.87,20.89-16.3,23.44,21.91,3.57,23.95,1c0,0,14.78-6.62,14.78-8.15s-2-18.35-4.08-17.84S227.76,1195.53,227.25,1190.94Z"/><path class="cls-19" d="M275.14,1166H285s-2.74,7.13-.19,7.13,26,19.36,16.81,21.4-35.16-7.13-36.18-10.19S269,1167.5,269,1167.5l6.11,3.06Z"/><path class="cls-22" d="M246.61,901.51s-1,17.33-6.12,18.85,16.31,17.33,16.31,17.33l14.78-19.36S266,908.64,268,901.51,246.61,901.51,246.61,901.51Z"/><path class="cls-17" d="M246.61,901.51s-1,17.33-6.12,18.85,16.31,17.33,16.31,17.33l14.78-19.36S266,908.64,268,901.51,246.61,901.51,246.61,901.51Z"/><path class="cls-23" d="M255.78,921.38s-17.83-6.62-20.38-5.09-26.5,12.23-27,14.27,3.06,31.59,3.06,31.59,6.11,2.55,6.62,13.25,14.27,27.51,9.69,38.72-9.18,15.29-.51,16.82,47.89-1,49.93-4.59,13.76-8.66,17.33-7.64-2-53-2-53l3.06-7.65,10.19-28s-15.29-17.33-30.07-15.8C275.65,914.25,259.35,916.29,255.78,921.38Z"/><path class="cls-23" d="M216,932.08l-7.65-1.52s-7.64,5.09-10.19,5.09-2.55,2-2.55,2S186,922.91,188,906.1c0,0-11.72-5.61-12.23-1.53s-4.59,50.45,4.08,53.5,38.21,3.57,38.21,3.57Z"/><path class="cls-23" d="M298.58,929h7.14l18.85,18.85s4.59-1,6.12,2,11.72,2.55,11.72,2.55l27,2.55s3.57,11.72,1,13.75S323,971.32,323,971.32s-4.07-2-6.62,0-20.89-10.7-22.93-14.27S298.58,929,298.58,929Z"/><circle class="cls-22" cx="258.33" cy="890.81" r="18.85"/><path class="cls-19" d="M246.64,879.84s-3.23-8.38,1.45-11.12l1.29,3.71s11.77-7.1,14.83-5.48l-2.9,3.86s13.71,0,14.67,5.33l-4.83.16s5.16,3.38,5.32,8.87l-10.32.64,5,2.9s-18.71,2.58-23.22-4.83Z"/><path class="cls-19" d="M239.73,883.42s5.46,5.37,12.54,2.72,0-12.37,0-12.37l-4.72-2.36Z"/><rect class="cls-24" x="322.57" y="816.33" width="18.9" height="18.9" transform="translate(-345.52 248.65) rotate(-27.67)"/><rect class="cls-18" x="271.89" y="800.86" width="18.9" height="18.9" transform="translate(-561.08 648.8) rotate(-60)"/><circle class="cls-25" cx="618.95" cy="950.34" r="9.45"/><circle class="cls-25" cx="589.74" cy="914.26" r="9.45"/><circle class="cls-25" cx="637.85" cy="886.77" r="9.45"/><circle class="cls-24" cx="318.28" cy="782.82" r="9.45"/></g><g id="Camera"><path class="cls-26" d="M845.5,203.41A7.54,7.54,0,0,1,838,211h-67.9a7.54,7.54,0,0,1-7.55-7.54v-41.5a7.55,7.55,0,0,1,7.55-7.55h15.09l7.54-11.31h22.64l7.54,11.31H838a7.55,7.55,0,0,1,7.55,7.55Z"/><circle class="cls-26" cx="804" cy="180.77" r="15.09"/></g></g></svg>