<svg xmlns="http://www.w3.org/2000/svg" xmlns:xlink="http://www.w3.org/1999/xlink" viewBox="0 0 1080 1350">
  <defs>
    <style>
      .cls-1 {
        fill: url(#linear-gradient);
      }

      .cls-2, .cls-8, .cls-9 {
        fill: #fff;
      }

      .cls-3 {
        fill: #fffc66;
      }

      .cls-4 {
        fill: #f2f2f2;
      }

      .cls-5 {
        fill: #3f3d56;
      }

      .cls-6 {
        opacity: 0.1;
      }

      .cls-6, .cls-8, .cls-9 {
        isolation: isolate;
      }

      .cls-7 {
        fill: #2f2e41;
      }

      .cls-8 {
        opacity: 0.2;
      }

      .cls-9 {
        opacity: 0.5;
      }

      .cls-10 {
        fill: #9f616a;
      }

      .cls-11 {
        fill: #555aa8;
      }

      .cls-12, .cls-13, .cls-14 {
        fill: none;
      }

      .cls-12 {
        stroke: #f2f2f2;
      }

      .cls-12, .cls-13 {
        stroke-miterlimit: 10;
        stroke-width: 2px;
      }

      .cls-13 {
        stroke: #3f3d56;
      }

      .cls-14 {
        stroke: #fff;
        stroke-linecap: round;
        stroke-linejoin: round;
        stroke-width: 7px;
      }
    </style>
    <linearGradient id="linear-gradient" x1="250.04" y1="305.05" x2="1120.12" y2="1415.16" gradientUnits="userSpaceOnUse">
      <stop offset="0" stop-color="#b06ab3"/>
      <stop offset="0.83" stop-color="#11998e"/>
      <stop offset="0.87" stop-color="#139d8d"/>
      <stop offset="0.9" stop-color="#18a98b"/>
      <stop offset="0.94" stop-color="#21bd87"/>
      <stop offset="0.98" stop-color="#2ed981"/>
      <stop offset="1" stop-color="#38ef7d"/>
    </linearGradient>
  </defs>
  <title>photography-card</title>
  <g id="Photography">
    <rect class="cls-1" width="1080" height="1350"/>
    <g>
      <path class="cls-2" d="M126.4,140a17.38,17.38,0,0,1,9.75,3,22.49,22.49,0,0,1,7.35,8.1,24.4,24.4,0,0,1,0,22.7,22.9,22.9,0,0,1-7.35,8.15A17.2,17.2,0,0,1,126.4,185H108l1-1.8v20.7a6.2,6.2,0,0,1-1.6,4.35,5.42,5.42,0,0,1-4.2,1.75,5.3,5.3,0,0,1-4.1-1.75,6.2,6.2,0,0,1-1.6-4.35V146.1a6,6,0,0,1,6.1-6.1Zm0,33.6a5.53,5.53,0,0,0,3.7-1.6,12.72,12.72,0,0,0,3-4.15,12.64,12.64,0,0,0,0-10.75,12.17,12.17,0,0,0-3-4,5.65,5.65,0,0,0-3.7-1.55H107.8l1.2-1.8v25.5l-1.1-1.6Z"/>
      <path class="cls-2" d="M184.9,155.5q7.2,0,10.95,3.1a15.74,15.74,0,0,1,5.15,8.25,43.74,43.74,0,0,1,1.4,11.45v25.6a6,6,0,0,1-1.7,4.35,6.16,6.16,0,0,1-8.6,0,6,6,0,0,1-1.7-4.35V178.3a20.69,20.69,0,0,0-.8-6,8.13,8.13,0,0,0-2.9-4.25,9.72,9.72,0,0,0-6-1.6,12.51,12.51,0,0,0-6.5,1.6,10.34,10.34,0,0,0-4,4.25,12.93,12.93,0,0,0-1.35,6v25.6a6,6,0,0,1-1.7,4.35,6.16,6.16,0,0,1-8.6,0,6,6,0,0,1-1.7-4.35V142.1a6,6,0,0,1,1.7-4.35,6.16,6.16,0,0,1,8.6,0,6,6,0,0,1,1.7,4.35v24.8l-1.5-.3a22.32,22.32,0,0,1,2.5-3.65,21.75,21.75,0,0,1,3.9-3.65,20.83,20.83,0,0,1,5.1-2.75A17.25,17.25,0,0,1,184.9,155.5Z"/>
      <path class="cls-2" d="M266.8,183.3a28.16,28.16,0,0,1-3.65,14.45,26.2,26.2,0,0,1-9.8,9.75,28.76,28.76,0,0,1-27.5,0,26.13,26.13,0,0,1-9.8-9.75,30.43,30.43,0,0,1,0-28.9,26.55,26.55,0,0,1,9.8-9.8,28.4,28.4,0,0,1,27.5,0,26.63,26.63,0,0,1,9.8,9.8A28.16,28.16,0,0,1,266.8,183.3Zm-12,0a18.14,18.14,0,0,0-2.05-8.85,15.28,15.28,0,0,0-5.5-5.85,15,15,0,0,0-15.3,0,15.21,15.21,0,0,0-5.5,5.85,18.14,18.14,0,0,0-2,8.85,17.93,17.93,0,0,0,2,8.75,15.21,15.21,0,0,0,5.5,5.85,15,15,0,0,0,15.3,0,15.28,15.28,0,0,0,5.5-5.85A17.93,17.93,0,0,0,254.8,183.3Z"/>
      <path class="cls-2" d="M277.4,157.5h23.7a5.47,5.47,0,0,1,5.6,5.6,5.13,5.13,0,0,1-1.6,3.85,5.54,5.54,0,0,1-4,1.55H277.4a5.47,5.47,0,0,1-5.6-5.6,5.13,5.13,0,0,1,1.6-3.85A5.52,5.52,0,0,1,277.4,157.5ZM288.1,145a5.57,5.57,0,0,1,4.25,1.75A6.11,6.11,0,0,1,294,151.1v44.5a4.33,4.33,0,0,0,.55,2.3,3.21,3.21,0,0,0,1.5,1.3,5.13,5.13,0,0,0,2.05.4,5.31,5.31,0,0,0,2.2-.45,5.52,5.52,0,0,1,2.3-.45,3.37,3.37,0,0,1,2.55,1.3,5.24,5.24,0,0,1,1.15,3.6q0,2.81-3.05,4.6a12.7,12.7,0,0,1-6.55,1.8,35,35,0,0,1-4.65-.35,12.51,12.51,0,0,1-4.8-1.7,10.38,10.38,0,0,1-3.75-4.15,16.45,16.45,0,0,1-1.5-7.7v-45a6,6,0,0,1,6.1-6.1Z"/>
      <path class="cls-2" d="M368.6,183.3A28.16,28.16,0,0,1,365,197.75a26.13,26.13,0,0,1-9.8,9.75,28.76,28.76,0,0,1-27.5,0,26.13,26.13,0,0,1-9.8-9.75,30.43,30.43,0,0,1,0-28.9,26.55,26.55,0,0,1,9.8-9.8,28.4,28.4,0,0,1,27.5,0,26.55,26.55,0,0,1,9.8,9.8A28.16,28.16,0,0,1,368.6,183.3Zm-12,0a18.14,18.14,0,0,0-2.05-8.85,15.28,15.28,0,0,0-5.5-5.85,15,15,0,0,0-15.3,0,15.28,15.28,0,0,0-5.5,5.85,18.14,18.14,0,0,0-2.05,8.85,17.93,17.93,0,0,0,2.05,8.75,15.28,15.28,0,0,0,5.5,5.85,15,15,0,0,0,15.3,0,15.28,15.28,0,0,0,5.5-5.85A17.93,17.93,0,0,0,356.6,183.3Z"/>
      <path class="cls-2" d="M400.3,155.5a21.87,21.87,0,0,1,7.7,1.3,22.54,22.54,0,0,1,6.05,3.3,19.75,19.75,0,0,1,4,4.05,6.43,6.43,0,0,1,1.45,3.45l-2.6,1.3v-7.3a6,6,0,0,1,1.7-4.35,5.73,5.73,0,0,1,4.3-1.75,5.84,5.84,0,0,1,4.3,1.7,6,6,0,0,1,1.7,4.4v44.5q0,8.7-3.75,14a21.21,21.21,0,0,1-9.85,7.6A36.27,36.27,0,0,1,402.2,230a35.65,35.65,0,0,1-5.2-.5c-2.13-.34-4.17-.74-6.1-1.2a35,35,0,0,1-4.4-1.3,8.57,8.57,0,0,1-4.15-3.25,4.88,4.88,0,0,1-.45-4.15,6.26,6.26,0,0,1,2.9-3.95,5,5,0,0,1,4.2-.25q1,.3,3.3,1.2a50,50,0,0,0,5.05,1.65,18.71,18.71,0,0,0,4.85.75q7.5,0,11.1-3a10.22,10.22,0,0,0,3.6-8.3V199l1.2.9a5.72,5.72,0,0,1-1.35,3.15,18.32,18.32,0,0,1-3.7,3.65,22.59,22.59,0,0,1-5.55,3.05,18.58,18.58,0,0,1-6.8,1.25,23.7,23.7,0,0,1-12.8-3.55,25.07,25.07,0,0,1-9-9.8,33.07,33.07,0,0,1,0-28.8,25.37,25.37,0,0,1,8.9-9.8A22.83,22.83,0,0,1,400.3,155.5Zm1.9,11a14.2,14.2,0,0,0-7.9,2.2,15,15,0,0,0-5.3,6,18.91,18.91,0,0,0-1.9,8.6,18.7,18.7,0,0,0,1.9,8.5,15,15,0,0,0,5.3,6,14.2,14.2,0,0,0,7.9,2.2,14.37,14.37,0,0,0,8-2.2,15,15,0,0,0,5.3-6,18.7,18.7,0,0,0,1.9-8.5,18.91,18.91,0,0,0-1.9-8.6,15,15,0,0,0-5.3-6A14.37,14.37,0,0,0,402.2,166.5Z"/>
      <path class="cls-2" d="M447.9,210a5.73,5.73,0,0,1-4.3-1.75,6,6,0,0,1-1.7-4.35V162.6a6,6,0,0,1,1.7-4.35,6.16,6.16,0,0,1,8.6,0,6,6,0,0,1,1.7,4.35V172l-.7-6.7a15.38,15.38,0,0,1,2.85-4.25A16.7,16.7,0,0,1,460,158a17.92,17.92,0,0,1,4.7-1.85,21.36,21.36,0,0,1,5-.6,7.67,7.67,0,0,1,5.05,1.7,5.06,5.06,0,0,1,2.05,4q0,3.3-1.7,4.75a5.59,5.59,0,0,1-3.7,1.45,8.21,8.21,0,0,1-3.45-.7,8.49,8.49,0,0,0-3.55-.7,8.63,8.63,0,0,0-3.65.85,10.09,10.09,0,0,0-3.4,2.65,13.73,13.73,0,0,0-2.5,4.45,18.38,18.38,0,0,0-1,6.25v23.7a6,6,0,0,1-1.7,4.35A5.74,5.74,0,0,1,447.9,210Z"/>
      <path class="cls-2" d="M527.4,155.5a5.86,5.86,0,0,1,4.3,1.7,6,6,0,0,1,1.7,4.4v42.3a6,6,0,0,1-1.7,4.35,6.16,6.16,0,0,1-8.6,0,6,6,0,0,1-1.7-4.35V199l2.2.9a5.63,5.63,0,0,1-1.4,3.15,19.34,19.34,0,0,1-3.8,3.65,23.31,23.31,0,0,1-5.65,3.05A19.57,19.57,0,0,1,505.7,211a22.83,22.83,0,0,1-12.5-3.55,24.87,24.87,0,0,1-8.85-9.8,33.53,33.53,0,0,1,0-28.8,25.17,25.17,0,0,1,8.75-9.8,22,22,0,0,1,12.2-3.55,23.05,23.05,0,0,1,7.9,1.3,23.86,23.86,0,0,1,6.25,3.3,19,19,0,0,1,4.1,4.05A6.52,6.52,0,0,1,525,167.6l-3.6,1.3v-7.3a6,6,0,0,1,1.7-4.35A5.71,5.71,0,0,1,527.4,155.5ZM507.2,200a13.54,13.54,0,0,0,7.7-2.2,15,15,0,0,0,5.15-6,19.21,19.21,0,0,0,1.85-8.5,19.43,19.43,0,0,0-1.85-8.6,15,15,0,0,0-5.15-6,13.54,13.54,0,0,0-7.7-2.2,13.35,13.35,0,0,0-7.6,2.2,14.87,14.87,0,0,0-5.15,6,19.29,19.29,0,0,0-1.85,8.6,19.07,19.07,0,0,0,1.85,8.5,14.87,14.87,0,0,0,5.15,6A13.35,13.35,0,0,0,507.2,200Z"/>
      <path class="cls-2" d="M574.1,155.5a22.78,22.78,0,0,1,12.55,3.55,25.27,25.27,0,0,1,8.8,9.75,30.64,30.64,0,0,1,3.25,14.4,31,31,0,0,1-3.25,14.45,25.45,25.45,0,0,1-8.7,9.8A22,22,0,0,1,574.5,211a21.49,21.49,0,0,1-7.5-1.3,24,24,0,0,1-6.15-3.3,18.54,18.54,0,0,1-4.1-4.05,6.43,6.43,0,0,1-1.45-3.45l3.1-1.3v26.3a6,6,0,0,1-1.7,4.35,6.22,6.22,0,0,1-8.6.05,5.94,5.94,0,0,1-1.7-4.4V162.6a6,6,0,0,1,1.7-4.35,6.16,6.16,0,0,1,8.6,0,6,6,0,0,1,1.7,4.35v4.9l-1.7-.9a5.56,5.56,0,0,1,1.4-3.15,20.06,20.06,0,0,1,3.8-3.7,21.74,21.74,0,0,1,5.55-3.05A18.49,18.49,0,0,1,574.1,155.5Zm-1.5,11a13.51,13.51,0,0,0-7.7,2.2,14.93,14.93,0,0,0-5.15,6,19,19,0,0,0-1.85,8.55,19.41,19.41,0,0,0,1.85,8.55,14.76,14.76,0,0,0,5.15,6.05,13.51,13.51,0,0,0,7.7,2.2,13.31,13.31,0,0,0,7.65-2.2,15,15,0,0,0,5.1-6.05,19.55,19.55,0,0,0,1.85-8.55,19.12,19.12,0,0,0-1.85-8.55,15.21,15.21,0,0,0-5.1-6A13.31,13.31,0,0,0,572.6,166.5Z"/>
      <path class="cls-2" d="M636.8,155.5q7.2,0,11,3.1a15.8,15.8,0,0,1,5.15,8.25,43.74,43.74,0,0,1,1.4,11.45v25.6a6,6,0,0,1-1.7,4.35,6.16,6.16,0,0,1-8.6,0,6,6,0,0,1-1.7-4.35V178.3a20.69,20.69,0,0,0-.8-6,8.19,8.19,0,0,0-2.9-4.25,9.72,9.72,0,0,0-6-1.6,12.48,12.48,0,0,0-6.5,1.6,10.34,10.34,0,0,0-4.05,4.25,12.93,12.93,0,0,0-1.35,6v25.6a6,6,0,0,1-1.7,4.35,6.16,6.16,0,0,1-8.6,0,6,6,0,0,1-1.7-4.35V142.1a6,6,0,0,1,1.7-4.35,6.16,6.16,0,0,1,8.6,0,6,6,0,0,1,1.7,4.35v24.8l-1.5-.3a22.32,22.32,0,0,1,2.5-3.65,21.1,21.1,0,0,1,3.9-3.65,20.83,20.83,0,0,1,5.1-2.75A17.21,17.21,0,0,1,636.8,155.5Z"/>
      <path class="cls-2" d="M706.5,156.5a5.74,5.74,0,0,1,4.3,1.75,6,6,0,0,1,1.7,4.35v42.5q0,9.19-3.45,14.65a19.66,19.66,0,0,1-9.25,7.85,33.72,33.72,0,0,1-13,2.4,50,50,0,0,1-6.8-.5,23.44,23.44,0,0,1-5.9-1.5,8.52,8.52,0,0,1-4.15-3.25,4.88,4.88,0,0,1-.45-4.15,6.23,6.23,0,0,1,2.9-3.95,5,5,0,0,1,4.2-.25c1.06.33,2.46.85,4.2,1.55a15.91,15.91,0,0,0,6,1.05,20.4,20.4,0,0,0,7.65-1.25,8.93,8.93,0,0,0,4.6-4.2,17.51,17.51,0,0,0,1.55-8.05v-6.7l2.1,2.4a17.56,17.56,0,0,1-4.25,5.45,17.35,17.35,0,0,1-6.05,3.25,26.82,26.82,0,0,1-8,1.1,17.19,17.19,0,0,1-9.25-2.45,16.55,16.55,0,0,1-6.15-6.8,21.71,21.71,0,0,1-2.2-9.95V162.6a6,6,0,0,1,1.7-4.35,6.16,6.16,0,0,1,8.6,0,6,6,0,0,1,1.7,4.35v25.6q0,6.5,2.85,9.15t8,2.65a11.89,11.89,0,0,0,5.9-1.35,9,9,0,0,0,3.7-4,14.65,14.65,0,0,0,1.3-6.45V162.6a6,6,0,0,1,1.7-4.35A5.71,5.71,0,0,1,706.5,156.5Z"/>
    </g>
    <g>
      <path class="cls-3" d="M115.49,370.18a11.13,11.13,0,0,1,5.94,1.62,11.58,11.58,0,0,1,4.17,4.44,13.24,13.24,0,0,1,1.53,6.42,13.47,13.47,0,0,1-1.53,6.42,11.92,11.92,0,0,1-4.17,4.56,10.83,10.83,0,0,1-5.94,1.68H103.31l.42-.72v15.12a2.48,2.48,0,0,1-.66,1.74,2.18,2.18,0,0,1-1.68.72,2.16,2.16,0,0,1-1.71-.72,2.55,2.55,0,0,1-.63-1.74V372.58a2.36,2.36,0,0,1,2.4-2.4Zm0,20.52a5.8,5.8,0,0,0,3.48-1.08,7.63,7.63,0,0,0,2.4-2.94,9.11,9.11,0,0,0,.9-4,8.63,8.63,0,0,0-.9-4,7.6,7.6,0,0,0-2.4-2.79,5.92,5.92,0,0,0-3.48-1.05H103.31l.42-.66V391.3l-.42-.6Z"/>
      <path class="cls-3" d="M136.55,412.18a2.27,2.27,0,0,1-1.71-.72,2.42,2.42,0,0,1-.69-1.74V383.56a2.36,2.36,0,0,1,2.4-2.4,2.3,2.3,0,0,1,1.74.69,2.38,2.38,0,0,1,.66,1.71v7.92l-.72-1.26a13.15,13.15,0,0,1,1.29-3.63,12.68,12.68,0,0,1,2.37-3.18,10.89,10.89,0,0,1,3.3-2.22,10.11,10.11,0,0,1,4.08-.81,4.84,4.84,0,0,1,2.43.63,2,2,0,0,1,1.11,1.77,2.39,2.39,0,0,1-.66,1.86,2.17,2.17,0,0,1-1.5.6,3.56,3.56,0,0,1-1.5-.33,4.32,4.32,0,0,0-1.8-.33,6.1,6.1,0,0,0-3,.81,9.35,9.35,0,0,0-2.7,2.31,12.68,12.68,0,0,0-2,3.39,10.88,10.88,0,0,0-.75,4.05v14.58a2.42,2.42,0,0,1-.69,1.74A2.27,2.27,0,0,1,136.55,412.18Z"/>
      <path class="cls-3" d="M186.05,396.58a16.84,16.84,0,0,1-2,8.34,15.63,15.63,0,0,1-21.39,5.76,15.43,15.43,0,0,1-5.58-5.76,17.84,17.84,0,0,1,0-16.68,15.43,15.43,0,0,1,5.58-5.76A15.38,15.38,0,0,1,184,388.24,16.84,16.84,0,0,1,186.05,396.58Zm-4.8,0a12.8,12.8,0,0,0-1.41-6.12,10.66,10.66,0,0,0-3.84-4.14,10.74,10.74,0,0,0-10.95,0,10.58,10.58,0,0,0-3.87,4.14,12.8,12.8,0,0,0-1.41,6.12,12.67,12.67,0,0,0,1.41,6.06,10.8,10.8,0,0,0,3.87,4.17,10.56,10.56,0,0,0,10.95,0,10.88,10.88,0,0,0,3.84-4.17A12.67,12.67,0,0,0,181.25,396.58Z"/>
      <path class="cls-3" d="M218.27,367.78a2.3,2.3,0,0,1,1.74.69,2.38,2.38,0,0,1,.66,1.71v39.54a2.42,2.42,0,0,1-.69,1.74,2.39,2.39,0,0,1-3.42,0,2.42,2.42,0,0,1-.69-1.74V404l1.14-.42a6.33,6.33,0,0,1-.87,3,10.87,10.87,0,0,1-2.46,3,14,14,0,0,1-3.69,2.28,11.45,11.45,0,0,1-4.56.9,13.16,13.16,0,0,1-7.32-2.1,14.79,14.79,0,0,1-5.13-5.76,19.48,19.48,0,0,1,0-16.74,14.65,14.65,0,0,1,5.1-5.73,13.35,13.35,0,0,1,15.81,1.05,11.08,11.08,0,0,1,2.61,3.18,7.33,7.33,0,0,1,.93,3.48l-1.56-.36V370.18a2.36,2.36,0,0,1,2.4-2.4Zm-12.36,40.56a9.36,9.36,0,0,0,5.34-1.53,10.58,10.58,0,0,0,3.6-4.2,14.5,14.5,0,0,0,0-12.09,10.54,10.54,0,0,0-3.63-4.17,9.39,9.39,0,0,0-5.31-1.53,9.29,9.29,0,0,0-5.25,1.53,10.54,10.54,0,0,0-3.63,4.17,14.36,14.36,0,0,0,0,12,10.72,10.72,0,0,0,3.63,4.23A9.16,9.16,0,0,0,205.91,408.34Z"/>
      <path class="cls-3" d="M253.73,381.16a2.3,2.3,0,0,1,1.74.69,2.38,2.38,0,0,1,.66,1.71v16.38q0,6.06-3.39,9.39t-9.45,3.33q-6,0-9.39-3.33t-3.39-9.39V383.56a2.36,2.36,0,0,1,2.4-2.4,2.3,2.3,0,0,1,1.74.69,2.38,2.38,0,0,1,.66,1.71v16.38q0,4.08,2.1,6.18a9.41,9.41,0,0,0,11.85,0q2.07-2.1,2.07-6.18V383.56a2.36,2.36,0,0,1,2.4-2.4Z"/>
      <path class="cls-3" d="M278.51,380.38A21.31,21.31,0,0,1,284,381a10.72,10.72,0,0,1,3.9,1.8,3.27,3.27,0,0,1,1.44,2.58,2.56,2.56,0,0,1-.51,1.5,1.69,1.69,0,0,1-1.47.72,2.51,2.51,0,0,1-1.29-.3,4.33,4.33,0,0,1-1-.78,3.91,3.91,0,0,0-1.23-.84,6.49,6.49,0,0,0-2.1-.66,16.43,16.43,0,0,0-2.82-.24,10.72,10.72,0,0,0-5.76,1.56,10.88,10.88,0,0,0-3.93,4.2,12.54,12.54,0,0,0-1.41,6,12.76,12.76,0,0,0,1.38,6,10.8,10.8,0,0,0,3.84,4.2,10.41,10.41,0,0,0,5.7,1.56,12.29,12.29,0,0,0,3.33-.36,11.26,11.26,0,0,0,2.13-.84,7.29,7.29,0,0,0,1.59-1.2,2.09,2.09,0,0,1,1.59-.6A1.9,1.9,0,0,1,289,406a2.47,2.47,0,0,1,.54,1.62,3.2,3.2,0,0,1-1.5,2.28,13,13,0,0,1-4.05,2,18.26,18.26,0,0,1-5.73.84,14.78,14.78,0,0,1-8-2.13,14.5,14.5,0,0,1-5.31-5.82,17.83,17.83,0,0,1-1.89-8.25,17.2,17.2,0,0,1,2-8.22,14.79,14.79,0,0,1,13.47-8Z"/>
      <path class="cls-3" d="M294.65,381.34h14.1a2.1,2.1,0,0,1,1.59.66,2.18,2.18,0,0,1,.63,1.56,2.15,2.15,0,0,1-2.22,2.22h-14.1a2.13,2.13,0,0,1-1.56-.66,2.2,2.2,0,0,1-.66-1.62,2,2,0,0,1,.66-1.53A2.18,2.18,0,0,1,294.65,381.34Zm6.3-8.16a2.22,2.22,0,0,1,1.68.69,2.38,2.38,0,0,1,.66,1.71v29a4.39,4.39,0,0,0,.42,2.16,2.21,2.21,0,0,0,1.11,1,3.69,3.69,0,0,0,1.35.27,2.46,2.46,0,0,0,1.05-.21,2.46,2.46,0,0,1,1-.21,1.48,1.48,0,0,1,1.11.57,2.12,2.12,0,0,1,.51,1.47,2.15,2.15,0,0,1-1.26,1.83,5.41,5.41,0,0,1-2.82.75q-.84,0-2.07-.12a6.28,6.28,0,0,1-2.43-.78,5.14,5.14,0,0,1-2-2.19,9.3,9.3,0,0,1-.81-4.29V375.58a2.27,2.27,0,0,1,.72-1.71A2.42,2.42,0,0,1,301,373.18Z"/>
      <path class="cls-3" d="M351.41,370.18a11.13,11.13,0,0,1,5.94,1.62,11.58,11.58,0,0,1,4.17,4.44,13.24,13.24,0,0,1,1.53,6.42,13.47,13.47,0,0,1-1.53,6.42,11.92,11.92,0,0,1-4.17,4.56,10.83,10.83,0,0,1-5.94,1.68H339.23l.42-.72v15.12a2.48,2.48,0,0,1-.66,1.74,2.18,2.18,0,0,1-1.68.72,2.16,2.16,0,0,1-1.71-.72,2.55,2.55,0,0,1-.63-1.74V372.58a2.36,2.36,0,0,1,2.4-2.4Zm0,20.52a5.8,5.8,0,0,0,3.48-1.08,7.63,7.63,0,0,0,2.4-2.94,9.11,9.11,0,0,0,.9-4,8.63,8.63,0,0,0-.9-4,7.6,7.6,0,0,0-2.4-2.79,5.92,5.92,0,0,0-3.48-1.05H339.23l.42-.66V391.3l-.42-.6Z"/>
      <path class="cls-3" d="M385.07,380.68a10.32,10.32,0,0,1,6.27,1.71,9.33,9.33,0,0,1,3.3,4.56,19.19,19.19,0,0,1,1,6.33v16.44a2.42,2.42,0,0,1-.69,1.74,2.39,2.39,0,0,1-3.42,0,2.42,2.42,0,0,1-.69-1.74V393.28a12.05,12.05,0,0,0-.66-4.11,6.1,6.1,0,0,0-2.19-2.94,7,7,0,0,0-4.17-1.11,9.26,9.26,0,0,0-4.5,1.11,8.85,8.85,0,0,0-3.24,2.94,7.33,7.33,0,0,0-1.2,4.11v16.44a2.42,2.42,0,0,1-.69,1.74,2.39,2.39,0,0,1-3.42,0,2.42,2.42,0,0,1-.69-1.74V370.18a2.36,2.36,0,0,1,2.4-2.4,2.3,2.3,0,0,1,1.74.69,2.38,2.38,0,0,1,.66,1.71v17.94l-1.2,1.32a9,9,0,0,1,1.32-3.15,12,12,0,0,1,2.58-2.85,13.07,13.07,0,0,1,3.48-2A11,11,0,0,1,385.07,380.68Z"/>
      <path class="cls-3" d="M433.67,396.58a16.84,16.84,0,0,1-2,8.34,15.63,15.63,0,0,1-21.39,5.76,15.43,15.43,0,0,1-5.58-5.76,17.84,17.84,0,0,1,0-16.68,15.43,15.43,0,0,1,5.58-5.76,15.38,15.38,0,0,1,21.39,5.76A16.84,16.84,0,0,1,433.67,396.58Zm-4.8,0a12.8,12.8,0,0,0-1.41-6.12,10.66,10.66,0,0,0-3.84-4.14,10.74,10.74,0,0,0-10.95,0,10.58,10.58,0,0,0-3.87,4.14,12.8,12.8,0,0,0-1.41,6.12,12.67,12.67,0,0,0,1.41,6.06,10.8,10.8,0,0,0,3.87,4.17,10.56,10.56,0,0,0,10.95,0,10.88,10.88,0,0,0,3.84-4.17A12.67,12.67,0,0,0,428.87,396.58Z"/>
      <path class="cls-3" d="M439.43,381.34h14.1a2.1,2.1,0,0,1,1.59.66,2.18,2.18,0,0,1,.63,1.56,2.15,2.15,0,0,1-2.22,2.22h-14.1a2.13,2.13,0,0,1-1.56-.66,2.2,2.2,0,0,1-.66-1.62,2,2,0,0,1,.66-1.53A2.18,2.18,0,0,1,439.43,381.34Zm6.3-8.16a2.22,2.22,0,0,1,1.68.69,2.38,2.38,0,0,1,.66,1.71v29a4.39,4.39,0,0,0,.42,2.16,2.21,2.21,0,0,0,1.11,1A3.69,3.69,0,0,0,451,408a2.46,2.46,0,0,0,1.05-.21,2.46,2.46,0,0,1,1.05-.21,1.48,1.48,0,0,1,1.11.57,2.12,2.12,0,0,1,.51,1.47,2.15,2.15,0,0,1-1.26,1.83,5.41,5.41,0,0,1-2.82.75q-.84,0-2.07-.12a6.28,6.28,0,0,1-2.43-.78,5.14,5.14,0,0,1-2-2.19,9.3,9.3,0,0,1-.81-4.29V375.58a2.27,2.27,0,0,1,.72-1.71A2.42,2.42,0,0,1,445.73,373.18Z"/>
      <path class="cls-3" d="M491.27,396.58a16.84,16.84,0,0,1-2,8.34,15.63,15.63,0,0,1-21.39,5.76,15.43,15.43,0,0,1-5.58-5.76,17.84,17.84,0,0,1,0-16.68,15.43,15.43,0,0,1,5.58-5.76,15.38,15.38,0,0,1,21.39,5.76A16.84,16.84,0,0,1,491.27,396.58Zm-4.8,0a12.8,12.8,0,0,0-1.41-6.12,10.66,10.66,0,0,0-3.84-4.14,10.74,10.74,0,0,0-11,0,10.58,10.58,0,0,0-3.87,4.14,12.8,12.8,0,0,0-1.41,6.12,12.67,12.67,0,0,0,1.41,6.06,10.8,10.8,0,0,0,3.87,4.17,10.56,10.56,0,0,0,11,0,10.88,10.88,0,0,0,3.84-4.17A12.67,12.67,0,0,0,486.47,396.58Z"/>
      <path class="cls-3" d="M511,380.38a13.21,13.21,0,0,1,4.86.87,13.86,13.86,0,0,1,3.87,2.25,12.17,12.17,0,0,1,2.58,2.88,5.4,5.4,0,0,1,.93,2.82l-1.2-.72v-5.22a2.36,2.36,0,0,1,2.4-2.4,2.3,2.3,0,0,1,1.74.69,2.38,2.38,0,0,1,.66,1.71v26.28a14.89,14.89,0,0,1-2.07,8.16,12.94,12.94,0,0,1-5.55,4.86,18.12,18.12,0,0,1-7.74,1.62,18.78,18.78,0,0,1-4-.48,23.42,23.42,0,0,1-3.87-1.17,4.32,4.32,0,0,1-2.1-1.41,2.49,2.49,0,0,1-1.11-1.35,1.68,1.68,0,0,1,.21-1.41,1.74,1.74,0,0,1,1.44-.84,6,6,0,0,1,2.16.54q.6.18,1.74.6a20.32,20.32,0,0,0,2.64.75,13.66,13.66,0,0,0,2.94.33q5.1,0,7.8-2.67A9.47,9.47,0,0,0,522,410v-5.58l.66.3a7.92,7.92,0,0,1-1.44,3.12,11.6,11.6,0,0,1-2.67,2.55,13.27,13.27,0,0,1-3.54,1.74,12.71,12.71,0,0,1-3.93.63,13.82,13.82,0,0,1-7.53-2.1,15,15,0,0,1-5.28-5.76,18.94,18.94,0,0,1,0-16.74,14.85,14.85,0,0,1,5.25-5.73A13.71,13.71,0,0,1,511,380.38Zm.66,4.44a10,10,0,0,0-5.52,1.53,10.74,10.74,0,0,0-3.78,4.17,13.8,13.8,0,0,0,0,12,10.91,10.91,0,0,0,3.78,4.23,9.9,9.9,0,0,0,5.52,1.56,10,10,0,0,0,5.52-1.53,10.74,10.74,0,0,0,3.78-4.17,12.89,12.89,0,0,0,1.38-6.06,13,13,0,0,0-1.38-6.12,10.51,10.51,0,0,0-3.78-4.14A10.2,10.2,0,0,0,511.61,384.82Z"/>
      <path class="cls-3" d="M538.07,412.18a2.27,2.27,0,0,1-1.71-.72,2.42,2.42,0,0,1-.69-1.74V383.56a2.36,2.36,0,0,1,2.4-2.4,2.3,2.3,0,0,1,1.74.69,2.38,2.38,0,0,1,.66,1.71v7.92l-.72-1.26a13.15,13.15,0,0,1,1.29-3.63,12.68,12.68,0,0,1,2.37-3.18,10.89,10.89,0,0,1,3.3-2.22,10.11,10.11,0,0,1,4.08-.81,4.84,4.84,0,0,1,2.43.63,2,2,0,0,1,1.11,1.77,2.39,2.39,0,0,1-.66,1.86,2.17,2.17,0,0,1-1.5.6,3.56,3.56,0,0,1-1.5-.33,4.32,4.32,0,0,0-1.8-.33,6.1,6.1,0,0,0-3,.81,9.35,9.35,0,0,0-2.7,2.31,12.68,12.68,0,0,0-2,3.39,10.88,10.88,0,0,0-.75,4.05v14.58a2.42,2.42,0,0,1-.69,1.74A2.27,2.27,0,0,1,538.07,412.18Z"/>
      <path class="cls-3" d="M584.27,380.86a2.3,2.3,0,0,1,1.74.69,2.38,2.38,0,0,1,.66,1.71v26.46a2.42,2.42,0,0,1-.69,1.74,2.39,2.39,0,0,1-3.42,0,2.42,2.42,0,0,1-.69-1.74V404l1.14-.12a5.84,5.84,0,0,1-.9,2.88,11.42,11.42,0,0,1-2.46,2.91,13.35,13.35,0,0,1-3.66,2.22,11.8,11.8,0,0,1-4.56.87,13.17,13.17,0,0,1-7.35-2.13,14.71,14.71,0,0,1-5.13-5.79,18.15,18.15,0,0,1-1.86-8.34,17.87,17.87,0,0,1,1.89-8.37,14.7,14.7,0,0,1,5.1-5.7,13.05,13.05,0,0,1,7.23-2.07,13.45,13.45,0,0,1,4.8.84A12.61,12.61,0,0,1,580,383.5a10.84,10.84,0,0,1,2.55,3.18,7.52,7.52,0,0,1,.9,3.48l-1.56-.36v-6.54a2.36,2.36,0,0,1,2.4-2.4Zm-12.36,27.48a9.26,9.26,0,0,0,5.31-1.56,10.72,10.72,0,0,0,3.63-4.23,13.42,13.42,0,0,0,1.32-6,13.29,13.29,0,0,0-1.32-6,10.49,10.49,0,0,0-3.63-4.2,10,10,0,0,0-10.56,0,10.32,10.32,0,0,0-3.63,4.14,14.5,14.5,0,0,0,0,12.09,10.72,10.72,0,0,0,3.63,4.23A9.16,9.16,0,0,0,571.91,408.34Z"/>
      <path class="cls-3" d="M610.85,380.68a13.45,13.45,0,0,1,7.32,2,14.44,14.44,0,0,1,5.13,5.64,19,19,0,0,1,0,16.53,14.7,14.7,0,0,1-5.1,5.7,13.05,13.05,0,0,1-7.23,2.07,12.41,12.41,0,0,1-4.17-.69,14.73,14.73,0,0,1-3.54-1.8,11.93,11.93,0,0,1-2.67-2.52,10.07,10.07,0,0,1-1.56-2.79l1.32-.84v17.7a2.48,2.48,0,0,1-.66,1.74,2.25,2.25,0,0,1-1.74.72,2.32,2.32,0,0,1-1.71-.69,2.4,2.4,0,0,1-.69-1.77V383.38A2.36,2.36,0,0,1,598,381a2.3,2.3,0,0,1,1.74.69,2.38,2.38,0,0,1,.66,1.71v5.34l-.9-.48a8.56,8.56,0,0,1,1.47-2.88,11.1,11.1,0,0,1,2.58-2.43,13.09,13.09,0,0,1,7.35-2.25Zm-.54,4.44a9.53,9.53,0,0,0-5.31,1.5,10.19,10.19,0,0,0-3.6,4.08,13.11,13.11,0,0,0-1.29,5.94,13.35,13.35,0,0,0,1.29,5.94,10.1,10.1,0,0,0,3.6,4.14,9.53,9.53,0,0,0,5.31,1.5,9.39,9.39,0,0,0,5.28-1.5,10.4,10.4,0,0,0,3.6-4.14,13.1,13.1,0,0,0,1.32-5.94,12.86,12.86,0,0,0-1.32-5.94,10.5,10.5,0,0,0-3.6-4.08A9.39,9.39,0,0,0,610.31,385.12Z"/>
      <path class="cls-3" d="M647.09,380.68a10.32,10.32,0,0,1,6.27,1.71,9.33,9.33,0,0,1,3.3,4.56,19.19,19.19,0,0,1,1,6.33v16.44a2.42,2.42,0,0,1-.69,1.74,2.39,2.39,0,0,1-3.42,0,2.42,2.42,0,0,1-.69-1.74V393.28a12.05,12.05,0,0,0-.66-4.11,6.1,6.1,0,0,0-2.19-2.94,7,7,0,0,0-4.17-1.11,9.26,9.26,0,0,0-4.5,1.11,8.85,8.85,0,0,0-3.24,2.94,7.33,7.33,0,0,0-1.2,4.11v16.44a2.42,2.42,0,0,1-.69,1.74,2.39,2.39,0,0,1-3.42,0,2.42,2.42,0,0,1-.69-1.74V370.18a2.36,2.36,0,0,1,2.4-2.4,2.3,2.3,0,0,1,1.74.69,2.38,2.38,0,0,1,.66,1.71v17.94l-1.2,1.32a9,9,0,0,1,1.32-3.15,12,12,0,0,1,2.58-2.85,13.07,13.07,0,0,1,3.48-2A11,11,0,0,1,647.09,380.68Z"/>
      <path class="cls-3" d="M689.45,380.68a2.36,2.36,0,0,1,2.4,2.4v26.16a16.15,16.15,0,0,1-2,8.37,12.4,12.4,0,0,1-5.31,4.95,17,17,0,0,1-7.53,1.62,20.69,20.69,0,0,1-4.5-.48,13,13,0,0,1-3.54-1.26,3.39,3.39,0,0,1-1.59-1.35,2,2,0,0,1-.15-1.71,2.69,2.69,0,0,1,1.23-1.5,1.84,1.84,0,0,1,1.71,0q1,.42,2.79,1.17a10.75,10.75,0,0,0,4.11.75,11.09,11.09,0,0,0,5.34-1.2,8.17,8.17,0,0,0,3.42-3.51,12.34,12.34,0,0,0,1.2-5.73V405.1l.72,1.5a10.62,10.62,0,0,1-2.58,3.24,12.27,12.27,0,0,1-3.72,2.16,13.18,13.18,0,0,1-4.62.78,10.78,10.78,0,0,1-5.79-1.47,9.4,9.4,0,0,1-3.6-4.08,14,14,0,0,1-1.23-6V383.08a2.36,2.36,0,0,1,2.4-2.4,2.3,2.3,0,0,1,1.74.69,2.38,2.38,0,0,1,.66,1.71v17q0,4.08,1.8,6.15t5.58,2.07a8.83,8.83,0,0,0,4.35-1.08,8.39,8.39,0,0,0,3.12-3,7.77,7.77,0,0,0,1.17-4.17v-17a2.38,2.38,0,0,1,.66-1.71A2.3,2.3,0,0,1,689.45,380.68Z"/>
      <path class="cls-3" d="M129.29,444.94a2.08,2.08,0,0,1,1.17,1.62,2.51,2.51,0,0,1-.57,2,1.79,1.79,0,0,1-1.38.84,3.2,3.2,0,0,1-1.68-.36,18.55,18.55,0,0,0-4.26-1.89,17.41,17.41,0,0,0-11.28.54,15.24,15.24,0,0,0-5.1,3.45,15.69,15.69,0,0,0-3.36,5.28,18.42,18.42,0,0,0-1.2,6.78,18.77,18.77,0,0,0,1.26,7.08,15.74,15.74,0,0,0,3.45,5.31,14.73,14.73,0,0,0,5.1,3.33,17.2,17.2,0,0,0,6.33,1.14,17,17,0,0,0,4.74-.66,17.38,17.38,0,0,0,4.32-1.92,2.8,2.8,0,0,1,1.68-.3A2.25,2.25,0,0,1,130,478a2.54,2.54,0,0,1,.54,2,2,2,0,0,1-1.14,1.53,22.7,22.7,0,0,1-3.42,1.65,24.13,24.13,0,0,1-4,1.17,20.92,20.92,0,0,1-4.17.42,22.23,22.23,0,0,1-8.16-1.5,20.27,20.27,0,0,1-11.43-11.13,22.56,22.56,0,0,1-1.71-9,22.15,22.15,0,0,1,1.62-8.58,20.48,20.48,0,0,1,4.53-6.78,21.14,21.14,0,0,1,6.78-4.5,21.46,21.46,0,0,1,8.37-1.62,22.27,22.27,0,0,1,6.09.84A20.48,20.48,0,0,1,129.29,444.94Z"/>
      <path class="cls-3" d="M166.07,468.58a16.84,16.84,0,0,1-2,8.34,15.63,15.63,0,0,1-21.39,5.76,15.43,15.43,0,0,1-5.58-5.76,17.84,17.84,0,0,1,0-16.68,15.43,15.43,0,0,1,5.58-5.76A15.38,15.38,0,0,1,164,460.24,16.84,16.84,0,0,1,166.07,468.58Zm-4.8,0a12.8,12.8,0,0,0-1.41-6.12,10.66,10.66,0,0,0-3.84-4.14,10.74,10.74,0,0,0-11,0,10.58,10.58,0,0,0-3.87,4.14,12.8,12.8,0,0,0-1.41,6.12,12.67,12.67,0,0,0,1.41,6.06,10.8,10.8,0,0,0,3.87,4.17,10.56,10.56,0,0,0,11,0,10.88,10.88,0,0,0,3.84-4.17A12.67,12.67,0,0,0,161.27,468.58Z"/>
      <path class="cls-3" d="M178.31,481.72a2.46,2.46,0,0,1-2.46,2.46,2.18,2.18,0,0,1-1.68-.72,2.48,2.48,0,0,1-.66-1.74V442.18a2.36,2.36,0,0,1,2.4-2.4,2.3,2.3,0,0,1,1.74.69,2.38,2.38,0,0,1,.66,1.71Z"/>
      <path class="cls-3" d="M216.17,468.58a16.84,16.84,0,0,1-2,8.34,15.63,15.63,0,0,1-21.39,5.76,15.43,15.43,0,0,1-5.58-5.76,17.84,17.84,0,0,1,0-16.68,15.43,15.43,0,0,1,5.58-5.76,15.38,15.38,0,0,1,21.39,5.76A16.84,16.84,0,0,1,216.17,468.58Zm-4.8,0a12.8,12.8,0,0,0-1.41-6.12,10.66,10.66,0,0,0-3.84-4.14,10.74,10.74,0,0,0-11,0,10.58,10.58,0,0,0-3.87,4.14,12.8,12.8,0,0,0-1.41,6.12,12.67,12.67,0,0,0,1.41,6.06,10.8,10.8,0,0,0,3.87,4.17,10.56,10.56,0,0,0,11,0,10.88,10.88,0,0,0,3.84-4.17A12.67,12.67,0,0,0,211.37,468.58Z"/>
      <path class="cls-3" d="M225.53,484.18a2.27,2.27,0,0,1-1.71-.72,2.42,2.42,0,0,1-.69-1.74V455.56a2.36,2.36,0,0,1,2.4-2.4,2.3,2.3,0,0,1,1.74.69,2.38,2.38,0,0,1,.66,1.71v7.92l-.72-1.26a13.15,13.15,0,0,1,1.29-3.63,12.68,12.68,0,0,1,2.37-3.18,10.89,10.89,0,0,1,3.3-2.22,10.11,10.11,0,0,1,4.08-.81,4.84,4.84,0,0,1,2.43.63,2,2,0,0,1,1.11,1.77,2.39,2.39,0,0,1-.66,1.86,2.17,2.17,0,0,1-1.5.6,3.56,3.56,0,0,1-1.5-.33,4.32,4.32,0,0,0-1.8-.33,6.1,6.1,0,0,0-3,.81,9.35,9.35,0,0,0-2.7,2.31,12.68,12.68,0,0,0-2,3.39,10.88,10.88,0,0,0-.75,4.05v14.58a2.42,2.42,0,0,1-.69,1.74A2.27,2.27,0,0,1,225.53,484.18Z"/>
      <path class="cls-3" d="M266.93,442.18h21.36a2.48,2.48,0,0,1,1.74.66,2.18,2.18,0,0,1,.72,1.68,2.09,2.09,0,0,1-.72,1.65,2.55,2.55,0,0,1-1.74.63H269l.54-1V461l-.6-.66h16.68a2.48,2.48,0,0,1,1.74.66,2.18,2.18,0,0,1,.72,1.68,2.09,2.09,0,0,1-.72,1.65,2.55,2.55,0,0,1-1.74.63h-16.5l.42-.54v15.54l-.36-.42h19.14a2.37,2.37,0,0,1,1.74.72,2.24,2.24,0,0,1,.72,1.62,2.18,2.18,0,0,1-.72,1.68,2.48,2.48,0,0,1-1.74.66H266.93a2.27,2.27,0,0,1-1.71-.72,2.42,2.42,0,0,1-.69-1.74V444.58a2.36,2.36,0,0,1,2.4-2.4Z"/>
      <path class="cls-3" d="M322.85,439.78a2.3,2.3,0,0,1,1.74.69,2.38,2.38,0,0,1,.66,1.71v39.54a2.42,2.42,0,0,1-.69,1.74,2.39,2.39,0,0,1-3.42,0,2.42,2.42,0,0,1-.69-1.74V476l1.14-.42a6.33,6.33,0,0,1-.87,3,10.87,10.87,0,0,1-2.46,3,14,14,0,0,1-3.69,2.28,11.45,11.45,0,0,1-4.56.9,13.16,13.16,0,0,1-7.32-2.1,14.79,14.79,0,0,1-5.13-5.76,19.48,19.48,0,0,1,0-16.74,14.65,14.65,0,0,1,5.1-5.73,13.35,13.35,0,0,1,15.81,1.05,11.08,11.08,0,0,1,2.61,3.18,7.33,7.33,0,0,1,.93,3.48l-1.56-.36V442.18a2.36,2.36,0,0,1,2.4-2.4Zm-12.36,40.56a9.36,9.36,0,0,0,5.34-1.53,10.58,10.58,0,0,0,3.6-4.2,14.5,14.5,0,0,0,0-12.09,10.54,10.54,0,0,0-3.63-4.17,9.39,9.39,0,0,0-5.31-1.53,9.29,9.29,0,0,0-5.25,1.53,10.54,10.54,0,0,0-3.63,4.17,14.36,14.36,0,0,0,0,12,10.72,10.72,0,0,0,3.63,4.23A9.16,9.16,0,0,0,310.49,480.34Z"/>
      <path class="cls-3" d="M336.35,448.66a3.42,3.42,0,0,1-2.22-.6,2.28,2.28,0,0,1-.72-1.86v-.84a2.2,2.2,0,0,1,.78-1.86,3.58,3.58,0,0,1,2.22-.6,3.31,3.31,0,0,1,2.16.6,2.28,2.28,0,0,1,.72,1.86v.84a2.24,2.24,0,0,1-.75,1.86A3.44,3.44,0,0,1,336.35,448.66Zm2.4,33.06a2.42,2.42,0,0,1-.69,1.74,2.27,2.27,0,0,1-1.71.72,2.25,2.25,0,0,1-1.74-.72,2.48,2.48,0,0,1-.66-1.74V455.08a2.4,2.4,0,1,1,4.8,0Z"/>
      <path class="cls-3" d="M346.19,453.34h14.1a2.1,2.1,0,0,1,1.59.66,2.18,2.18,0,0,1,.63,1.56,2.15,2.15,0,0,1-2.22,2.22h-14.1a2.13,2.13,0,0,1-1.56-.66,2.2,2.2,0,0,1-.66-1.62,2,2,0,0,1,.66-1.53A2.18,2.18,0,0,1,346.19,453.34Zm6.3-8.16a2.22,2.22,0,0,1,1.68.69,2.38,2.38,0,0,1,.66,1.71v29a4.39,4.39,0,0,0,.42,2.16,2.21,2.21,0,0,0,1.11,1,3.69,3.69,0,0,0,1.35.27,2.46,2.46,0,0,0,1.05-.21,2.46,2.46,0,0,1,1.05-.21,1.48,1.48,0,0,1,1.11.57,2.12,2.12,0,0,1,.51,1.47,2.15,2.15,0,0,1-1.26,1.83,5.41,5.41,0,0,1-2.82.75q-.84,0-2.07-.12a6.28,6.28,0,0,1-2.43-.78,5.14,5.14,0,0,1-2-2.19,9.3,9.3,0,0,1-.81-4.29V447.58a2.27,2.27,0,0,1,.72-1.71A2.42,2.42,0,0,1,352.49,445.18Z"/>
      <path class="cls-3" d="M371.39,448.66a3.42,3.42,0,0,1-2.22-.6,2.28,2.28,0,0,1-.72-1.86v-.84a2.2,2.2,0,0,1,.78-1.86,3.58,3.58,0,0,1,2.22-.6,3.31,3.31,0,0,1,2.16.6,2.28,2.28,0,0,1,.72,1.86v.84a2.24,2.24,0,0,1-.75,1.86A3.44,3.44,0,0,1,371.39,448.66Zm2.4,33.06a2.42,2.42,0,0,1-.69,1.74,2.27,2.27,0,0,1-1.71.72,2.25,2.25,0,0,1-1.74-.72,2.48,2.48,0,0,1-.66-1.74V455.08a2.4,2.4,0,1,1,4.8,0Z"/>
      <path class="cls-3" d="M397.85,452.38a10.83,10.83,0,0,1,6.42,1.68,9.11,9.11,0,0,1,3.33,4.5,18.93,18.93,0,0,1,1,6.3v16.86a2.42,2.42,0,0,1-.69,1.74,2.39,2.39,0,0,1-3.42,0,2.42,2.42,0,0,1-.69-1.74V465a11.58,11.58,0,0,0-.69-4.11,6.15,6.15,0,0,0-2.28-2.94,7.49,7.49,0,0,0-4.35-1.11,9.73,9.73,0,0,0-4.62,1.11,9.24,9.24,0,0,0-3.36,2.94,7.08,7.08,0,0,0-1.26,4.11v16.74a2.42,2.42,0,0,1-.69,1.74,2.39,2.39,0,0,1-3.42,0,2.42,2.42,0,0,1-.69-1.74V455.56a2.36,2.36,0,0,1,2.4-2.4,2.3,2.3,0,0,1,1.74.69,2.38,2.38,0,0,1,.66,1.71v4.26l-1.2,1.32a8.49,8.49,0,0,1,1.38-3.15,12.52,12.52,0,0,1,2.7-2.85,13.77,13.77,0,0,1,3.6-2A11.59,11.59,0,0,1,397.85,452.38Z"/>
      <path class="cls-3" d="M430.19,452.38a13.21,13.21,0,0,1,4.86.87,13.86,13.86,0,0,1,3.87,2.25,12.17,12.17,0,0,1,2.58,2.88,5.4,5.4,0,0,1,.93,2.82l-1.2-.72v-5.22a2.36,2.36,0,0,1,2.4-2.4,2.3,2.3,0,0,1,1.74.69,2.38,2.38,0,0,1,.66,1.71v26.28A14.89,14.89,0,0,1,444,489.7a12.94,12.94,0,0,1-5.55,4.86,18.12,18.12,0,0,1-7.74,1.62,18.78,18.78,0,0,1-4-.48,23.42,23.42,0,0,1-3.87-1.17,4.32,4.32,0,0,1-2.1-1.41,2.49,2.49,0,0,1-1.11-1.35,1.68,1.68,0,0,1,.21-1.41,1.74,1.74,0,0,1,1.44-.84,6,6,0,0,1,2.16.54q.6.18,1.74.6a20.32,20.32,0,0,0,2.64.75,13.66,13.66,0,0,0,2.94.33q5.1,0,7.8-2.67a9.47,9.47,0,0,0,2.7-7.05v-5.58l.66.3a7.92,7.92,0,0,1-1.44,3.12,11.6,11.6,0,0,1-2.67,2.55,13.27,13.27,0,0,1-3.54,1.74,12.71,12.71,0,0,1-3.93.63,13.82,13.82,0,0,1-7.53-2.1,15,15,0,0,1-5.28-5.76,18.94,18.94,0,0,1,0-16.74,14.85,14.85,0,0,1,5.25-5.73A13.71,13.71,0,0,1,430.19,452.38Zm.66,4.44a10,10,0,0,0-5.52,1.53,10.74,10.74,0,0,0-3.78,4.17,13.8,13.8,0,0,0,0,12,10.91,10.91,0,0,0,3.78,4.23,9.9,9.9,0,0,0,5.52,1.56,10,10,0,0,0,5.52-1.53,10.74,10.74,0,0,0,3.78-4.17,12.89,12.89,0,0,0,1.38-6.06,13,13,0,0,0-1.38-6.12,10.51,10.51,0,0,0-3.78-4.14A10.2,10.2,0,0,0,430.85,456.82Z"/>
      <path class="cls-3" d="M111.15,580.18a8.85,8.85,0,0,1,4.75,1.3,9.21,9.21,0,0,1,3.34,3.55,10.63,10.63,0,0,1,1.22,5.13,10.86,10.86,0,0,1-1.22,5.14A9.57,9.57,0,0,1,115.9,599a8.63,8.63,0,0,1-4.75,1.34h-9.74l.33-.57v12.09a1.93,1.93,0,0,1-.53,1.39,1.87,1.87,0,0,1-2.71,0,2,2,0,0,1-.5-1.39V582.1a1.86,1.86,0,0,1,.55-1.37,1.89,1.89,0,0,1,1.37-.55Zm0,16.42a4.6,4.6,0,0,0,2.78-.87,6.07,6.07,0,0,0,1.92-2.35,7.27,7.27,0,0,0,.72-3.22,6.9,6.9,0,0,0-.72-3.21,6.05,6.05,0,0,0-1.92-2.23,4.71,4.71,0,0,0-2.78-.84h-9.74l.33-.53v13.73l-.33-.48Z"/>
      <path class="cls-3" d="M138.08,588.58a8.25,8.25,0,0,1,5,1.37,7.36,7.36,0,0,1,2.64,3.65,15.3,15.3,0,0,1,.8,5.06v13.15a1.92,1.92,0,0,1-.56,1.39,1.78,1.78,0,0,1-1.36.58,1.8,1.8,0,0,1-1.37-.58,1.91,1.91,0,0,1-.55-1.39V598.66a9.7,9.7,0,0,0-.53-3.29,4.91,4.91,0,0,0-1.75-2.35,5.61,5.61,0,0,0-3.34-.89,7.44,7.44,0,0,0-3.6.89,7.09,7.09,0,0,0-2.59,2.35,5.87,5.87,0,0,0-1,3.29v13.15a2,2,0,0,1-.55,1.39,1.91,1.91,0,0,1-2.74,0,1.91,1.91,0,0,1-.55-1.39V580.18a1.86,1.86,0,0,1,.55-1.37,2,2,0,0,1,2.76,0,1.93,1.93,0,0,1,.53,1.37v14.35l-1,1.06a7.29,7.29,0,0,1,1-2.52,9.69,9.69,0,0,1,2.07-2.28,10.52,10.52,0,0,1,2.78-1.61A8.8,8.8,0,0,1,138.08,588.58Z"/>
      <path class="cls-3" d="M177,601.3a13.53,13.53,0,0,1-1.63,6.67,12,12,0,0,1-10.8,6.29,12.07,12.07,0,0,1-6.32-1.68,12.34,12.34,0,0,1-4.46-4.61,14.23,14.23,0,0,1,0-13.34,12.34,12.34,0,0,1,4.46-4.61,12.8,12.8,0,0,1,12.68,0,12.22,12.22,0,0,1,4.44,4.61A13.53,13.53,0,0,1,177,601.3Zm-3.84,0a10.3,10.3,0,0,0-1.13-4.9,8.6,8.6,0,0,0-3.07-3.31,8.59,8.59,0,0,0-8.76,0,8.45,8.45,0,0,0-3.1,3.31,10.3,10.3,0,0,0-1.13,4.9,10.15,10.15,0,0,0,1.13,4.85,8.51,8.51,0,0,0,3.1,3.33,8.41,8.41,0,0,0,8.76,0,8.66,8.66,0,0,0,3.07-3.33A10.15,10.15,0,0,0,173.12,601.3Z"/>
      <path class="cls-3" d="M181.56,589.11h11.28a1.7,1.7,0,0,1,1.28.53,1.76,1.76,0,0,1-1.28,3H181.56a1.66,1.66,0,0,1-1.24-.53,1.72,1.72,0,0,1-.53-1.29,1.62,1.62,0,0,1,.53-1.23A1.75,1.75,0,0,1,181.56,589.11Zm5-6.53a1.81,1.81,0,0,1,1.35.55,1.93,1.93,0,0,1,.53,1.37v23.18a3.56,3.56,0,0,0,.33,1.73,1.74,1.74,0,0,0,.89.79,2.86,2.86,0,0,0,1.08.22,1.86,1.86,0,0,0,.84-.17,2,2,0,0,1,.84-.17,1.2,1.2,0,0,1,.89.46,1.68,1.68,0,0,1-.6,2.64,4.34,4.34,0,0,1-2.26.6,15.64,15.64,0,0,1-1.65-.1,5,5,0,0,1-2-.62,4.12,4.12,0,0,1-1.61-1.75,7.48,7.48,0,0,1-.64-3.43V584.5a1.84,1.84,0,0,1,.57-1.37A2,2,0,0,1,186.6,582.58Z"/>
      <path class="cls-3" d="M223,601.3a13.53,13.53,0,0,1-1.63,6.67,12,12,0,0,1-10.8,6.29,12.09,12.09,0,0,1-6.32-1.68,12.34,12.34,0,0,1-4.46-4.61,14.23,14.23,0,0,1,0-13.34,12.34,12.34,0,0,1,4.46-4.61A12.8,12.8,0,0,1,217,590a12.22,12.22,0,0,1,4.44,4.61A13.53,13.53,0,0,1,223,601.3Zm-3.84,0a10.3,10.3,0,0,0-1.13-4.9,8.6,8.6,0,0,0-3.07-3.31,8.59,8.59,0,0,0-8.76,0,8.45,8.45,0,0,0-3.1,3.31,10.3,10.3,0,0,0-1.13,4.9,10.15,10.15,0,0,0,1.13,4.85,8.51,8.51,0,0,0,3.1,3.33,8.41,8.41,0,0,0,8.76,0,8.66,8.66,0,0,0,3.07-3.33A10.15,10.15,0,0,0,219.2,601.3Z"/>
      <path class="cls-3" d="M227.21,609.84a2,2,0,0,1-.38-1.32,1.63,1.63,0,0,1,.81-1.22,1.73,1.73,0,0,1,2.31.34,10.83,10.83,0,0,0,3.07,2.52,8.8,8.8,0,0,0,4.22.93,9.78,9.78,0,0,0,2.31-.38,4.22,4.22,0,0,0,1.94-1.18,3.1,3.1,0,0,0,.79-2.23,2.87,2.87,0,0,0-.81-2.14,6.34,6.34,0,0,0-2.11-1.29,23.77,23.77,0,0,0-2.84-.89c-1.05-.29-2.09-.61-3.12-1a11.92,11.92,0,0,1-2.76-1.4,6.38,6.38,0,0,1-2-2.11,6,6,0,0,1-.75-3.09,6.1,6.1,0,0,1,1.18-3.75,7.68,7.68,0,0,1,3.17-2.45,10.85,10.85,0,0,1,4.34-.86,13.35,13.35,0,0,1,2.81.31,10.71,10.71,0,0,1,2.85,1.06,7.93,7.93,0,0,1,2.45,2,1.91,1.91,0,0,1,.48,1.2,1.52,1.52,0,0,1-.62,1.29,1.73,1.73,0,0,1-1.18.34,1.64,1.64,0,0,1-1.08-.48,6.61,6.61,0,0,0-2.52-1.85,8.42,8.42,0,0,0-3.33-.65,7.88,7.88,0,0,0-2.26.34,4.18,4.18,0,0,0-1.85,1.13,3.09,3.09,0,0,0-.74,2.18,3,3,0,0,0,.86,2.11,5.81,5.81,0,0,0,2.21,1.32c.93.34,2,.67,3.07,1s2,.55,2.95.89a10.06,10.06,0,0,1,2.57,1.32,5.92,5.92,0,0,1,1.83,2.08,6.93,6.93,0,0,1,.67,3.2,6,6,0,0,1-1.25,3.81,7.78,7.78,0,0,1-3.29,2.45,11.4,11.4,0,0,1-4.39.84,14.19,14.19,0,0,1-5.21-1A10.37,10.37,0,0,1,227.21,609.84Z"/>
      <path class="cls-3" d="M263.36,588.58a8.25,8.25,0,0,1,5,1.37A7.49,7.49,0,0,1,271,593.6a15.3,15.3,0,0,1,.79,5.06v13.15a1.91,1.91,0,0,1-.55,1.39,1.8,1.8,0,0,1-1.37.58,1.78,1.78,0,0,1-1.36-.58,1.92,1.92,0,0,1-.56-1.39V598.66a9.71,9.71,0,0,0-.52-3.29,4.93,4.93,0,0,0-1.76-2.35,5.55,5.55,0,0,0-3.33-.89,7.44,7.44,0,0,0-3.6.89,7.09,7.09,0,0,0-2.59,2.35,5.87,5.87,0,0,0-1,3.29v13.15a1.92,1.92,0,0,1-.56,1.39,1.78,1.78,0,0,1-1.36.58,1.8,1.8,0,0,1-1.37-.58,1.91,1.91,0,0,1-.55-1.39V580.18a1.86,1.86,0,0,1,.55-1.37,2,2,0,0,1,2.76,0,1.93,1.93,0,0,1,.53,1.37v14.35l-1,1.06a7.29,7.29,0,0,1,1-2.52,9.48,9.48,0,0,1,2.07-2.28,10.52,10.52,0,0,1,2.78-1.61A8.77,8.77,0,0,1,263.36,588.58Z"/>
      <path class="cls-3" d="M302.24,601.3A13.43,13.43,0,0,1,300.6,608a12.5,12.5,0,0,1-17.11,4.61A12.34,12.34,0,0,1,279,608a14.23,14.23,0,0,1,0-13.34,12.34,12.34,0,0,1,4.46-4.61,12.3,12.3,0,0,1,17.11,4.61A13.43,13.43,0,0,1,302.24,601.3Zm-3.84,0a10.3,10.3,0,0,0-1.13-4.9,8.6,8.6,0,0,0-3.07-3.31,8.59,8.59,0,0,0-8.76,0,8.45,8.45,0,0,0-3.1,3.31,10.3,10.3,0,0,0-1.13,4.9,10.15,10.15,0,0,0,1.13,4.85,8.51,8.51,0,0,0,3.1,3.33,8.41,8.41,0,0,0,8.76,0,8.66,8.66,0,0,0,3.07-3.33A10.15,10.15,0,0,0,298.4,601.3Z"/>
      <path class="cls-3" d="M320,588.58a10.84,10.84,0,0,1,5.86,1.63,11.48,11.48,0,0,1,4.1,4.51A15.15,15.15,0,0,1,330,608a11.65,11.65,0,0,1-4.08,4.56,10.46,10.46,0,0,1-5.78,1.65,9.92,9.92,0,0,1-3.34-.55,11.25,11.25,0,0,1-2.83-1.44,9.32,9.32,0,0,1-2.13-2,7.78,7.78,0,0,1-1.25-2.24l1.05-.67v14.16a2,2,0,0,1-.52,1.39,1.8,1.8,0,0,1-1.4.58,1.82,1.82,0,0,1-1.36-.55,1.92,1.92,0,0,1-.56-1.42V590.74a1.9,1.9,0,0,1,1.92-1.92,1.89,1.89,0,0,1,1.4.55,1.92,1.92,0,0,1,.52,1.37V595l-.72-.38a7,7,0,0,1,1.18-2.31,9.1,9.1,0,0,1,2.06-1.94,10.5,10.5,0,0,1,5.88-1.8Zm-.43,3.55a7.65,7.65,0,0,0-4.25,1.2,8.17,8.17,0,0,0-2.88,3.27,10.57,10.57,0,0,0-1,4.75,10.79,10.79,0,0,0,1,4.75,8.09,8.09,0,0,0,2.88,3.31,7.65,7.65,0,0,0,4.25,1.2,7.54,7.54,0,0,0,4.23-1.2,8.39,8.39,0,0,0,2.88-3.31,10.53,10.53,0,0,0,1-4.75,10.32,10.32,0,0,0-1-4.75,8.48,8.48,0,0,0-2.88-3.27A7.54,7.54,0,0,0,319.61,592.13Z"/>
      <path class="cls-3" d="M350.71,602.64a1.82,1.82,0,0,1-1.34-.52,1.78,1.78,0,0,1-.53-1.3,1.68,1.68,0,0,1,.53-1.27,1.85,1.85,0,0,1,1.34-.51h19.68a1.83,1.83,0,0,1,1.35.53,1.8,1.8,0,0,1,.53,1.3,1.7,1.7,0,0,1-.53,1.27,1.85,1.85,0,0,1-1.35.5Zm9.8,10a2.06,2.06,0,0,1-1.47-.58,1.9,1.9,0,0,1-.6-1.44V590.84a2,2,0,0,1,.6-1.49,2.08,2.08,0,0,1,1.51-.58,1.93,1.93,0,0,1,1.47.58,2,2,0,0,1,.55,1.49v19.77a2,2,0,0,1-.58,1.49A2,2,0,0,1,360.51,612.68Z"/>
      <path class="cls-3" d="M409.85,610a1.92,1.92,0,0,1,1.39.55,1.81,1.81,0,0,1,.58,1.37,1.72,1.72,0,0,1-.58,1.34,2,2,0,0,1-1.39.53H393.24a1.81,1.81,0,0,1-1.37-.58,2,2,0,0,1-.55-1.39V582.1a1.81,1.81,0,0,1,.58-1.37,2,2,0,0,1,1.44-.55,2,2,0,0,1,1.39.55,1.85,1.85,0,0,1,.58,1.37v28.75l-1-.86Z"/>
      <path class="cls-3" d="M418.44,585.36a2.66,2.66,0,0,1-1.77-.48,1.78,1.78,0,0,1-.58-1.48v-.68a1.76,1.76,0,0,1,.62-1.48,2.88,2.88,0,0,1,1.78-.48,2.66,2.66,0,0,1,1.73.48,1.82,1.82,0,0,1,.57,1.48v.68a1.76,1.76,0,0,1-.6,1.48A2.68,2.68,0,0,1,418.44,585.36Zm1.92,26.45a1.91,1.91,0,0,1-.55,1.39,1.81,1.81,0,0,1-1.37.58,1.78,1.78,0,0,1-1.39-.58,2,2,0,0,1-.53-1.39V590.5a1.94,1.94,0,0,1,3.29-1.37,1.86,1.86,0,0,1,.55,1.37Z"/>
      <path class="cls-3" d="M437.45,588.34a10.47,10.47,0,0,1,3.89.7,10.92,10.92,0,0,1,3.09,1.8,9.73,9.73,0,0,1,2.07,2.3,4.37,4.37,0,0,1,.74,2.26l-1-.58v-4.18a1.9,1.9,0,0,1,1.92-1.92,1.82,1.82,0,0,1,1.39.56,1.86,1.86,0,0,1,.53,1.36v21a12,12,0,0,1-1.65,6.53,10.43,10.43,0,0,1-4.44,3.88,14.43,14.43,0,0,1-6.2,1.3,15.39,15.39,0,0,1-3.19-.38,18.6,18.6,0,0,1-3.09-.94,3.39,3.39,0,0,1-1.68-1.13,2,2,0,0,1-.89-1.08,1.34,1.34,0,0,1,.17-1.13,1.4,1.4,0,0,1,1.15-.67,5,5,0,0,1,1.73.43c.32.1.78.26,1.39.48a14.6,14.6,0,0,0,2.11.6,10.66,10.66,0,0,0,2.35.27,8.48,8.48,0,0,0,6.24-2.14,7.57,7.57,0,0,0,2.16-5.64v-4.46l.53.24a6.29,6.29,0,0,1-1.15,2.49,9.26,9.26,0,0,1-2.14,2,10.53,10.53,0,0,1-2.83,1.4,10.35,10.35,0,0,1-3.14.5,11.09,11.09,0,0,1-6-1.68A12.05,12.05,0,0,1,427.3,608a15.15,15.15,0,0,1,0-13.39,11.85,11.85,0,0,1,4.2-4.58A10.91,10.91,0,0,1,437.45,588.34Zm.53,3.55a8,8,0,0,0-4.42,1.23,8.46,8.46,0,0,0-3,3.33,11,11,0,0,0,0,9.63,8.68,8.68,0,0,0,3,3.38,8.48,8.48,0,0,0,8.83,0,8.56,8.56,0,0,0,3-3.33,10.38,10.38,0,0,0,1.1-4.85,10.53,10.53,0,0,0-1.1-4.9,8.5,8.5,0,0,0-3-3.31A8.15,8.15,0,0,0,438,591.89Z"/>
      <path class="cls-3" d="M469.22,588.58a8.26,8.26,0,0,1,5,1.37,7.49,7.49,0,0,1,2.64,3.65,15.3,15.3,0,0,1,.79,5.06v13.15a1.91,1.91,0,0,1-.55,1.39,1.91,1.91,0,0,1-2.74,0,2,2,0,0,1-.55-1.39V598.66a9.46,9.46,0,0,0-.53-3.29,4.85,4.85,0,0,0-1.75-2.35,5.58,5.58,0,0,0-3.33-.89,7.39,7.39,0,0,0-3.6.89,7.12,7.12,0,0,0-2.6,2.35,5.87,5.87,0,0,0-1,3.29v13.15a1.91,1.91,0,0,1-.55,1.39,1.9,1.9,0,0,1-2.73,0,1.92,1.92,0,0,1-.56-1.39V580.18a2,2,0,0,1,3.32-1.37,1.92,1.92,0,0,1,.52,1.37v14.35l-1,1.06a7.32,7.32,0,0,1,1.06-2.52,9.43,9.43,0,0,1,2.06-2.28,10.58,10.58,0,0,1,2.79-1.61A8.71,8.71,0,0,1,469.22,588.58Z"/>
      <path class="cls-3" d="M483.82,589.11H495.1a1.7,1.7,0,0,1,1.27.53,1.76,1.76,0,0,1-1.27,3H483.82a1.68,1.68,0,0,1-1.25-.53,1.76,1.76,0,0,1-.53-1.29,1.66,1.66,0,0,1,.53-1.23A1.77,1.77,0,0,1,483.82,589.11Zm5-6.53a1.8,1.8,0,0,1,1.34.55,1.93,1.93,0,0,1,.53,1.37v23.18a3.56,3.56,0,0,0,.33,1.73,1.74,1.74,0,0,0,.89.79,2.86,2.86,0,0,0,1.08.22,1.86,1.86,0,0,0,.84-.17,2,2,0,0,1,.84-.17,1.2,1.2,0,0,1,.89.46,1.68,1.68,0,0,1-.6,2.64,4.32,4.32,0,0,1-2.26.6,15.79,15.79,0,0,1-1.65-.1,5,5,0,0,1-1.95-.62,4,4,0,0,1-1.6-1.75,7.34,7.34,0,0,1-.65-3.43V584.5a1.84,1.84,0,0,1,.57-1.37A2,2,0,0,1,488.86,582.58Z"/>
      <path class="cls-3" d="M504.12,613.78a1.81,1.81,0,0,1-1.37-.58,1.91,1.91,0,0,1-.55-1.39V590.88a1.84,1.84,0,0,1,.55-1.36,1.87,1.87,0,0,1,1.37-.56,1.82,1.82,0,0,1,1.39.56,1.9,1.9,0,0,1,.53,1.36v6.34l-.58-1a10.63,10.63,0,0,1,1-2.9,10.17,10.17,0,0,1,1.89-2.55A8.75,8.75,0,0,1,511,589a8.12,8.12,0,0,1,3.27-.65,3.92,3.92,0,0,1,1.94.5,1.57,1.57,0,0,1,.89,1.42,1.93,1.93,0,0,1-.53,1.49,1.73,1.73,0,0,1-1.2.48,2.77,2.77,0,0,1-1.2-.27,3.53,3.53,0,0,0-1.44-.26,4.93,4.93,0,0,0-2.38.65,7.56,7.56,0,0,0-2.16,1.85,10.25,10.25,0,0,0-1.58,2.71,8.72,8.72,0,0,0-.6,3.24v11.66a1.91,1.91,0,0,1-.55,1.39A1.81,1.81,0,0,1,504.12,613.78Z"/>
      <path class="cls-3" d="M543.72,601.3a13.42,13.42,0,0,1-1.63,6.67,12,12,0,0,1-10.8,6.29,12,12,0,0,1-6.31-1.68,12.37,12.37,0,0,1-4.47-4.61,14.31,14.31,0,0,1,0-13.34A12.37,12.37,0,0,1,525,590a12.78,12.78,0,0,1,12.67,0,12.22,12.22,0,0,1,4.44,4.61A13.42,13.42,0,0,1,543.72,601.3Zm-3.84,0a10.3,10.3,0,0,0-1.13-4.9,8.53,8.53,0,0,0-3.07-3.31,8.59,8.59,0,0,0-8.76,0,8.6,8.6,0,0,0-3.1,3.31,10.3,10.3,0,0,0-1.12,4.9,10.15,10.15,0,0,0,1.12,4.85,8.65,8.65,0,0,0,3.1,3.33,8.41,8.41,0,0,0,8.76,0,8.58,8.58,0,0,0,3.07-3.33A10.15,10.15,0,0,0,539.88,601.3Z"/>
      <path class="cls-3" d="M572.62,601.3A13.43,13.43,0,0,1,571,608a12.5,12.5,0,0,1-17.11,4.61,12.34,12.34,0,0,1-4.46-4.61,14.23,14.23,0,0,1,0-13.34,12.34,12.34,0,0,1,4.46-4.61A12.3,12.3,0,0,1,571,594.63,13.43,13.43,0,0,1,572.62,601.3Zm-3.84,0a10.3,10.3,0,0,0-1.13-4.9,8.6,8.6,0,0,0-3.07-3.31,8.59,8.59,0,0,0-8.76,0,8.45,8.45,0,0,0-3.1,3.31,10.3,10.3,0,0,0-1.13,4.9,10.15,10.15,0,0,0,1.13,4.85,8.51,8.51,0,0,0,3.1,3.33,8.41,8.41,0,0,0,8.76,0,8.66,8.66,0,0,0,3.07-3.33A10.15,10.15,0,0,0,568.78,601.3Z"/>
      <path class="cls-3" d="M590,588.58a8.12,8.12,0,0,1,5.3,1.66,8,8,0,0,1,2.71,4.68h-.72l.34-.87a7.5,7.5,0,0,1,2-2.59,12.34,12.34,0,0,1,3.21-2.06,9.12,9.12,0,0,1,3.8-.82,8.17,8.17,0,0,1,5,1.37,7.5,7.5,0,0,1,2.61,3.65,15.44,15.44,0,0,1,.8,5.11v13.1a2,2,0,0,1-.55,1.39,1.94,1.94,0,0,1-2.77,0,2,2,0,0,1-.52-1.39v-13a10,10,0,0,0-.55-3.38,5,5,0,0,0-1.78-2.4,5.61,5.61,0,0,0-3.34-.89,7.44,7.44,0,0,0-3.6.89,6.88,6.88,0,0,0-2.59,2.4,6.19,6.19,0,0,0-1,3.38v13a2,2,0,0,1-.53,1.39,1.77,1.77,0,0,1-1.39.58,1.81,1.81,0,0,1-1.37-.58,1.91,1.91,0,0,1-.55-1.39V598.66a10.24,10.24,0,0,0-.5-3.29,4.84,4.84,0,0,0-1.71-2.35,5.47,5.47,0,0,0-3.31-.89,7,7,0,0,0-3.5.89,7.21,7.21,0,0,0-2.55,2.35,5.87,5.87,0,0,0-1,3.29v13.15a1.91,1.91,0,0,1-.55,1.39,1.91,1.91,0,0,1-2.74,0,2,2,0,0,1-.55-1.39V590.88A1.9,1.9,0,0,1,580.1,589a1.86,1.86,0,0,1,1.4.56,1.9,1.9,0,0,1,.52,1.36v3.65l-1,1.15a6.32,6.32,0,0,1,1-2.49,10.46,10.46,0,0,1,4.82-4A8.76,8.76,0,0,1,590,588.58Z"/>
    </g>
    <g id="Photo_Art" data-name="Photo Art">
      <polygon class="cls-4" points="760.09 806.46 654.78 878.45 809.29 878.45 760.09 806.46"/>
      <polygon class="cls-4" points="817.52 886.14 645.15 886.14 592.6 922.06 842.07 922.06 817.52 886.14"/>
      <polygon class="cls-4" points="586.35 929.14 419.79 1042.99 538.43 1216.55 883.54 980.66 848.32 929.14 586.35 929.14"/>
      <ellipse class="cls-4" cx="603.49" cy="1247.58" rx="347.92" ry="17.18"/>
      <ellipse class="cls-4" cx="239.67" cy="1215.79" rx="100.08" ry="12.89"/>
      <ellipse class="cls-5" cx="414.65" cy="1000.98" rx="11.85" ry="6.86"/>
      <polygon class="cls-5" points="726.02 1051.19 459.71 1051.19 466.26 1027.62 471.92 1007.22 481.54 972.61 704.81 972.61 714.16 1007.22 720.55 1030.92 726.02 1051.19"/>
      <polygon class="cls-6" points="720.55 1030.92 466.26 1030.92 466.26 1027.62 471.92 1007.22 714.16 1007.22 720.55 1030.92"/>
      <rect class="cls-2" x="397.35" y="998.8" width="34.61" height="26.82"/>
      <rect class="cls-5" x="372.4" y="1011.9" width="441.56" height="235.75"/>
      <rect class="cls-2" x="372.4" y="1100.46" width="441.56" height="58.62"/>
      <circle class="cls-7" cx="593.18" cy="1129.77" r="109.45"/>
      <circle class="cls-5" cx="593.18" cy="1129.77" r="101.66"/>
      <circle class="cls-7" cx="593.18" cy="1129.77" r="77.33"/>
      <circle class="cls-8" cx="745.98" cy="1028.11" r="7.48"/>
      <circle class="cls-9" cx="768.43" cy="1028.11" r="7.48"/>
      <circle class="cls-2" cx="790.88" cy="1028.11" r="7.48"/>
      <rect class="cls-7" x="566.67" y="978.22" width="52.39" height="23.7"/>
      <path class="cls-10" d="M185,907.63l4.59-4.59s11.72-20.38,0-18.85-11.72,11.72-11.72,11.72v11.72Z"/>
      <path class="cls-10" d="M366.87,957.05l4.58-1.53s12.23-18.34,13.76-10.19-6.11,19.37-6.11,19.37H366.87Z"/>
      <rect class="cls-5" x="210.18" y="723.42" width="200.26" height="205.35" transform="translate(-566.46 926.17) rotate(-75.92)"/>
      <rect class="cls-8" x="253.6" y="712.5" width="123.59" height="176.36" transform="translate(-537.95 911.86) rotate(-75.92)"/>
      <ellipse class="cls-7" cx="257.45" cy="888.26" rx="20.5" ry="17.07"/>
      <path class="cls-7" d="M225.72,1026.35s-7.65,20.9-9.18,73.89-3,86.12,3.57,90.7,16.31,3.57,16.82,2.55,3-67.26,3-67.26l13.25-49.43L268,1110.43V1169s11.21,10.19,15.8.51,7.64-59.11,7.64-59.11,5.61-84.08-4.08-94.27S225.72,1026.35,225.72,1026.35Z"/>
      <path class="cls-7" d="M227.25,1190.94s-5.61-5.09-10.2,1.53-19.87,20.89-16.3,23.44,21.91,3.57,23.95,1c0,0,14.78-6.62,14.78-8.15s-2-18.35-4.08-17.84S227.76,1195.53,227.25,1190.94Z"/>
      <path class="cls-7" d="M275.14,1166H285s-2.74,7.13-.19,7.13,26,19.36,16.81,21.4-35.16-7.13-36.18-10.19S269,1167.5,269,1167.5l6.11,3.06Z"/>
      <path class="cls-10" d="M246.61,901.51s-1,17.33-6.12,18.85,16.31,17.33,16.31,17.33l14.78-19.36S266,908.64,268,901.51,246.61,901.51,246.61,901.51Z"/>
      <path class="cls-6" d="M246.61,901.51s-1,17.33-6.12,18.85,16.31,17.33,16.31,17.33l14.78-19.36S266,908.64,268,901.51,246.61,901.51,246.61,901.51Z"/>
      <path class="cls-11" d="M255.78,921.38s-17.83-6.62-20.38-5.09-26.5,12.23-27,14.27,3.06,31.59,3.06,31.59,6.11,2.55,6.62,13.25,14.27,27.51,9.69,38.72-9.18,15.29-.51,16.82,47.89-1,49.93-4.59,13.76-8.66,17.33-7.64-2-53-2-53l3.06-7.65,10.19-28s-15.29-17.33-30.07-15.8C275.65,914.25,259.35,916.29,255.78,921.38Z"/>
      <path class="cls-11" d="M216,932.08l-7.65-1.52s-7.64,5.09-10.19,5.09-2.55,2-2.55,2S186,922.91,188,906.1c0,0-11.72-5.61-12.23-1.53s-4.59,50.45,4.08,53.5,38.21,3.57,38.21,3.57Z"/>
      <path class="cls-11" d="M298.58,929h7.14l18.85,18.85s4.59-1,6.12,2,11.72,2.55,11.72,2.55l27,2.55s3.57,11.72,1,13.75S323,971.32,323,971.32s-4.07-2-6.62,0-20.89-10.7-22.93-14.27S298.58,929,298.58,929Z"/>
      <circle class="cls-10" cx="258.33" cy="890.81" r="18.85"/>
      <path class="cls-7" d="M246.64,879.84s-3.23-8.38,1.45-11.12l1.29,3.71s11.77-7.1,14.83-5.48l-2.9,3.86s13.71,0,14.67,5.33l-4.83.16s5.16,3.38,5.32,8.87l-10.32.64,5,2.9s-18.71,2.58-23.22-4.83Z"/>
      <path class="cls-7" d="M239.73,883.42s5.46,5.37,12.54,2.72,0-12.37,0-12.37l-4.72-2.36Z"/>
      <rect class="cls-12" x="322.57" y="816.33" width="18.9" height="18.9" transform="translate(-345.52 248.65) rotate(-27.67)"/>
      <rect class="cls-2" x="271.89" y="800.86" width="18.9" height="18.9" transform="translate(-561.08 648.8) rotate(-60)"/>
      <circle class="cls-13" cx="618.95" cy="950.34" r="9.45"/>
      <circle class="cls-13" cx="589.74" cy="914.26" r="9.45"/>
      <circle class="cls-13" cx="637.85" cy="886.77" r="9.45"/>
      <circle class="cls-12" cx="318.28" cy="782.82" r="9.45"/>
    </g>
    <g id="Camera">
      <path class="cls-14" d="M845.5,203.41A7.54,7.54,0,0,1,838,211h-67.9a7.54,7.54,0,0,1-7.55-7.54v-41.5a7.55,7.55,0,0,1,7.55-7.55h15.09l7.54-11.31h22.64l7.54,11.31H838a7.55,7.55,0,0,1,7.55,7.55Z"/>
      <circle class="cls-14" cx="804" cy="180.77" r="15.09"/>
    </g>
  </g>
</svg>
