<?xml version="1.0" encoding="utf-8"?>
<!-- Generator: Adobe Illustrator 21.1.0, SVG Export Plug-In . SVG Version: 6.00 Build 0)  -->
<svg version="1.1" id="Layer_2" xmlns="http://www.w3.org/2000/svg" xmlns:xlink="http://www.w3.org/1999/xlink" x="0px" y="0px"
	 viewBox="0 0 240 234" style="enable-background:new 0 0 240 234;" xml:space="preserve">
<style type="text/css">
	.st0{fill:#FFD70D;}
	.st1{fill:#262002;}
	.st2{fill:#FFF7CC;}
</style>
<g>
	<path class="st0" d="M197.5,234h-155C19.028,234,0,214.972,0,191.5v-149C0,19.028,19.028,0,42.5,0h155
		C220.972,0,240,19.028,240,42.5v149C240,214.972,220.972,234,197.5,234z"/>
	<path class="st1" d="M193.665,224H46.335C26.268,224,10,207.732,10,187.665V46.335C10,26.268,26.268,10,46.335,10h147.33
		C213.732,10,230,26.268,230,46.335v141.33C230,207.732,213.732,224,193.665,224z"/>
	<g>
		<path class="st2" d="M51.979,161.683c-0.645-0.483-0.966-1.127-0.966-2.093v-14.982c0-0.483,0.644-0.966,1.288-0.483
			c7.245,4.991,15.568,6.981,23.618,6.981c11.752,0,17.144-6.328,17.144-13.25c0-6.118-3.411-11.109-14.681-17.709l-5.796-3.059
			c-16.583-9.338-21.413-18.836-21.413-30.911c0-16.422,11.431-30.051,33.004-30.051c9.499,0,16.707,1.877,20.732,4.131
			c0.805,0.322,0.966,0.805,0.966,1.771v14.142c0,0.644-0.644,1.127-1.288,0.644c-4.991-3.22-12.27-5.063-19.837-5.063
			c-12.396,0-16.937,7.665-16.937,13.3c0,6.118,3.324,10.626,14.433,16.743l5.152,2.737C105.751,114.672,110,124.493,110,136.568
			c0,17.87-12.621,30.267-33.872,30.267C66.629,166.835,57.935,165.064,51.979,161.683z"/>
		<path class="st2" d="M188.938,123.366c0,29.14-20.075,43.469-40.844,43.469c-1.288,0-2.737-0.161-4.186-0.322l0.055,22.056
			c0,0.644-0.322,0.966-1.127,1.127l-15.57,1.262c-0.966,0-1.127-0.161-1.127-0.966L126.084,99.7c0-1.771-0.161-6.44-0.483-8.694
			c0-0.161,0.161-0.644,0.483-0.805c6.439-2.093,16.537-5.138,27.967-5.138C176.912,85.063,188.938,101.31,188.938,123.366z
			 M143.908,101.101v49.957c1.449,0.483,3.362,1.11,5.133,1.11c10.787,0,22.083-8.193,22.083-27.674
			c0-15.938-6.771-24.68-18.846-24.68C148.899,99.813,146.484,100.296,143.908,101.101z"/>
	</g>
</g>
</svg>
