<svg xmlns="http://www.w3.org/2000/svg" xmlns:xlink="http://www.w3.org/1999/xlink" viewBox="0 0 1080 1350"><defs><style>.cls-1{fill:url(#linear-gradient);}.cls-2{font-size:100px;font-family:Quicksand-Bold, Quicksand;font-weight:700;}.cls-2,.cls-25{fill:#fff;}.cls-3{letter-spacing:-0.01em;}.cls-4{letter-spacing:0.01em;}.cls-5{fill:#f2f2f2;}.cls-23,.cls-5,.cls-6,.cls-9{opacity:0.1;}.cls-13,.cls-29,.cls-5,.cls-6,.cls-9{isolation:isolate;}.cls-16,.cls-6{fill:#6c63ff;}.cls-7{fill:#eaecf0;}.cls-8{fill:#3a3768;}.cls-10{fill:#efc6cd;}.cls-11{fill:#d48a9b;}.cls-12{fill:#dfe6f5;}.cls-13{opacity:0.15;}.cls-14{fill:#4c4c56;}.cls-15{fill:#d1d9ec;}.cls-17{fill:url(#linear-gradient-2);}.cls-18{fill:url(#linear-gradient-3);}.cls-19{fill:#d38884;}.cls-20{fill:#a36468;}.cls-21{fill:#444053;}.cls-22{fill:#67647e;}.cls-24{fill:#d3dae1;}.cls-26{fill:#d5e1f4;}.cls-27{fill:url(#linear-gradient-4);}.cls-28{fill:#efb7b9;}.cls-29{opacity:0.05;}.cls-30{opacity:0.7;}.cls-31{fill:#2e001e;}.cls-32{fill:#ff2bc2;}.cls-33{fill:#ea6c00;}.cls-34{fill:#fdad00;}.cls-35{fill:#fdd231;}.cls-36{fill:#feeeb7;}.cls-37{font-size:60px;fill:#fffd66;font-family:Quicksand-Medium, Quicksand;}.cls-38{letter-spacing:0em;}.cls-39{letter-spacing:0em;}.cls-40{letter-spacing:-0.02em;}.cls-41{letter-spacing:0.01em;}.cls-42{fill:none;stroke:#fff;stroke-linecap:round;stroke-linejoin:round;stroke-width:7px;}</style><linearGradient id="linear-gradient" x1="227.41" y1="289.47" x2="1037.49" y2="1288.57" gradientUnits="userSpaceOnUse"><stop offset="0" stop-color="#9000ff"/><stop offset="0.99" stop-color="#4848f6"/></linearGradient><linearGradient id="linear-gradient-2" x1="428.68" y1="0.15" x2="428.68" y2="0.15" gradientTransform="matrix(1, 0, 0, -1, -17.96, 1179.97)" gradientUnits="userSpaceOnUse"><stop offset="0" stop-color="gray" stop-opacity="0.25"/><stop offset="0.54" stop-color="gray" stop-opacity="0.12"/><stop offset="1" stop-color="gray" stop-opacity="0.1"/></linearGradient><linearGradient id="linear-gradient-3" x1="214.34" y1="124.11" x2="444.57" y2="124.11" xlink:href="#linear-gradient-2"/><linearGradient id="linear-gradient-4" x1="-1259.42" y1="-22.47" x2="-1259.42" y2="251.39" gradientTransform="matrix(1, 0, 0, -1, 1979.37, 1179.97)" xlink:href="#linear-gradient-2"/></defs><title>ux-design-card</title><g id="UI_UX" data-name="UI/UX"><rect class="cls-1" width="1080" height="1350"/><text class="cls-2" transform="translate(90 210)">UI/<tspan class="cls-3" x="154.8" y="0">U</tspan><tspan x="224.3" y="0">X </tspan><tspan class="cls-4" x="317.8" y="0">D</tspan><tspan x="390.1" y="0">esign</tspan></text><g id="UI_UX-2" data-name="UI/UX"><path class="cls-5" d="M1033.56,1140.38a71.16,71.16,0,0,1-19.53,23.43c-1.15.92-2.33,1.81-3.53,2.69q-2.41,1.7-5,3.33C992.4,1178.18,977,1183.88,962,1188q-6.15,1.7-12.34,3.19-5.22,1.26-10.45,2.36l-4,.85c-1.32.29-2.84.57-4.24.85l-2,.38c-38.9,7.17-78.3,8.54-118,6.74l-1.88-.09-3-.16q-12.08-.62-24.2-1.6l-3-.25-1.35-.11q-6.79-.57-13.58-1.24-9-.86-17.92-1.88l-.77-.08-.63-.08h0c-21.35-2.4-42.75-5.29-64.17-8.25l-3-.43-5.44-.75-4.59-.64h0l-1.35-.18q-10.86-1.53-21.7-3l-1.17-.16c-13.58-1.86-27.24-3.65-40.86-5.28l-1.77-.21h0q-8.36-1-16.71-1.9l-4.25-.45-5.64-.56c-15.64-1.56-31.28-2.8-46.88-3.57q-11.25-.55-22.56-.85-9.34-.21-18.68-.24-12.66-.06-25.38.14h-1.91q-17.93.3-35.89.94l-2.16.07h-.71c-25.47.9-50.93,2.1-76.33,3l-6.2.21h-.9q-13.25.42-26.46.65h-5.24l-3.94,0q-6.13.06-12.25.07h-5c-15,0-29.85-.37-44.66-1.15l-1.64-.09c-28.77-1.55-57.21-4.76-85.15-10.59-2.89-.61-5.77-1.24-8.66-1.9a398,398,0,0,1-56.7-17.24c-8.69-3.4-17.43-7.32-24-14-16.78-17-10.48-50.22,11.35-59.89,17.07-7.56,37.06-1.41,55.42-4.82a29.17,29.17,0,0,0,3.34-.85,46.63,46.63,0,0,0,6.79-2.8c.75-.37,1.49-.77,2.25-1.19a55.76,55.76,0,0,0,5-3.07,75.61,75.61,0,0,0,7.64-5.8c1.08-.92,2.13-1.87,3.14-2.85a59.73,59.73,0,0,0,9.27-11.1,39.09,39.09,0,0,0,2.55-4.78,26.06,26.06,0,0,0,1.05-2.65,24.26,24.26,0,0,0,1-3.92c1.07-6.3-.66-12.45-6.69-17.64A17.44,17.44,0,0,0,163,1008a25.06,25.06,0,0,0-3.69-2.13q-.78-.37-1.59-.72c-7.76-3.26-17.77-4.52-26.21-6.79h0a46.2,46.2,0,0,1-7.5-2.6c-1.54-.72-3.06-1.46-4.57-2.24h0l-.4-.22h0a102.34,102.34,0,0,1-33.1-27.17,89.73,89.73,0,0,1-6.16-8.94c-.57-.94-1.12-1.9-1.65-2.85-14.91-26.91-16.45-61.39-.93-87.85a82.28,82.28,0,0,1,6.28-9.22c.75-1,1.52-1.91,2.32-2.85,14.77-17.42,36-29.23,57.41-38,28.76-11.73,58.87-19.14,89.55-24q9.33-1.49,18.67-2.66c26.06-3.33,52.43-5.09,78.6-6.43q36.74-1.86,73.78-2.41,12.56-.17,25.14-.14,28.33,0,56.68,1.09,9.33.36,18.67.85,24,1.25,47.8,3.4,11.46,1,22.87,2.28c57.92,6.33,115,17.07,170.12,33.77q9.38,2.83,18.67,5.94A721.13,721.13,0,0,1,832,854.43l6.29,2.85q20.88,9.59,41.15,20.64a456.15,456.15,0,0,1,51.44,32.25q9.61,7.05,18.68,14.7a269.57,269.57,0,0,1,29.8,29.41c.81.94,1.62,1.89,2.42,2.85q6.21,7.46,11.8,15.46c18.16,26.11,30.35,56,39.35,86.47C1040.86,1085.68,1046.14,1115.57,1033.56,1140.38Z"/><path class="cls-6" d="M1022.14,1049.32H949.62V957.08h32.26c-.8-1-1.6-1.91-2.42-2.85h-29.8V924.82q-9-7.64-18.68-14.7v44.14H763.81v-97h74.54l-6.3-2.85H763.81V828q-9.33-3.09-18.67-5.94v32.25H506.55l-.57-.54,69-65.51Q563.6,787,552.13,786l-47.79,45.36V782.61q-9.34-.5-18.68-.85v52.71L429,780.67q-12.57,0-25.13.14l76.86,73-.56.54H251.45V789.74q-9.33,1.18-18.67,2.67v62H85.8c-.8.94-1.57,1.89-2.32,2.85H232.76v97H78.1c.52,1,1.08,1.91,1.64,2.85h153v92.24H157.5q-1.53,1.47-3.15,2.85h78.41v94.39q9.33,1.34,18.67,2.78v-97.17H485.65v118.27q9.33,0,18.67.24V1052.17h240.8V1197l.77.09q9,1,17.92,1.87V1052.17H930.93v143.08c1.43-.27,2.86-.55,4.25-.85s2.65-.54,4-.85q5.24-1.11,10.45-2.36v-139h73.1C1022.51,1051.22,1022.33,1050.27,1022.14,1049.32Zm-536.49,0H251.45V957.08h234.2Zm0-95.07H251.45v-97H482.33l3.29,2.6Zm259.47,95.07H504.34V957.08H745.12Zm0-95.07H504.34v-97H745.12Zm185.81,95.07H763.81V957.08H930.93Z"/><path class="cls-7" d="M305.26,1179.55a.94.94,0,0,1-.1.28h0a.71.71,0,0,1,.11-.28Z"/><path class="cls-7" d="M309.69,1175.49h-5.25l-3.94,0-.43-4.48-.4-4.24-1.85-19.36-.06-.6v-.26l-.52-5.45,7.93-3,1,7.9.07.59v.07l2,16,.6,4.92.35,2.86.3,2.46v.08Z"/><polygon class="cls-8" points="338.15 1179.54 338.24 1179.82 337.61 1179.82 337.52 1179.54 338.15 1179.54"/><path class="cls-8" d="M410.72,1179.82Z"/><path class="cls-8" d="M461.09,1067.71v.37s-7.4,20.22-9.81,37.49c-.17,1.13-.3,2.26-.41,3.39s-.21,2.37-.26,3.51c-.07,1.33-.09,2.62-.05,3.85v.85c0,.57.06,1.16.09,1.76s.08,1.2.14,1.83.1,1.18.16,1.79c1.82,18.67,8.76,46,8.76,46s.23.74.52,2h-1.92c-11.94.2-23.91.54-35.88,1l-2.16.06h-.71c-25.47.9-50.93,2.1-76.33,3l-6.2.2h-.9q-13.25.42-26.46.66h-2.33a13.74,13.74,0,0,1,2.05-2.32,14.09,14.09,0,0,1,2.08-1.61,46.61,46.61,0,0,1,13-5.6,10.32,10.32,0,0,1,3-.36l5.94.12h.92l9.11.17,78.2,1.56h.19l.55-.11a14.55,14.55,0,0,0,2.64-.94,9.27,9.27,0,0,0,5.57-7.19c0-.27.07-.55.09-.85s0-.83,0-1.24a4.08,4.08,0,0,0-.07-.91c-.07-.31-.09-.63-.15-.95-1.88-10.54-5.09-43-5.09-43v.1s0-1.38.08-3.71v-1.07c0-.51.06-1.07.09-1.69,0-.37.05-.74.08-1.13,0-.57.09-1.16.14-1.77v-.11c0-.38.07-.77.1-1.17.05-.59,0-.09,0-.13,1.27-12.52,5.25-32.34,17.83-39.68,5.9-3.45,9.8-4.15,12.37-3.47,3.76,1,4.7,4.89,4.9,7.43v.49A11.33,11.33,0,0,1,461.09,1067.71Z"/><path class="cls-9" d="M305.26,1179.55a.94.94,0,0,1-.1.28h0a.71.71,0,0,1,.11-.28Z"/><polygon class="cls-9" points="338.15 1179.54 338.24 1179.82 337.61 1179.82 337.52 1179.54 338.15 1179.54"/><path class="cls-9" d="M410.72,1179.82Z"/><path class="cls-9" d="M461.09,1067.71v.27a230.68,230.68,0,0,0-9,32.67h0c-.21,1.13-.39,2.22-.56,3.28-.09.54-.17,1.09-.24,1.63-.17,1.13-.3,2.26-.41,3.4s-.21,2.36-.26,3.5c-.07,1.33-.09,2.62-.05,3.86v.84c0,.57.06,1.16.09,1.76s.08,1.21.14,1.83.1,1.18.16,1.79.12,1.18.18,1.77c.28,2.4.61,4.92,1,7.49,2.65,17.29,7.57,36.66,7.57,36.66s.24.78.54,2.09h-1.92c-11.94.19-23.91.53-35.89.94l-2.15.07h-.72c-25.46.9-50.92,2.09-76.32,3l-6.21.2h-.89q-13.25.43-26.46.66h-2.41a14.24,14.24,0,0,1,2.12-2.4,13.19,13.19,0,0,1,2.09-1.63,47.2,47.2,0,0,1,13-5.6,10.31,10.31,0,0,1,3-.35l5.94.11h.91l9.15.18,78.25,1.55h.13a2.1,2.1,0,0,0,.61-.13,13.84,13.84,0,0,0,2.66-1,9.26,9.26,0,0,0,5.49-7.05c0-.27.07-.55.09-.85s0-.83,0-1.24a4.08,4.08,0,0,0-.07-.91c-.07-.31-.08-.69-.14-1-1.89-10.54-5.1-43-5.1-43s0-1.39.08-3.71v-1.07c0-.52.06-1.08.09-1.7,0-.36.05-.74.08-1.13,0-.57.09-1.15.14-1.76v-.11c0-.39.07-.78.11-1.17.05-.6,0-.09,0-.13.15-1.56.35-3.24.61-5,1.76-12.29,6.18-28.34,17.18-34.8,5.74-3.4,9.59-4.11,12.17-3.53,4,.91,4.91,5,5.09,7.58v.5A11.45,11.45,0,0,1,461.09,1067.71Z"/><path class="cls-8" d="M305.26,1179.55a.94.94,0,0,1-.1.28h0a.71.71,0,0,1,.11-.28Z"/><polygon class="cls-8" points="338.15 1179.54 338.24 1179.82 337.61 1179.82 337.52 1179.54 338.15 1179.54"/><path class="cls-8" d="M410.72,1179.82Z"/><path class="cls-8" d="M458.92,1067s-11.08,30.27-10.54,48.38,9.18,52.15,9.18,52.15.37,1.2.77,3.11c-11.94.2-23.91.54-35.89.94l-2.15.07h-.72c-25.46.9-50.92,2.1-76.32,2.95l-6.21.21h-.89q-13.25.42-26.46.65h-5.25a15.36,15.36,0,0,1,4.66-4.9l.23-.16a47.36,47.36,0,0,1,13-5.47,10.72,10.72,0,0,1,3-.36l7.84.15h.92l9.45.19,76.18,1.52a12.5,12.5,0,0,0,3.15-1,10,10,0,0,0,1-.51h0a10.38,10.38,0,0,0,2.54-2.08c1.61-1.83,2.68-4.54,2-8.49-1.89-10.54-5.09-43-5.09-43s-.54-39.45,18.37-50.53c7.64-4.47,11.93-4.32,14.33-2.55a1.66,1.66,0,0,1,.21.16C459.47,1061.09,458.92,1067,458.92,1067Z"/><path class="cls-7" d="M154.11,1141.26l-.31,3.17L152,1163.86c-2.89-.61-5.77-1.24-8.66-1.9l2.17-17.67.73-6Z"/><polygon class="cls-10" points="99.78 1134.98 146.01 1036.6 332.21 1051.12 349.38 1134.98 99.78 1134.98"/><polygon class="cls-11" points="99.78 1143.56 99.78 1134.98 349.38 1134.98 349.38 1147.53 99.78 1143.56"/><path class="cls-12" d="M170.17,1120.61l111.67,2.28a1.56,1.56,0,0,0,1.58-1.51,1.49,1.49,0,0,0-.08-.52l-17.41-47-75.21-1.43L168.47,1118a1.85,1.85,0,0,0,.95,2.44A1.74,1.74,0,0,0,170.17,1120.61Z"/><path class="cls-13" d="M170.17,1120.61l111.67,2.28a1.56,1.56,0,0,0,1.58-1.51,1.49,1.49,0,0,0-.08-.52l-17.41-47-75.21-1.43L168.47,1118a1.85,1.85,0,0,0,.95,2.44A1.74,1.74,0,0,0,170.17,1120.61Z"/><path class="cls-12" d="M169.27,1118.65,282.09,1121l-15.34-46.46a3.81,3.81,0,0,0-3.55-2.63l-72.51-1.38Z"/><path class="cls-14" d="M178.59,1108.13l13.52-29.75a3.61,3.61,0,0,1,3.28-2.1H229a3.59,3.59,0,0,1,3.59,3.59V1112a3.6,3.6,0,0,1-3.6,3.6h-.17l-47.13-2.4a3.6,3.6,0,0,1-3.41-3.77A3.65,3.65,0,0,1,178.59,1108.13Z"/><path class="cls-15" d="M244.86,1104.36l.58-17a2.62,2.62,0,0,1,2.6-2.55H258a2.61,2.61,0,0,1,2.55,2.16l2.92,16.88a2.61,2.61,0,0,1-2.13,3,3,3,0,0,1-.42,0l-13.44.12a2.61,2.61,0,0,1-2.59-2.61Z"/><path class="cls-14" d="M113.3,994l37.44-3.12a2.53,2.53,0,0,1,2.66,1.5l35.41,80.14-19.76,44.35c.62-1.39,1.08,9.44-3.4.06L109.38,999.49C108.63,997.92,111.54,994.17,113.3,994Z"/><path class="cls-13" d="M113.3,994l37.44-3.12a2.53,2.53,0,0,1,2.66,1.5l35.41,80.14-19.76,44.35c.62-1.39,1.08,9.44-3.4.06L109.38,999.49C108.63,997.92,111.54,994.17,113.3,994Z"/><path class="cls-14" d="M113.3,994l39.34-5a2.55,2.55,0,0,1,2.67,1.5l35.41,80.13-21.43,48.09-58-121.06a2.53,2.53,0,0,1,1.18-3.4A2.4,2.4,0,0,1,113.3,994Z"/><path class="cls-16" d="M123.12,999.59l28.44-4.43a2.54,2.54,0,0,1,2.76,1.56l29.79,72.88a2.28,2.28,0,0,1-.05,1.86L170.42,1100a2.31,2.31,0,0,1-3.06,1.11,2.28,2.28,0,0,1-1.1-1.11l-45.07-96.77a2.54,2.54,0,0,1,1.2-3.39A2.37,2.37,0,0,1,123.12,999.59Z"/><path class="cls-17" d="M410.72,1179.82Z"/><path class="cls-18" d="M426.61,1163.8s-.58,1-1.44,2.54l-.08.15c-.76,1.36-1.7,3.14-2.65,5.09l-2.15.07h-.72c-25.46.9-50.92,2.1-76.32,2.95l-6.21.21h-.89q-13.25.42-26.46.65h-5.25l-3.94,0q-6.13.06-12.25.07H283.4c-15,0-29.85-.37-44.66-1.15l-1.64-.09c2.91-6.33,8.11-16.71,12.34-20,3.27-2.55,26.74-5.37,48.32-7.45l2.28-.22h0l6-.56c8.26-.75,15.76-1.36,21.11-1.78l.49,0-2.79-9.34-4-13.58,1.15-11.41.09-.91H322a7.52,7.52,0,0,1-3.39-.43l-40.31-1.39h-.73l-15.48-.55h0c-8.31-.3-14.2-.52-14.43-.56a3.49,3.49,0,0,1-.72-.2,3.37,3.37,0,0,1-1-.59,4,4,0,0,1-.85-1h-.54l-2.19.14-1.12.08c0-.12-.07-.24-.11-.35-.11-.33-.21-.64-.3-1h-.59l-7.64-.16h-.13s-19.71,1.51-30-2.25h0c-3.77-1.37-6.29-3.45-6.09-6.57a7.09,7.09,0,0,1,.44-2.07c-3.31-6.19,12.86-17.47,25.18-14.36a21.9,21.9,0,0,0,10.24.43,13.17,13.17,0,0,0,5.09-2.32,5.13,5.13,0,0,0,.42-.33c-.2-.13-.42-.24-.61-.34a9.56,9.56,0,0,0-2.69-.94l3.34-1h0s11.89-1.09,19.62-1.52h0c2.3-.12,4.24-.2,5.4-.16,5.09.14,15-3.5,15.44-4.62s4.95,0,4.95,0l4-1.55c4-1.53,6.23-3.63,6.23-5.17s3.54-3.22,3.54-3.22c1.59-2.68,4.73-5.56,8-8.11,2.85-2.19,5.8-4.16,8-5.52a162,162,0,0,1,3.39-16.33c1.51-5,6.17-8.74,7.84-9.94l.61-.41a43.5,43.5,0,0,0-1.87-6.21,3.59,3.59,0,0,0-.2-.51c-.17-.4-.35-.79-.53-1.16l-.26-.51c-.43.09-.85.16-1.31.22a28.61,28.61,0,0,1-4.24.32,29.12,29.12,0,0,1-28.14-21.22v0a29,29,0,0,1-1-7.64,28,28,0,0,1,1-7.34h0c.13-.51.28-1,.44-1.51l.06-.17c.08-.23.15-.46.24-.69a30.29,30.29,0,0,1-3.8.33h-.85a17.92,17.92,0,0,1-7.1-1.18h0a10.34,10.34,0,0,1-1.57-.85.18.18,0,0,1-.07-.05,8.05,8.05,0,0,1-1.75-1.39,9,9,0,0,0,3.46-6c.23-1.84-.08-3.88,1-5.38a7.86,7.86,0,0,1,2-1.7c4.52-3.08,8.1-7.3,12.18-10.94s9-6.8,14.52-7c7.37-.22,13.85,4.9,21.15,5.87,2.24.3,4.54.2,6.73.76a22.8,22.8,0,0,1,6.83,3.46,17.18,17.18,0,0,1,4.88,4.14,14.6,14.6,0,0,1,2,4.75,51.92,51.92,0,0,1,1.7,10.87c.2,3.84,0,7.71.41,11.53a19.81,19.81,0,0,0,3.26,9.28h.11a11.82,11.82,0,0,0,1,1.29c-.72.23-1.44.44-2.18.61a33.7,33.7,0,0,1-3.73.74,11.14,11.14,0,0,1-1.74.15,5.36,5.36,0,0,1-1.2-.11l.74.5,2.07,1.39h0l.79.52,1.57,1c.35-1,.84-1.32,1.41-1.26,1.16-1.08,2.88,1.27,2.88,1.27,1,1.93,3.73,3.86,6.13,5.29a47.24,47.24,0,0,0,4.35,2.27c31.72,18.9,29.71,47.19,31.58,49.43s2,10.35,2,10.35,4.67,27.58,6.79,30,.13,3.21,2,5.88,1.42,9.79,1.42,9.79,1.28,16.8,5.81,20.44c4.06,3.27,9.5,30.76,10.57,36.38Z"/><path class="cls-19" d="M240.7,1075.32s-4.41,6.93-16.89,3.74-29,8.88-24.27,14.84,35.09-1.7,35.09-1.7l11.65-2.36-.76-9.7Z"/><path class="cls-9" d="M240.7,1075.32s-4.41,6.93-16.89,3.74-29,8.88-24.27,14.84,35.09-1.7,35.09-1.7l11.65-2.36-.76-9.7Z"/><path class="cls-20" d="M244.75,1074.94l-5.4-.28-3.33,1s10.54,1.53,7.64,15.82l11.36-.69Z"/><path class="cls-9" d="M244.75,1074.94l-5.4-.28-3.33,1s10.54,1.53,7.64,15.82l11.36-.69Z"/><path class="cls-21" d="M316.33,1043s-14.84,8.49-19,15.55c0,0-3.46,1.69-3.46,3.19s-2.23,3.6-6.11,5.09l-3.88,1.53s-4.44-1.11-4.86,0-10.12,4.71-15.12,4.57-24.54,1.7-24.54,1.7a17.38,17.38,0,0,1,9.84,19.28l46.2-1.94,17.46-3.88,10.27-10.27Z"/><path class="cls-9" d="M316.33,1043s-14.84,8.49-19,15.55c0,0-3.46,1.69-3.46,3.19s-2.23,3.6-6.11,5.09l-3.88,1.53s-4.44-1.11-4.86,0-10.12,4.71-15.12,4.57-24.54,1.7-24.54,1.7a17.38,17.38,0,0,1,9.84,19.28l46.2-1.94,17.46-3.88,10.27-10.27Z"/><path class="cls-19" d="M248.26,1104.36l-6.54-.12-7.64-.16s-36.07,2.77-35.37-8.76S227.17,1079.73,231,1083c2.93,2.51,9.7,4.53,12.79,5.35l1.59.41Z"/><path class="cls-9" d="M248.26,1104.36l-6.54-.12c-2.6-9,.42-13.89,2.13-15.83,1,.27,1.59.41,1.59.41Z"/><path class="cls-20" d="M252.66,1104.86l-6.79.47-3.22.22c-4.44-13,2.73-18.17,2.73-18.17h2.12l3.48.42Z"/><path class="cls-19" d="M334.91,1018.31l-8,15.28s-1.23-15.47-4.82-22.77c-.91-1.86-2-3.19-3.23-3.59-3.39-1.07,16.13-22.46,16.13-22.46.65.13,4.39,2.54,9,5.66,5,3.39,11.1,7.54,15.17,10.18C366.81,1005.55,334.91,1018.31,334.91,1018.31Z"/><path class="cls-21" d="M324.59,1018.6s-6.47,4.15-8.26,10.25a172.47,172.47,0,0,0-3.48,17.06s2.92,26.22,4.44,27.46,7.3,27.46,7.3,27.46l5.6-3.74-7.35-33S327.73,1021.66,324.59,1018.6Z"/><path class="cls-9" d="M324.59,1018.6s-6.47,4.15-8.26,10.25a172.47,172.47,0,0,0-3.48,17.06s2.92,26.22,4.44,27.46,7.3,27.46,7.3,27.46l5.6-3.74-7.35-33S327.73,1021.66,324.59,1018.6Z"/><polygon class="cls-20" points="352.74 1077.08 320.41 1077.08 325.64 1026.07 352.74 1026.07 352.74 1077.08"/><path class="cls-22" d="M277.83,1179.55h.39l-.73.28Z"/><path class="cls-22" d="M338.66,1156.32l-6.33,2.43-.84.31-22.77,8.75-8.68,3.34-11.82,4.54H283.4c-15,0-29.85-.37-44.66-1.15,2.87-6.29,7.89-16.35,12-19.6,3.19-2.55,26-5.3,47.1-7.37,2.63-.26,5.23-.5,7.76-.73l.6-.06c8.37-.76,15.94-1.38,21.22-1.81l.85-.07,6.64-.51.69-.69.85,3.63.71,2.9Z"/><path class="cls-9" d="M277.83,1179.55h.39l-.73.28Z"/><path class="cls-9" d="M338.66,1156.32l-6.33,2.43-.84.31-22.77,8.75-8.68,3.34-11.82,4.54H283.4c-15,0-29.85-.37-44.66-1.15,2.87-6.29,7.89-16.35,12-19.6,3.19-2.55,26-5.3,47.1-7.37,2.63-.26,5.23-.5,7.76-.73l.6-.06c8.37-.76,15.94-1.38,21.22-1.81l.85-.07,6.64-.51.69-.69.85,3.63.71,2.9Z"/><path class="cls-22" d="M277.83,1179.55h.39l-.73.28Z"/><path class="cls-22" d="M305.26,1179.55a.94.94,0,0,1-.1.28h0a.71.71,0,0,1,.11-.28Z"/><polygon class="cls-22" points="338.24 1179.82 337.61 1179.82 337.52 1179.54 338.15 1179.54 338.24 1179.82"/><path class="cls-22" d="M344.06,1147.45l-.52,17.47v1l-.26,8.65-6.21.21h-.9q-13.25.42-26.46.65h-5.24l-3.94,0q-6.13.06-12.25.07H283.4c4.41-2.73,10.13-5.75,16.27-8.76,2.76-1.36,5.62-2.71,8.49-4,7.64-3.55,15.37-6.9,21.68-9.58l.8-.33c2.45-1,4.66-2,6.56-2.75,4.09-1.69,6.69-2.71,6.86-2.78Z"/><path class="cls-9" d="M287.37,1075.66c1.59,3.31,3.23,6.69,5.85,9.27.42.4,1.14.78,1.51.33a1,1,0,0,0,.16-.63,8.08,8.08,0,0,0-1.53-4.33c-.84-1.31-1.85-2.5-2.6-3.85s-1.62-4-3.32-4.33C285.26,1071.66,286.89,1074.66,287.37,1075.66Z"/><path class="cls-9" d="M343.88,990.4c-.12.43-.25.85-.38,1.26a28.6,28.6,0,0,1-21.45,19.14c-.91-1.87-2-3.19-3.23-3.59-3.39-1.07,16.13-22.47,16.13-22.47C335.57,984.88,339.3,987.33,343.88,990.4Z"/><path class="cls-19" d="M344.9,982.25a28.52,28.52,0,1,1,0-.12Z"/><path class="cls-22" d="M327.28,1024.69s-5.94,7.21-5,11.93h7.21l5.27-5.94Z"/><path class="cls-9" d="M348.42,994.22l-22.66,31.16s5.82,8.33,8.59,8.74S353,997.27,353,997.27Z"/><path class="cls-20" d="M348.71,993.66,326,1024.86s5.82,8.32,8.59,8.74,18.61-36.85,18.61-36.85Z"/><path class="cls-22" d="M323.12,1033.57S322,1051,320.9,1054.51s0,35.36,0,35.36l10.41-4.29-1.81-49Z"/><polygon class="cls-9" points="338.15 1179.54 338.24 1179.82 337.61 1179.82 337.52 1179.54 338.15 1179.54"/><path class="cls-9" d="M410.72,1179.82Z"/><path class="cls-9" d="M423.4,1164.5l-.51.85c-.33.53-.68,1.18-1.13,2l-.05.1c-.63,1.17-1.38,2.59-2.14,4.15-25.46.9-50.92,2.09-76.32,3l-6.21.2h-.89l-2.67-9v-.1l-.28-1-1.7-5.65-1.7-5.75-1.75-6.12-.65-2.23-.17-.56-2.76-9.42-3.76-12.79,1.22-12.21h0l.08-.92,1.1-10.94.15-3.24h0l.08-1.7v-.48h0l.19-3.94.56-11.71.29-6h0l.05-.91h0l.58-12,1.64-4.92.85-2.44,1.88-5.68.41-1.4h0c.59-2.13,1.79-6.34,2.91-10.39h0l.1-.35h0l.08-.26.79-2.88,1-3.69c.37-1.42.62-2.43.68-2.78.09-.6,1.69-3.26,3.8-6.79h0c4.24-7,10.63-17.35,11.36-20.81v-.08a3.38,3.38,0,0,1,.18-.62c.34-1,.84-1.32,1.37-1.25a1.77,1.77,0,0,1,.67.26,5.35,5.35,0,0,1,1.32,1.28c1,1.91,3.65,3.82,6,5.23l.45.27.28.16c1.95,1.11,3.53,1.82,3.53,1.82,31.06,18.73,29.13,46.75,30.93,49s1.94,10.27,1.94,10.27,4.58,27.33,6.66,29.71.14,3.19,1.94,5.83,1.38,9.62,1.38,9.62,1.25,16.64,5.69,20.24S423.4,1164.5,423.4,1164.5Z"/><path class="cls-21" d="M424.23,1164.23l-.37.65h0c-.3.52-.77,1.35-1.34,2.4l-.06.12c-.64,1.19-1.41,2.65-2.16,4.24h-.72c-25.46.9-50.93,2.1-76.32,2.95l-6.21.21-2.65-9v-.1l-.28-1-1.76-5.94-1.7-5.77-1.7-5.76-.67-2.31h0l-2.9-9.92L321.55,1122l1.06-10.62.15-1.42,1.17-12.06h0l.45-9.4.55-11.37.15-3,.16-3.44.07-1.46.55-11.35,1.64-4.91.7-2.11,1.65-5,.34-1s1.59-5.58,3.13-11.1c.06-.21.12-.41.17-.61.13-.48.26-.95.4-1.42h0c.13-.48.26-.94.38-1.41.43-1.55.85-3,1.14-4.18.41-1.55.69-2.68.75-3,.1-.61,1.7-3.35,3.88-6.91,4-6.64,9.87-16.13,11.11-20.07a4.37,4.37,0,0,0,.17-.62h0a3.3,3.3,0,0,1,.74-1.7c1.14-1.09,2.83,1.26,2.83,1.26,1,1.91,3.65,3.83,6,5.24a47.68,47.68,0,0,0,4.24,2.25c31.07,18.72,29.13,46.74,30.93,49s1.95,10.27,1.95,10.27,4.57,27.32,6.65,29.71.15,3.19,1.95,5.82S408,1107,408,1107s1.25,16.64,5.69,20.25S424.23,1164.23,424.23,1164.23Z"/><path class="cls-9" d="M360.89,1000.8c-3.05,4.43-8,12.22-9.34,17.83,0,0-4.85,5-6.66,4.71s1.7,3.75,1.7,3.75l-19.08,26.43,2.71-8.12s5.69-20,5.94-21.78,14.07-22.41,15.16-27.6c.85-4.15,3.57-.41,3.57-.41C355.87,997.47,358.53,999.4,360.89,1000.8Z"/><path class="cls-21" d="M360.89,1000.25c-3.05,4.42-8,12.22-9.34,17.78,0,0-4.85,5-6.66,4.72s1.7,3.74,1.7,3.74l-19.08,26.44,2.71-8.13s5.69-20,5.94-21.78,14.07-22.41,15.16-27.59c.85-4.16,3.57-.42,3.57-.42C355.87,996.92,358.53,998.83,360.89,1000.25Z"/><path class="cls-9" d="M386.51,1055c.14,6.06-8.74,14.34-9.16,14.82s-27.6,22.92-27.6,22.92l-19.52,15a16.61,16.61,0,0,1-7.64,3.53l1.33-13.4,1.32-27.16c3.05-3.4,6-7,6.07-8.1.13-2.35,5.09-4.85,5.09-4.85s3.47-2.91,2.91-4.58,1.84-9.63,1.84-9.63c1.25-22.61,24.55-24.83,24.55-24.83a159.67,159.67,0,0,1,19.14,9.15C392.74,1032.57,386.37,1049,386.51,1055Z"/><path class="cls-9" d="M252.66,1104.86l-6.79.47c-2.87-4.88,1.08-17.95,1.08-17.95h.55l3.48.42Z"/><path class="cls-21" d="M365.7,1017.34s-23.3,2.22-24.55,24.82c0,0-2.36,7.91-1.8,9.58s-2.92,4.57-2.92,4.57-5,2.5-5.09,4.86-12.73,15.23-12.73,15.23-5.26,6-17.47,6.62-17.89,4.36-17.89,4.36-5.94-4.16-10.27-2.91-25.38,2.91-25.38,2.91-5.6,18.54,1.38,19.7c.85.14,69.52,2.5,69.52,2.5s4.69,2.21,11.76-3.2,19.53-15,19.53-15,27.16-22.47,27.6-22.92,9.34-8.76,9.15-14.82,6.25-22.42-1.7-27.16A160.15,160.15,0,0,0,365.7,1017.34Z"/><path class="cls-9" d="M344.9,982.25a28.63,28.63,0,0,1-1.4,8.85,12.52,12.52,0,0,1-1.06-1.45q-2-3.06-4-6.11a16.3,16.3,0,0,0-4-4.77,5.64,5.64,0,0,0-5.94-.63,5.93,5.93,0,0,0-2.54,4.76,52.73,52.73,0,0,0,.14,5.62,3.12,3.12,0,0,1-.52,2,3.33,3.33,0,0,1-2.19.85l-2.54.34a1.82,1.82,0,0,1-2.33-1.11l0,0c-2.11-3.83-3.57-8.58-7.53-10.42-2.45-1.14-5.67-1.06-7.25-3.25-1.06-1.5-.92-3.53-.61-5.34a43.43,43.43,0,0,1,1.49-6.05c.45-1.39,1.45-4.16-.77-4.44-1.51-.2-3.6,1.4-4.37,2.54s-.95,2.66-1.49,4a9.43,9.43,0,0,1-5.22,4.84,14.44,14.44,0,0,1-3.6,1,28.57,28.57,0,0,1,55.77,8.78Z"/><path class="cls-21" d="M299.44,962.9c-.77,1.18-.95,2.65-1.49,4a9.44,9.44,0,0,1-5.21,4.84,20.14,20.14,0,0,1-7.16,1.28c-3.95.12-8.37-.49-10.91-3.52a9,9,0,0,0,3.39-5.94c.22-1.81-.08-3.84,1-5.33a7.83,7.83,0,0,1,1.94-1.64c4.43-3,7.93-7.25,11.93-10.84s8.84-6.74,14.22-6.91c7.21-.22,13.58,4.86,20.71,5.82,2.19.3,4.45.19,6.59.75a22.23,22.23,0,0,1,6.69,3.39,17,17,0,0,1,4.78,4.11,14.59,14.59,0,0,1,1.95,4.7,52.3,52.3,0,0,1,1.69,10.77c.2,3.81,0,7.64.41,11.43s1.61,7.64,4.2,10.44a36.7,36.7,0,0,1-5.78,1.33,6,6,0,0,1-3.67-.29,6.35,6.35,0,0,1-2.24-2.42l-4-6.11a16.72,16.72,0,0,0-4.05-4.77,5.66,5.66,0,0,0-5.94-.63,6,6,0,0,0-2.55,4.77,55.23,55.23,0,0,0,.14,5.61,3.09,3.09,0,0,1-.51,2,3.33,3.33,0,0,1-2.2.85l-2.55.35a1.84,1.84,0,0,1-2.33-1.12v0c-2.12-3.84-3.58-8.58-7.54-10.43-2.44-1.13-5.67-1.06-7.24-3.25-1.07-1.49-.92-3.52-.61-5.34a42.23,42.23,0,0,1,1.48-6c.45-1.39,1.46-4.17-.77-4.46C302.29,960.08,300.21,961.69,299.44,962.9Z"/><path class="cls-9" d="M364.07,1030a12.34,12.34,0,0,1,6.42.33c-5.24-2.15-13.76-1.33-18.53,1.63C352.39,1033,362.41,1030.25,364.07,1030Z"/><path class="cls-9" d="M366.57,1037c5.23.34,10.62,1.07,15.56-.62-4.14-1.43-8.7-.53-13.06-1-3.48-.35-7-1.56-10.41-.67-1.42.36-6.64,2.76-6.29,4.52A28.25,28.25,0,0,1,366.57,1037Z"/><path class="cls-9" d="M352.75,1048.38a8.07,8.07,0,0,1,3.24.34,49.1,49.1,0,0,0,11.95,1.32c3.07,0,6.38-.47,8.63-2.55Z"/><path class="cls-9" d="M335.93,1074.94a23.93,23.93,0,0,0,11.67,2.13,52.17,52.17,0,0,0,11.75-2.26c1.7-.5,3.55-1.13,4.54-2.61Z"/><path class="cls-9" d="M373.51,1078.68a62.37,62.37,0,0,0,25.91,8q-6.92-2.76-13.91-5.24a101.3,101.3,0,0,0-14.64-3.92A7.49,7.49,0,0,1,373.51,1078.68Z"/><path class="cls-9" d="M386.34,1073.82a22.28,22.28,0,0,0,4.83.26,2.74,2.74,0,0,0,2.35-.85c-3.64.15-7.23-.78-10.78-1.59-1-.24-2.83-.8-3.68-.19C380.67,1072.6,384.3,1073.41,386.34,1073.82Z"/><path class="cls-9" d="M408.23,1149.64a34.95,34.95,0,0,0,11.34,13.51c-3.14-8-6.34-16.12-11.39-23.14-1.27-1.77-3.17-4.3-5.49-4.62-.66,2,1,5.43,1.82,7.27A69.57,69.57,0,0,0,408.23,1149.64Z"/><path class="cls-9" d="M315.43,1089.59c-.15,1.36-.26,2.87.53,4a2.85,2.85,0,0,0,1.61,1.11c-.4-.1-.85-4.09-.95-4.64-.18-1.11,0-3.19-.79-4C315.63,1087.2,315.55,1088.41,315.43,1089.59Z"/><path class="cls-9" d="M319.84,1088a9.06,9.06,0,0,0,4.24,5.75c-1.48-1.83-2-4.24-3.26-6.26-.41-.64-.9-1.57-1.69-1.69C319.33,1086.57,319.57,1087.31,319.84,1088Z"/><path class="cls-9" d="M316.1,1063.59a10.61,10.61,0,0,1-8.4,1.06c-.64-.19-2.12-.85-1.76-1.78s2.08-.29,2.78-.21l3.69.47C313.09,1063.21,315.55,1063.91,316.1,1063.59Z"/><path class="cls-9" d="M303.61,1069.63c1.74-.22,3.3,1,4.93,1.64a15.21,15.21,0,0,0,5.6.75,3.15,3.15,0,0,0,2.62-.85C312.34,1070.16,308.2,1069,303.61,1069.63Z"/><polygon class="cls-20" points="324.59 1018.59 324.87 1018.59 326.95 1026.07 324.59 1028.58 324.59 1018.59"/><g class="cls-23"><path d="M278.6,959.3a18.34,18.34,0,0,0-.38,3.69,7.93,7.93,0,0,0,.23-1.18C278.55,961,278.54,960.13,278.6,959.3Z"/><path d="M303.92,960.27a1.49,1.49,0,0,1,1.41,1.58s0,.08,0,.12c.4-1.41.62-3.14-1.12-3.4-1.51-.18-3.59,1.42-4.36,2.59s-.95,2.66-1.49,4a9.44,9.44,0,0,1-5.21,4.84,20.14,20.14,0,0,1-7.16,1.28c-3.6.11-7.58-.39-10.19-2.77a8.82,8.82,0,0,1-1,.92c2.55,3,7,3.63,10.93,3.51a20.3,20.3,0,0,0,7.15-1.27,9.54,9.54,0,0,0,5.22-4.85c.54-1.3.71-2.77,1.48-3.95S302.41,960.08,303.92,960.27Z"/><path d="M348.76,989.86a6,6,0,0,1-3.68-.29,6.51,6.51,0,0,1-2.24-2.42c-1.32-2-2.65-4.07-4-6.11a16.53,16.53,0,0,0-4-4.77,5.64,5.64,0,0,0-5.94-.63,6.1,6.1,0,0,0-2.59,4.76v.23a5.35,5.35,0,0,1,2.32-3.32,5.66,5.66,0,0,1,5.94.62,16.72,16.72,0,0,1,4.05,4.77q2,3.06,4,6.12a6.33,6.33,0,0,0,2.24,2.41,6,6,0,0,0,3.67.29,37.34,37.34,0,0,0,5.79-1.33,11.62,11.62,0,0,1-1-1.28A36,36,0,0,1,348.76,989.86Z"/><path d="M325.93,988.05a3.33,3.33,0,0,1-2.19.85l-2.54.35a1.83,1.83,0,0,1-2.33-1.12l0,0c-2.11-3.84-3.57-8.59-7.53-10.43-2.45-1.14-5.66-1.06-7.23-3.25a6.24,6.24,0,0,1-.76-4.45c0,.27-.1.52-.14.78-.31,1.81-.46,3.84.62,5.33,1.57,2.19,4.79,2.12,7.23,3.26,4,1.84,5.43,6.58,7.54,10.42a1.8,1.8,0,0,0,2.35,1.22l2.54-.35a3.28,3.28,0,0,0,2.19-.85,3,3,0,0,0,.52-2h0A2.34,2.34,0,0,1,325.93,988.05Z"/></g><path class="cls-7" d="M677.25,1188.2l-5.44-.75v-80.33l1.11.34,3.4,1v7.73l0,3.49.07,7.18v9.79l.41,36.17v1l.15,12.73v.2Z"/><path class="cls-24" d="M680.3,1188.63l-3-.43v-1.65l-.14-12.73v-1l-.41-36.16v-9.8l-.07-7.18,0-3.49v-7.73h3.27v10.38l.07,7.76v8.21h0l.31,38v1l.11,12.62v.21Z"/><path class="cls-24" d="M680.3,1193.16Z"/><path class="cls-7" d="M1010.49,1097.17v69.33q-2.41,1.7-5,3.33l-.07-57.72V1106Z"/><path class="cls-24" d="M1014,1096.16v67.65c-1.15.93-2.33,1.82-3.53,2.7v-69.34Z"/><path class="cls-7" d="M935.2,1194.41c-2.08.43-4.18.85-6.28,1.22l-.07-62.74v-2.71l6-2.55v5.75Z"/><path class="cls-24" d="M939.19,1125.64v67.91l-4,.85-.28-61v-5.75l.4-.19h0Z"/><path class="cls-7" d="M579.42,1175.62l-5.64-.57-.72-70.74v-3.37h5.54v3.85Z"/><path class="cls-24" d="M583.62,1176.07l-4.24-.45-.85-70.83v-3.85h4.29v4.22Z"/><polygon class="cls-9" points="935.3 1127.46 939.18 1125.63 939.18 1134.2 935.4 1135.46 935.3 1127.46"/><polygon class="cls-9" points="1014.01 1096.15 1014.01 1109.25 1010.49 1110.43 1005.46 1112.11 1005.45 1105.98 1010.49 1097.16 1014.01 1096.15"/><polygon class="cls-11" points="1014.01 1070.95 1014.01 1107.24 935.4 1133.44 934.89 1094.64 1014.01 1070.95"/><polygon class="cls-10" points="572.01 1068.43 675.33 1048.78 1014.01 1070.95 934.89 1094.64 572.01 1068.43"/><polygon class="cls-9" points="582.85 1100.94 582.89 1105.15 578.61 1104.78 573.05 1104.31 573.02 1100.94 582.85 1100.94"/><polygon class="cls-9" points="679.66 1113.47 676.39 1113.18 671.81 1112.79 671.81 1107.12 676.34 1108.5 679.62 1108.5 679.66 1113.47"/><polygon class="cls-11" points="572.01 1068.43 572.01 1102.2 935.4 1133.44 934.89 1094.64 572.01 1068.43"/><polygon class="cls-11" points="860.13 1108.58 812.67 1108.58 812.67 1091.36 860.13 1094.7 860.13 1108.58"/><polygon class="cls-9" points="860.13 1108.58 812.67 1108.58 812.67 1091.36 860.13 1094.7 860.13 1108.58"/><polygon class="cls-9" points="748.91 1087.58 748.91 1114.8 931.11 1128.66 931.11 1099.68 860.05 1095.65 852.99 1101.94 824.01 1099.93 813.68 1092.37 748.91 1087.58"/><polygon class="cls-25" points="747.9 1086.57 747.9 1113.79 930.1 1127.65 930.1 1098.67 859.04 1094.64 851.99 1100.94 823 1098.92 812.67 1091.36 747.9 1086.57"/><polygon class="cls-11" points="635.51 1079.27 678.61 1082.3 678.11 1095.99 649.97 1095.99 631.15 1088.59 635.51 1079.27"/><polygon class="cls-9" points="635.51 1079.27 678.61 1082.3 678.11 1095.99 649.97 1095.99 631.15 1088.59 635.51 1079.27"/><polygon class="cls-9" points="578.07 1075.49 578.07 1099.93 743.37 1113.04 743.37 1087.08 679.62 1083.3 672.81 1088.34 647.11 1086.83 636.52 1080.28 578.07 1075.49"/><polygon class="cls-25" points="577.05 1074.48 577.05 1098.92 742.36 1112.03 742.36 1086.07 678.61 1082.3 671.81 1087.33 646.1 1085.82 635.51 1079.27 577.05 1074.48"/><polygon class="cls-9" points="931.13 1074.57 954.3 1076.09 915.91 1087.58 896.35 1086.17 931.13 1074.57"/><polygon class="cls-25" points="931.13 1073.57 954.3 1075.08 915.91 1086.57 896.35 1085.16 931.13 1073.57"/><path class="cls-24" d="M928.36,1076.17c.92-.39,1.89.34,2.87.53.55.11,1.13,0,1.7.11,1.14.15,2.26.91,3.34.53Z"/><path class="cls-24" d="M927.16,1076.86c.91-.39,1.89.35,2.87.54.56.1,1.13,0,1.69.1,1.13.15,2.26.92,3.35.53Z"/><path class="cls-24" d="M924.41,1078.25c.91-.39,1.89.34,2.87.53.56.11,1.12,0,1.69.11,1.14.15,2.27.92,3.35.53Z"/><polygon class="cls-9" points="774.79 1061.86 826.45 1065.24 815.44 1081.06 758.64 1074.99 774.79 1061.86"/><polygon class="cls-8" points="773.78 1060.85 825.44 1064.22 814.43 1080.05 757.62 1073.98 773.78 1060.85"/><polygon class="cls-26" points="776.05 1062.01 821.11 1064.77 811.51 1077.65 761.97 1072.7 776.05 1062.01"/><path class="cls-8" d="M680.3,1193.16Z"/><path class="cls-9" d="M680.3,1193.16Z"/><path class="cls-8" d="M679.91,1193.16Z"/><path class="cls-8" d="M745.83,1191.23a4.29,4.29,0,0,1,0,.72,4.18,4.18,0,0,1-.07.64,14.16,14.16,0,0,1-1.23,4.32h0c-21.35-2.4-42.74-5.29-64.17-8.25l-3-.42-5.44-.76-4.58-.64h0a109.07,109.07,0,0,1-15-1.4,76.78,76.78,0,0,1-9.25-2c-13.58-1.86-27.24-3.65-40.85-5.28l-1.78-.21c.33-1.44.6-2.32.6-2.32s2.92-11.47,5.35-24.3h0c.53-2.78,1-5.62,1.48-8.43.36-2.25.68-4.47.95-6.61.15-1.18.28-2.34.39-3.46.06-.56.11-1.12.16-1.7s.09-1.21.13-1.79.06-1.11.09-1.64v-.8c0-1.14,0-2.34,0-3.57a105.55,105.55,0,0,0-2.88-18.18c-.24-1-.49-2-.74-3-.08-.32-.16-.63-.25-1-2.74-10.62-5.94-19.29-5.94-19.29v-.25a.74.74,0,0,0,0-.21V1080a13.06,13.06,0,0,1,.46-2.63,8.7,8.7,0,0,1,.32-.9,5.63,5.63,0,0,1,3.82-3.53h0c2.4-.62,6,0,11.52,3.25a20.94,20.94,0,0,1,2.55,1.75,10.73,10.73,0,0,1,1.19,1c6.28,5.84,9.62,15.49,11.4,24.31.07.31.13.62.19.94.21,1.08.39,2.14.55,3.19.29,1.83.52,3.6.69,5.24,0,.44.09.84.13,1.29s.09.85.12,1.26c.11,1.33.18,2.55.23,3.58.15,2.75.12,4.44.12,4.44v.09a2.47,2.47,0,0,1,0,.36.09.09,0,0,0,0,.07v.76c0,.36-.08.78-.13,1.25-.07.73-.16,1.59-.26,2.55h0c-.07.71-.15,1.48-.24,2.3-.19,1.7-.39,3.67-.61,5.74-.05.39-.09.78-.14,1.17-.19,1.77-.39,3.62-.61,5.49h0c-.23,2.12-.48,4.24-.73,6.34-.06.46-.12.92-.17,1.37-.62,5.09-1.25,9.72-1.76,12.59a11.39,11.39,0,0,0-.17,1.29,3.23,3.23,0,0,0,0,.44,7.49,7.49,0,0,0,0,1.16c.41,7.25,8.25,8.49,8.25,8.49l35.57-.71,5.28-.1,3.07-.06,27.74-.55h0l2.54,0,13.79-.27a10,10,0,0,1,2.78.33,43.9,43.9,0,0,1,12.05,5.27,14,14,0,0,1,3.12,2.72l.12.13a14.68,14.68,0,0,1,3.33,8v.58A7.34,7.34,0,0,1,745.83,1191.23Z"/><path class="cls-9" d="M679.91,1193.16Z"/><path class="cls-9" d="M745.83,1191.23a4.29,4.29,0,0,1,0,.72,4.18,4.18,0,0,1-.07.64,14.82,14.82,0,0,1-1.27,4.32c-21.35-2.4-42.75-5.29-64.17-8.25l-3-.42-5.44-.76-4.59-.64h0a108.93,108.93,0,0,1-15-1.4,76.78,76.78,0,0,1-9.25-2c-13.58-1.86-27.24-3.65-40.85-5.28l-1.78-.21h0c.32-1.5.61-2.4.61-2.4s2.39-9.34,4.65-20.66h0c.17-.78.32-1.56.47-2.35l.23-1.19h0c.53-2.78,1-5.63,1.49-8.43.35-2.25.68-4.48.95-6.61.15-1.18.28-2.34.39-3.47.06-.56.11-1.12.15-1.69s.09-1.21.14-1.8.06-1.1.08-1.63v-.8c0-1.15,0-2.34,0-3.58a105.25,105.25,0,0,0-2.86-18.17c-.24-1-.49-2-.74-3-.09-.32-.16-.64-.25-1-2.75-10.65-5.94-19.38-5.94-19.38v-.16a.74.74,0,0,0,0-.21V1080a13.75,13.75,0,0,1,.43-2.63c.1-.3.2-.61.32-.9a5.6,5.6,0,0,1,4-3.66c2.4-.56,6,.13,11.36,3.27a21,21,0,0,1,2.65,1.86h0c.4.33.78.66,1.15,1,6.23,5.89,9.55,15.52,11.32,24.31l.18,1c.22,1.07.39,2.14.55,3.18.29,1.83.51,3.59.68,5.22,0,.45.1.89.13,1.31s.09.85.11,1.26c.11,1.33.19,2.55.24,3.58.14,2.75.12,4.44.12,4.44v.45a.09.09,0,0,0,0,.07v.76c0,.36-.08.78-.13,1.25-.08.73-.16,1.59-.26,2.55h0c-.09.7-.16,1.48-.25,2.3-.19,1.7-.39,3.67-.61,5.74-.05.39-.09.78-.14,1.17-.19,1.77-.4,3.64-.61,5.51h0c-.24,2.12-.49,4.24-.74,6.33-.06.46-.11.92-.17,1.37-.62,5.09-1.24,9.65-1.75,12.51a10.62,10.62,0,0,0-.17,1.38,3.23,3.23,0,0,0,0,.44,7.49,7.49,0,0,0,0,1.16c.48,7.16,8.25,8.36,8.25,8.36l35.57-.7,5.27-.11,3.08-.06,27.79-.54,2.59,0,13.75-.27a9,9,0,0,1,2.77.33,43.48,43.48,0,0,1,12.15,5.22,14.1,14.1,0,0,1,3.16,2.76.76.76,0,0,1,.11.14,14.58,14.58,0,0,1,3.3,8v.58A9.67,9.67,0,0,0,745.83,1191.23Z"/><path class="cls-8" d="M679.91,1193.16Z"/><path class="cls-8" d="M745.89,1197l-1.4-.16h0c-21.35-2.41-42.74-5.29-64.17-8.25l-3-.43-5.44-.75-4.58-.64h0a110.66,110.66,0,0,1-15-1.4,76.78,76.78,0,0,1-9.25-2c-13.58-1.86-27.24-3.65-40.85-5.28a33,33,0,0,1,.85-3.53s8.06-31.76,8.56-48.64c.18-6-1-13.51-2.64-20.63h0c-.24-1-.47-2-.73-3l-.23-1c-2.87-11.16-6.3-20.49-6.3-20.49a13.83,13.83,0,0,1,.2-3.46c.05-.3.12-.61.2-.91a7,7,0,0,1,2.19-3.66h0a.83.83,0,0,1,.16-.12c2.24-1.7,6.24-1.82,13.37,2.36a20.67,20.67,0,0,1,4,3c.34.33.68.67,1,1,5.73,6.21,8.76,15.72,10.36,24.22l.18.94c.19,1.06.35,2.11.5,3.12v.08h0c.19,1.34.36,2.63.49,3.85h0a100.69,100.69,0,0,1,.61,10.84s-.33,3.35-.85,8.18c-.19,1.89-.42,4-.67,6.26v.34l-.12,1.18c-.44,3.92-.91,8.09-1.4,12,0,.48-.11,1-.17,1.4-.54,4.36-1.08,8.23-1.53,10.75-1.77,9.83,8.06,11.34,8.06,11.34l33.56-.66,5.27-.1,3.08-.07h1.7l26.62-.53h2.55l15.28-.3a9.27,9.27,0,0,1,2.77.34,43.81,43.81,0,0,1,12.16,5.21,14.73,14.73,0,0,1,2.86,2.43.79.79,0,0,1,.14.17A14.69,14.69,0,0,1,745.89,1197Z"/><polygon class="cls-14" points="865.88 1043.61 876.26 1065.85 874.52 1065.85 862.35 1043.87 865.88 1043.61"/><polygon class="cls-9" points="865.88 1043.61 876.26 1065.85 874.52 1065.85 862.35 1043.87 865.88 1043.61"/><polygon class="cls-14" points="865.88 1065.85 876.26 1065.85 876.26 1068.17 865.88 1068.43 865.88 1065.85"/><polygon class="cls-9" points="865.88 1065.85 876.26 1065.85 876.26 1068.17 865.88 1068.43 865.88 1065.85"/><path class="cls-14" d="M785.13,961.77v77.66a5.76,5.76,0,0,0,5.77,5.76H920.34a5.73,5.73,0,0,0,5.73-5.73v-.11l-1.47-77.72a5.73,5.73,0,0,0-5.73-5.62h-128A5.76,5.76,0,0,0,785.13,961.77Z"/><path class="cls-9" d="M785.13,961.77v77.66a5.76,5.76,0,0,0,5.77,5.76H920.34a5.73,5.73,0,0,0,5.73-5.73v-.11l-1.47-77.72a5.73,5.73,0,0,0-5.73-5.62h-128A5.76,5.76,0,0,0,785.13,961.77Z"/><path class="cls-14" d="M780.46,961.77v77.66a5.77,5.77,0,0,0,5.77,5.76H915.67a5.72,5.72,0,0,0,5.72-5.72v-.12l-1.47-77.72A5.72,5.72,0,0,0,914.2,956H786.26a5.76,5.76,0,0,0-5.8,5.73Z"/><path class="cls-16" d="M785.56,966.63V1035a5.76,5.76,0,0,0,5.76,5.76H911.18a5.72,5.72,0,0,0,5.73-5.73h0V966.58a5.73,5.73,0,0,0-5.73-5.72H791.32A5.76,5.76,0,0,0,785.56,966.63Z"/><polygon class="cls-14" points="837.42 1043.92 848.8 1065.85 874.52 1065.85 861.66 1040.76 837.42 1043.92"/><polygon class="cls-14" points="828.36 1065.85 826.45 1068.17 865.88 1068.17 865.88 1065.85 828.36 1065.85"/><path class="cls-27" d="M662.11,985.34c-2.83-7.94-2.81-16.76-6.24-24.46a29.72,29.72,0,0,1-1.44-3.39,10.55,10.55,0,0,1-.39-2.22l-.21.05-.21.06-.21.09h0l-.2.11a5.89,5.89,0,0,0,.2.75,28.23,28.23,0,0,0,1.45,3.4c3.49,7.74,3.47,16.59,6.35,24.61a2.25,2.25,0,0,0,.53.94,1.3,1.3,0,0,0,.43.27C662.15,985.45,662.12,985.4,662.11,985.34Zm0,0c-2.83-7.94-2.81-16.76-6.24-24.46a29.72,29.72,0,0,1-1.44-3.39,10.55,10.55,0,0,1-.39-2.22l-.21.05-.21.06-.21.09h0l-.2.11a5.89,5.89,0,0,0,.2.75,28.23,28.23,0,0,0,1.45,3.4c3.49,7.74,3.47,16.59,6.35,24.61a2.25,2.25,0,0,0,.53.94,1.3,1.3,0,0,0,.43.27C662.15,985.45,662.12,985.4,662.11,985.34Zm0,0c-2.83-7.94-2.81-16.76-6.24-24.46a29.72,29.72,0,0,1-1.44-3.39,10.55,10.55,0,0,1-.39-2.22l-.21.05-.21.06-.21.09h0l-.2.11a5.89,5.89,0,0,0,.2.75,28.23,28.23,0,0,0,1.45,3.4c3.49,7.74,3.47,16.59,6.35,24.61a2.25,2.25,0,0,0,.53.94,1.3,1.3,0,0,0,.43.27C662.15,985.45,662.12,985.4,662.11,985.34Zm0,0c-2.83-7.94-2.81-16.76-6.24-24.46a29.72,29.72,0,0,1-1.44-3.39,10.55,10.55,0,0,1-.39-2.22l-.21.05-.21.06-.21.09h0l-.2.11a5.89,5.89,0,0,0,.2.75,28.23,28.23,0,0,0,1.45,3.4c3.49,7.74,3.47,16.59,6.35,24.61a2.25,2.25,0,0,0,.53.94,1.3,1.3,0,0,0,.43.27C662.15,985.45,662.12,985.4,662.11,985.34Zm0,0c-2.83-7.94-2.81-16.76-6.24-24.46a29.72,29.72,0,0,1-1.44-3.39,10.55,10.55,0,0,1-.39-2.22l-.21.05-.21.06-.21.09h0l-.2.11a5.89,5.89,0,0,0,.2.75,28.23,28.23,0,0,0,1.45,3.4c3.49,7.74,3.47,16.59,6.35,24.61a2.25,2.25,0,0,0,.53.94,1.3,1.3,0,0,0,.43.27C662.15,985.45,662.12,985.4,662.11,985.34Zm0,0c-2.83-7.94-2.81-16.76-6.24-24.46a29.72,29.72,0,0,1-1.44-3.39,10.55,10.55,0,0,1-.39-2.22l-.21.05-.21.06-.21.09h0l-.2.11a5.89,5.89,0,0,0,.2.75,28.23,28.23,0,0,0,1.45,3.4c3.49,7.74,3.47,16.59,6.35,24.61a2.25,2.25,0,0,0,.53.94,1.3,1.3,0,0,0,.43.27C662.15,985.45,662.12,985.4,662.11,985.34Zm0,0c-2.83-7.94-2.81-16.76-6.24-24.46a29.72,29.72,0,0,1-1.44-3.39,10.55,10.55,0,0,1-.39-2.22l-.21.05-.21.06-.21.09h0l-.2.11a5.89,5.89,0,0,0,.2.75,28.23,28.23,0,0,0,1.45,3.4c3.49,7.74,3.47,16.59,6.35,24.61a2.25,2.25,0,0,0,.53.94,1.3,1.3,0,0,0,.43.27C662.15,985.45,662.12,985.4,662.11,985.34Zm147.48,79.11h0l-.66-.12.85-.18h0a1,1,0,0,0,.25-.06h0c.94-.21,1.87-.44,2.79-.68h0l1-.27h0l.14-.05c7.91-2.33-1.32-4.48-13-6.07h0c-12.67-1.7-28.2-2.81-28.2-2.81l-4.87.64h0c-5.94.78-15.32,2.07-16.81,2.55-1.82.6-17.23,1.34-22.61,1.58a2.31,2.31,0,0,0-.79-.85l-15.85-.73v2.18h0l-.12,0a21.61,21.61,0,0,0-2.15-8.49l-.12-.24c-4.09-7.75-4.91-9.7-4.91-9.7h0a1.67,1.67,0,0,0-.11-.41c-1.38-4.77-6.44-13.07-15-25l-.3-.41-1.08-5.28-.19-.93h-5.4A70.39,70.39,0,0,1,686,995.68c.11-.27.22-.54.34-.8l.07-.16c.12-.28.25-.56.38-.85h.94a25.82,25.82,0,0,0,24.82-24v-.07c0-.52.05-1,.05-1.57a25.42,25.42,0,0,0-3.39-12.74l-.22-.35-.13-.23-.31-.48c1.94-.46,4.25.43,5.94-.66A4.33,4.33,0,0,0,716,952a8.84,8.84,0,0,0,.85-2.54h0a.38.38,0,0,0,0-.15,0,0,0,0,0,0,0,9.32,9.32,0,0,0,.13-1.75,9.46,9.46,0,0,0-.59-3.53,9.76,9.76,0,0,0-5.47-5.48,34.25,34.25,0,0,0-4-1.08c-5.43-1.45-10-5-15.28-7a27.6,27.6,0,0,0-11.45-1.76,16.33,16.33,0,0,0-6.79,1.69,29.25,29.25,0,0,0-4.53,3.29c-3.78,3-8.07,5.52-11.35,9.08a17.94,17.94,0,0,0-1.65,2c-.29.41-.55.85-.85,1.27a2.27,2.27,0,0,0-2-.85h-.42a9.35,9.35,0,0,0-1,.11c-.85.15-7.17,1.82-7.17,2.68a30,30,0,0,0-7.27,4.47c-5.09,4.66-6.23,12-6.88,18.85a174.74,174.74,0,0,0-.84,23.77c.11,2.88.34,5.77.21,8.66a64.88,64.88,0,0,1-1.51,10.08q-1.1,5.18-2.36,10.32c-.41,1.7-1.06,3.59-2.73,4.13l.62.08a3.23,3.23,0,0,1-.62.3,19.73,19.73,0,0,0,2.16.21h.5a5.48,5.48,0,0,0,1.21-.14,4.43,4.43,0,0,0,1.54-.72c.07-.17.13-.34.19-.51a2.91,2.91,0,0,0,1-1.58,11.06,11.06,0,0,1-.17,2.87,2,2,0,0,1-.08.41,11.67,11.67,0,0,1-2.92,5.54l.85-.65c-.27.36-.55.7-.85,1,1.22-.92,2.44-1.85,3.67-2.81h0l.21-.16h0l2.09-1.65v1.65h0v.38c-.17,5.86-.42,20.24.91,23.68l.23.6c1.52,3.92,2.18,5.61,2,7.64-.14,1.42.93,5.48,1.51,8.7a10.86,10.86,0,0,1,.27,3.93,5.64,5.64,0,0,0,.16,2.35c.07.37.17.77.27,1.18a1.85,1.85,0,0,0,.11.45c.77,3.09,1.87,6.91.72,8.43a6.94,6.94,0,0,0-.85,1.7c-.94,2.55-1.09,6-2.18,7.44-1.27,1.63-.85,4.55-.75,4.92v0s-.06.33-.18.85c-.14.71-.37,1.81-.66,3v.09a44.48,44.48,0,0,1-1.47,5h0c-.43,1.16-.85,2-1.33,2.15-1.7.62-2.55,8.59-2.55,8.59s-3.88,6.31-3.14,7.86a7.93,7.93,0,0,0,.55,1l-.38.58c-2.08,3.34-5.09,9.4-2.17,12.66a14.51,14.51,0,0,0,3.48,2.65l-.48,1.11c-3.21,7.52-8.15,25,10.85,32.35q2.84,1.1,5.77,1.9a78.76,78.76,0,0,0,9.25,1.95,114.35,114.35,0,0,0,13.58,1.21c2,.07,4,.09,5.94.07s3.68-.06,5.43-.14q1.54-.06,3-.15a157,157,0,0,0,17.42-1.91l27.16-4.86s11.41.4,15.61,2.82l.13.07s.69-.4,1.84-1.18h0c.5-.34,1.1-.74,1.75-1.23,4.3-3.16,11.49-9.34,16.19-18l.09-.16.93-.12h.21l.66-.09,1.38-.2h.24c3.44-.5,6.69-1,6.69-1s.13,3.79.28,8.19c0,1.34.09,2.74.14,4.1.17,4.65.31,8.88.31,9s3.5,9.34,7.41,18.61l3.06.24q12.11,1,24.2,1.61l3,.15,1.88.09c-1.35-8.22-2.42-16.06-2.42-16.06l-5-23.49s-.52-4.86-4.3-26.48c-3.06-17.52-21.05-16-27.79-14.74l-1.7.34v-1.31s-12.92,1.08-24.61,1.61l-2.85.12c-2.7.1-5.28.16-7.53.16a53.71,53.71,0,0,1-6-.24c-9-1-19.31,2.06-19.31,2.06s-13.14,2.13-14.9,1.35a4.49,4.49,0,0,0-1.49-.3h-.85a1.36,1.36,0,0,0,.85-1.51c-.52-2.18-.73-5.18.74-7.25.65-.92,1.7-2.36,2.64-3.68l2.29-3.15v-.24l.06-.93.55-8.25,1.33-7.64.08-.48.12-.68.09-.49.25.08h0c3.76,1.31,8,2.23,11,1.17h.06a5.28,5.28,0,0,0,.69-.29H713v.56l.05,1,14.17-.77h.21s.55-2.74,1.14-6.51c0-.3.1-.62.15-.94s.13-.85.18-1.24a4.36,4.36,0,0,1,.09-.6h.85c6.57-.24,15.74-.8,19.47-2.16h0a4.15,4.15,0,0,0,1.28-.68c1.59-1.38,7.28-3.35,12.88-5h0l2.23-.66,4.57-1.31c3.21-.84,5.5-1.47,5.5-1.47s22.07,2,38.55-2.72h0l.27-.08C820.82,1067.52,817,1065.85,809.59,1064.45ZM653,954.11a4.8,4.8,0,0,0,.09.75h0c0,.11,0,.22,0,.33a.57.57,0,0,0,.07.33,6.21,6.21,0,0,0,.2.74,27.56,27.56,0,0,0,1.45,3.4c3.5,7.74,3.47,16.59,6.35,24.61a2.29,2.29,0,0,0,.53,1,1.5,1.5,0,0,0,.44.26l.2.07h.24l-.1.16-.06.12-.06.09c-1.14,1.92-2.35,3.8-3.58,5.47a8.05,8.05,0,0,0-2.94,1.2l-.48.32-.2.15c-.3-1.46-.71-2.9-1.08-4.35a100.61,100.61,0,0,1-3.28-23.54v-1.61c0-2,0-4.1.18-6.15a5.2,5.2,0,0,1,.72-2.7h0a1.87,1.87,0,0,1,1.26-.61Zm9.12,31.24c-2.83-7.94-2.81-16.76-6.24-24.46a29.87,29.87,0,0,1-1.44-3.4,10.34,10.34,0,0,1-.39-2.21l-.21.05-.21.06-.21.08h0l-.2.12a6.93,6.93,0,0,0,.2.75,27.42,27.42,0,0,0,1.45,3.39c3.49,7.75,3.47,16.6,6.35,24.62a2.25,2.25,0,0,0,.53.94,1.3,1.3,0,0,0,.43.27c0-.11,0-.16-.06-.22Zm0,0c-2.83-7.94-2.81-16.76-6.24-24.46a29.87,29.87,0,0,1-1.44-3.4,10.34,10.34,0,0,1-.39-2.21l-.21.05-.21.06-.21.08h0l-.2.12a6.93,6.93,0,0,0,.2.75,27.42,27.42,0,0,0,1.45,3.39c3.49,7.75,3.47,16.6,6.35,24.62a2.25,2.25,0,0,0,.53.94,1.3,1.3,0,0,0,.43.27c0-.11,0-.16-.06-.22Zm0,0c-2.83-7.94-2.81-16.76-6.24-24.46a29.87,29.87,0,0,1-1.44-3.4,10.34,10.34,0,0,1-.39-2.21l-.21.05-.21.06-.21.08h0l-.2.12a6.93,6.93,0,0,0,.2.75,27.42,27.42,0,0,0,1.45,3.39c3.49,7.75,3.47,16.6,6.35,24.62a2.25,2.25,0,0,0,.53.94,1.3,1.3,0,0,0,.43.27c0-.11,0-.16-.06-.22Zm0,0c-2.83-7.94-2.81-16.76-6.24-24.46a29.87,29.87,0,0,1-1.44-3.4,10.34,10.34,0,0,1-.39-2.21l-.21.05-.21.06-.21.08h0l-.2.12a6.93,6.93,0,0,0,.2.75,27.42,27.42,0,0,0,1.45,3.39c3.49,7.75,3.47,16.6,6.35,24.62a2.25,2.25,0,0,0,.53.94,1.3,1.3,0,0,0,.43.27c0-.11,0-.16-.06-.22Zm0,0c-2.83-7.94-2.81-16.76-6.24-24.46a29.87,29.87,0,0,1-1.44-3.4,10.34,10.34,0,0,1-.39-2.21l-.21.05-.21.06-.21.08h0l-.2.12a6.93,6.93,0,0,0,.2.75,27.42,27.42,0,0,0,1.45,3.39c3.49,7.75,3.47,16.6,6.35,24.62a2.25,2.25,0,0,0,.53.94,1.3,1.3,0,0,0,.43.27c0-.11,0-.16-.06-.22Zm0,0c-2.83-7.94-2.81-16.76-6.24-24.46a29.87,29.87,0,0,1-1.44-3.4,10.34,10.34,0,0,1-.39-2.21l-.21.05-.21.06-.21.08h0l-.2.12a6.93,6.93,0,0,0,.2.75,27.42,27.42,0,0,0,1.45,3.39c3.49,7.75,3.47,16.6,6.35,24.62a2.25,2.25,0,0,0,.53.94,1.3,1.3,0,0,0,.43.27c0-.11,0-.16-.06-.22Z"/><path class="cls-28" d="M690.49,989.81a19.45,19.45,0,0,0-3.26,5c-.13.28-.25.55-.37.85-3.75,8.49-5,20.5-5,20.5s-2.32-1.05-5.62-2.68c-6.13-3-15.61-8.09-19.43-12.13-1.7-1.82-2.31-3.43-.9-4.56a11.77,11.77,0,0,0,.93-.85,26.7,26.7,0,0,0,3-3.51c1.22-1.7,2.43-3.6,3.57-5.54.67-1.14,1.3-2.28,1.9-3.39l.24-.45c2.54-4.83,4.4-9,4.4-9s.85.27,2.23.75C678.45,977.16,695.91,984,690.49,989.81Z"/><path class="cls-28" d="M806.68,1186.47s1,7.69,2.35,15.8l-3-.15q-12.07-.63-24.2-1.6c-4.58-10.62-9.33-23.23-9.33-23.42s-.15-4.35-.31-9c0-1.63-.11-3.31-.16-4.89h0c-.08-2.39-.16-4.55-.2-5.89,0-.92,0-1.46,0-1.46s-4.37.76-8.29,1.3l-1.74.23c-.9.11-1.7.19-2.42.24a5.87,5.87,0,0,1-1.87,0c-1.34-.52,1.44-13.58,1.44-13.58l6.93-16.76,1.93-4.67.85-.21c.42-.11,1-.22,1.65-.35,6.61-1.22,24.27-2.76,27.27,14.67,3.71,21.54,4.24,26.38,4.24,26.38Z"/><path class="cls-28" d="M813.37,1220.94h0Z"/><path class="cls-29" d="M806.68,1186.47s1,7.69,2.35,15.8l-3-.15q-12.07-.63-24.2-1.6c-4.58-10.62-9.33-23.23-9.33-23.42s-.15-4.35-.31-9c0-1.63-.11-3.31-.16-4.89h0c-.08-2.39-.16-4.55-.2-5.89,0-.92,0-1.46,0-1.46s-4.37.76-8.29,1.3l-1.74.23c-.9.11-1.7.19-2.42.24a5.87,5.87,0,0,1-1.87,0c-1.34-.52,1.44-13.58,1.44-13.58l6.93-16.76,1.93-4.67.85-.21c.42-.11,1-.22,1.65-.35,6.61-1.22,24.27-2.76,27.27,14.67,3.71,21.54,4.24,26.38,4.24,26.38Z"/><path class="cls-29" d="M813.37,1220.94h0Z"/><path class="cls-28" d="M806,1202.12q-12.07-.63-24.2-1.6l-3-.25-1.35-.11c-3.8-9.17-7.18-18.15-7.18-18.31s-.15-4.34-.31-9c-.19-5.79-.41-12.24-.41-12.24l-.57.1-.24,0h-.31L767,1161l-.75.12c-1.35.22-3,.46-4.57.69l-.36,0-.93.12-.85.1h0c-.66.09-1.28.16-1.84.21l-.68.06a5.93,5.93,0,0,1-1.88,0c-1.34-.52,1.44-13.58,1.44-13.58l8.86-21.44.31-.08c.47-.12,1.45-.35,2.78-.58l1.65-.25c7.69-1,22.32-.7,25,15,3.71,21.53,4.25,26.37,4.25,26.37l5,23.41S805.08,1196.07,806,1202.12Z"/><path class="cls-9" d="M769.92,1172.87c-.19-5.79-.41-12.25-.41-12.25s-8.49,1.49-12.45,1.78l.8-2.7s14.53-4,14.84-1.75C772.92,1159.54,771.05,1168,769.92,1172.87Z"/><path class="cls-9" d="M770.23,1122v6.13s-.72,11-6.39,27.92c-.12.37-.25.72-.39,1.08a37.75,37.75,0,0,1-2.1,4.74c-1.6.22-3.14.4-4.29.49a6.51,6.51,0,0,1-1.87,0c-1.34-.52,1.43-13.58,1.43-13.58l8.86-21.43.32-.08,1.92-4.68A20.72,20.72,0,0,1,770.23,1122Z"/><path class="cls-21" d="M768.58,1121.07v7.1s-.72,11-6.39,27.93c-.14.44-.31.85-.47,1.3s-.37,1-.58,1.46c-.47,1.13-1,2.22-1.55,3.27h0c-4.44,8.42-11.2,14.43-15.5,17.74-.63.49-1.21.91-1.69,1.27h0c-.85.58-1.46,1-1.85,1.24l-.42.26c-4-2.47-15.46-2.88-15.46-2.88l-26.69,4.84a153.41,153.41,0,0,1-17.63,2l-3,.14c-1.74.07-3.56.11-5.42.12-1.5,0-3,0-4.58-.06h0a110.66,110.66,0,0,1-15-1.4,77.16,77.16,0,0,1-8.08-1.79,58.17,58.17,0,0,1-5.59-1.87C620,1174.42,624.81,1157,628,1149.5l.48-1.11c.7-1.53,1.22-2.43,1.22-2.43l1.24-3h0l2-4.92.45-1.07.13-.32L635,1133l21.22-2.75,15.6-2,4.74-.61,3.22-.42,6.14-.79,2.3-.3a28.35,28.35,0,0,1,4.31-.34,6,6,0,0,1,2.29.34c1.7.77,14.63-1.34,14.63-1.34s10.1-3.09,19-2.06a105.07,105.07,0,0,0,13.16.08h0l1.09,0,1.41-.06h.3C755.85,1122.16,768.58,1121.07,768.58,1121.07Z"/><path class="cls-9" d="M692.23,1142.39S682,1165.57,681.62,1166s-.41,7.64,0,7.21,14.53-31.72,14.53-31.72Z"/><path class="cls-9" d="M741.58,1122.78s-5.15,3.33-6.7,6-15.66,29.36-19.15,33.28a84.59,84.59,0,0,0-7.84,11.14c-.41.71-.41,5.14,2.06.91s1.86-4.94,6.7-10.19,10.19-17.1,12.26-19.47,5-9.48,8.55-13.71l6.91-8.07Z"/><path class="cls-9" d="M742.82,1168.56s-3.61-2.47-7,1.75S742.82,1168.56,742.82,1168.56Z"/><path class="cls-9" d="M747.25,1169.83s-3,5.21-4.43,5.63S747.25,1169.83,747.25,1169.83Z"/><path class="cls-9" d="M742.82,1171.13s-2.37,4.13-4.43,3.71Z"/><path class="cls-28" d="M726.14,1059.76s21.84-.93,24-1.65,21.32-3.19,21.32-3.19,56.77,4,40.6,8.86-38.12,2.78-38.12,2.78-21.44,5.57-24.73,8.49-27.61,3-27.61,3Z"/><path class="cls-29" d="M726.14,1059.76s21.84-.93,24-1.65,21.32-3.19,21.32-3.19,56.77,4,40.6,8.86-38.12,2.78-38.12,2.78-21.44,5.57-24.73,8.49-27.61,3-27.61,3Z"/><path class="cls-20" d="M648.45,1010s-20,6.79-10.31,24.11,22.16,25.46,22.16,25.46l32.14,22.26s13.5,7.72,19.68,4.53l10.09-.85,1.7-26.48s-8.49,6.59-17.73-2.55-20.6-15.35-21.53-20.29S660.09,1005.77,648.45,1010Z"/><path class="cls-22" d="M711.6,1066.05s10.41,3.71,10,3.91-10,3.81-10,3.81l.72,14.12,14.12-.77s5.15-25.71.72-28.29l-15.56-.72Z"/><path class="cls-9" d="M711.6,1066.05s10.41,3.71,10,3.91-10,3.81-10,3.81l.72,14.12,14.12-.77s5.15-25.71.72-28.29l-15.56-.72Z"/><path class="cls-9" d="M690.49,989.81a19.45,19.45,0,0,0-3.26,5c-.13.28-.25.55-.37.85-7.58,0-13-5.89-17.68-11.16-.85-1-3,.5-3.7-.6l-.24-.38.24-.44c2.54-4.83,4.4-9,4.4-9l2.23.76C678.45,977.16,695.91,984,690.49,989.81Z"/><path class="cls-28" d="M712.56,969.31a25.55,25.55,0,0,1-25.31,25.54H687a25.51,25.51,0,0,1-19.16-8.66,26.3,26.3,0,0,1-2.35-3.1,25.56,25.56,0,1,1,47.07-13.78Z"/><path class="cls-9" d="M686.57,1127.76s-1.94,2.37-4.09,4.59c-1.62,1.7-3.36,3.25-4.47,3.65-2.54.93-14.21,9.79-14.21,9.79s-9.27,6.29-11.64,8.14-10.93.72-10.93.72-8.23-1.8-13.33-5.1a32.65,32.65,0,0,1,1.7-3.53l5.35-13,21.22-2.74Z"/><path class="cls-22" d="M686.15,1126.11s-1.93,2.38-4.08,4.59a16.52,16.52,0,0,1-4.46,3.65c-2.55.93-14.22,9.79-14.22,9.79s-9.28,6.29-11.65,8.14-10.91.72-10.91.72-11.75-2.55-15.88-7.21c-2.88-3.25.11-9.28,2.14-12.6a25,25,0,0,1,1.57-2.34Z"/><path class="cls-22" d="M701.41,1046.26c-7-.62-30.09-28.86-30.09-28.86l.52-.72,4.84-6.7H688l1.25,6.18c8.61,12.07,13.68,20.47,15,25.27C705.29,1044.93,704.34,1046.53,701.41,1046.26Z"/><path class="cls-9" d="M701.41,1046.26c-7-.62-30.09-28.86-30.09-28.86l.52-.72a129.77,129.77,0,0,1,11.64,12.16c16.89,19.88,20.24,14.32,20.81,12.59C705.29,1044.93,704.34,1046.53,701.41,1046.26Z"/><path class="cls-9" d="M686.15,1126.11s-1.93,2.38-4.08,4.59a11.63,11.63,0,0,1-3.54.77c-2.68-.11-8.86,4.12-8.86,4.12s-10.92-.62-13,.51-10,1.34-10,1.34c-14.52,4.14-18.54-2.15-19.6-4.24a25,25,0,0,1,1.57-2.34Z"/><path class="cls-20" d="M711.38,1064.76a9.06,9.06,0,0,1-.13,1.18c0,.38-.1.77-.16,1.14a18.43,18.43,0,0,1-1.86,6c-1.85,3.09-7.52,15.15-7.52,15.15l-.38,2.22-.2,1.16-.2,1.15-1.38,8.12-.62,9.38s-3.4,4.74-4.84,6.79-1.24,5-.72,7.22-4.74,2.47-4.74,2.47-7.42,3.6-10.1,3.5-8.86,4.11-8.86,4.11-10.92-.62-13,.52-10,1.34-10,1.34c-15.55,4.42-19.05-3.1-19.78-4.64s3.09-7.83,3.09-7.83.85-7.94,2.47-8.56,3.61-11.11,3.61-11.11-.62-3.2.72-4.95,1.24-6.7,3-9.07-1.85-10.3-1.23-12.37-2-10.4-1.76-12.57-.51-3.91-2.16-8.24c-1.41-3.69-1-20.1-.85-24.8,0-.8,0-1.26,0-1.26s1.45-4.64,5.26-13.91c2.88-7,9.38-9.68,12.36-10.54A13.48,13.48,0,0,1,653,1006a10.34,10.34,0,0,1,2.19.55c3,1,9,3.87,17.59,11.88a133.19,133.19,0,0,1,10.72,11.31c19.32,22.71,20.9,12.11,20.9,12.11s.85,1.94,4.83,9.66C711.36,1055.61,711.75,1060.51,711.38,1064.76Z"/><path class="cls-9" d="M679.56,1008.74l-19.39-15.47s-7,.85-9.87,12.58l20,17.48Z"/><path class="cls-22" d="M679.56,1008.74l-3.4,4.74-3.44,4.87-2.6,3.81-15.93-13.42-2.74-2.38-1.54-1.31c1.55-6.34,4.31-9.5,6.51-11a8.07,8.07,0,0,1,3.39-1.52Z"/><path class="cls-28" d="M812.88,1070c-16.18,4.84-38.12,2.79-38.12,2.79s-21.43,5.56-24.73,8.48c-2.12,1.86-13,2.55-20.37,2.83-4.11.15-7.19.16-7.19.16L727,1066l2.61-.12c5.87-.27,19.7-1,21.39-1.54,2.17-.72,21.33-3.19,21.33-3.19S829.05,1065.11,812.88,1070Z"/><path class="cls-9" d="M711.09,1067a18.41,18.41,0,0,1-1.86,6c-1.85,3.09-7.52,15.14-7.52,15.14l-.78,4.58a56.68,56.68,0,0,1-7.64-3.51L661.12,1067s-12.47-8.14-22.15-25.46,10.3-24.11,10.3-24.11c11.64-4.24,35.24,21.22,36.16,26.17s12.27,11.13,21.54,20.3A18.89,18.89,0,0,0,711.09,1067Z"/><path class="cls-9" d="M711.38,1064.76c-.08.8-.17,1.58-.29,2.32a18.43,18.43,0,0,1-1.86,6c-1.85,3.09-7.52,15.15-7.52,15.15l-.38,2.22a54.18,54.18,0,0,1-8.06-3.67l-32.15-22.29S648.65,1056.36,639,1039s10.3-24.12,10.3-24.12c11.64-4.24,35.24,21.22,36.16,26.17s12.27,11.13,21.54,20.31A18.53,18.53,0,0,0,711.38,1064.76Z"/><path class="cls-20" d="M724.69,1065.23,723,1091.7l-10.1.85a7.17,7.17,0,0,1-.69.3c-6.43,2.36-19-4.83-19-4.83l-32.15-22.29s-12.47-8.14-22.15-25.46,10.3-24.11,10.3-24.11c11.64-4.24,35.24,21.22,36.16,26.17s12.27,11.13,21.54,20.3a18.41,18.41,0,0,0,4.63,3.39A12.66,12.66,0,0,0,724.69,1065.23Z"/><path class="cls-9" d="M724.69,1065.23,723,1091.7l-10.1.85a7.17,7.17,0,0,1-.69.3L711.6,1080s9.58-3.61,10-3.81-10-3.92-10-3.92v-6.15A12.67,12.67,0,0,0,724.69,1065.23Z"/><path class="cls-9" d="M729.62,1084c-4.12.15-7.2.16-7.2.16L727,1066l2.61-.12C731.28,1068.72,730.56,1077.23,729.62,1084Z"/><path class="cls-22" d="M712.42,1072.23s10.41,3.71,10,3.91-10,3.81-10,3.81l.73,14.12,14.11-.77s5.15-25.71.72-28.29l-15.56-.72Z"/><path class="cls-9" d="M650.72,1089.13s-3.51,3.29-6.4,4.17Z"/><path class="cls-9" d="M642.37,1098.91s8.55-.31,9.58-2.06S642.37,1098.91,642.37,1098.91Z"/><path class="cls-9" d="M638.14,1111.17c.52,0,10.82-1.44,11.23-2.78Z"/><path class="cls-9" d="M635,1119c3.71-.11,10-4.13,10-4.13Z"/><path class="cls-9" d="M659,1121.06s22.35,0,23.38-4.12S659,1121.06,659,1121.06Z"/><path class="cls-9" d="M675.75,1063.47c.41,0,17.62,0,19.26-2.37S675.75,1063.47,675.75,1063.47Z"/><path class="cls-9" d="M656.8,996a16.88,16.88,0,0,1,.22,2.55,15.84,15.84,0,0,1-.25,2.83,24.4,24.4,0,0,1-1.6,5.15l-.18.42c-.25.59-.52,1.17-.8,1.74a47.67,47.67,0,0,1-4.45,7.34,81.16,81.16,0,0,1-13.34,13.88c-.87.73-1.74,1.45-2.63,2.16,0-.8.05-1.26.05-1.26s1.44-4.64,5.25-13.91c2.89-7,9.38-9.67,12.36-10.54l-1.54-1.31c1.56-6.34,4.31-9.5,6.51-11C656.54,994.65,656.7,995.31,656.8,996Z"/><path class="cls-9" d="M708.82,956a3.19,3.19,0,0,0-.74.3c-1.61.89-2.08,3-3.4,4.34-1.52,1.57-3.89,1.8-6.06,2.08s-4.58.8-5.73,2.66c-.85,1.39-.77,3.13-1.08,4.72a1.4,1.4,0,0,1-.33.78,1.49,1.49,0,0,1-1,.34c-4.25.3-7.34-1.16-11.31-2.19-1.87-.47-4-.41-5.46.85a6.22,6.22,0,0,0-1.62,4.8v.16a32,32,0,0,1,.16,5.09,8.4,8.4,0,0,1-4.44,6.22,7.91,7.91,0,0,1-3.21.92,2.67,2.67,0,0,1-1.28-.19c.76-1.29,1.48-2.54,2.14-3.83a25.56,25.56,0,1,1,42.92-27.76l.44.7Z"/><path class="cls-21" d="M715.82,952.78a4.23,4.23,0,0,1-1.42,1.74c-1.93,1.26-4.71-.12-6.73,1-1.62.89-2.08,3-3.39,4.33-1.52,1.57-3.89,1.81-6.07,2.08s-4.57.81-5.72,2.67c-.85,1.38-.77,3.11-1.08,4.72a1.48,1.48,0,0,1-.33.78,1.62,1.62,0,0,1-1,.34c-4.24.3-7.33-1.17-11.31-2.19-1.85-.48-4-.42-5.45.85s-1.65,3.07-1.62,4.81a38,38,0,0,1,.16,5.23,8.51,8.51,0,0,1-7.64,7.14,2.1,2.1,0,0,1-1.57-.4,2.19,2.19,0,0,1-.52-.94c-2.83-7.94-2.8-16.76-6.23-24.47a29.72,29.72,0,0,1-1.44-3.39c-.06-.24-.13-.49-.18-.73a12.42,12.42,0,0,1-.21-1.49,2.1,2.1,0,0,0-1,.4,1.92,1.92,0,0,0-.28.29,5.07,5.07,0,0,0-.71,2.69,101.94,101.94,0,0,0,3.06,31.55,33.34,33.34,0,0,1,1.47,7.92,21.27,21.27,0,0,1-2,8.4c-5.32,12.27-16,21.26-26.65,29.38a11.83,11.83,0,0,0,3.15-8.77,3.44,3.44,0,0,1-2.69,2.41,10.07,10.07,0,0,1-3.79-.06c1.63-.53,2.27-2.45,2.67-4.11q1.25-5.1,2.32-10.28a64.22,64.22,0,0,0,1.49-10c.13-2.87-.09-5.75-.21-8.63a174.4,174.4,0,0,1,.85-23.64c.63-6.79,1.77-14.13,6.75-18.77a29.38,29.38,0,0,1,7.13-4.44c0-.85,6.22-2.55,7-2.67a9.2,9.2,0,0,1,1-.12,2.12,2.12,0,0,1,2.21,1.17c.31-.56.65-1.1,1-1.62a19.65,19.65,0,0,1,1.61-2c3.23-3.56,7.43-6.07,11.17-9.09a28.06,28.06,0,0,1,4.45-3.28,16.06,16.06,0,0,1,6.66-1.7A27,27,0,0,1,692,931.6c5.16,2,9.66,5.55,15,7a37.52,37.52,0,0,1,3.9,1.08,9.43,9.43,0,0,1,5.3,12.25c-.11.28-.24.56-.38.84Z"/><g class="cls-23"><path d="M629.86,1028.81a11.72,11.72,0,0,0,.77-5,3.46,3.46,0,0,1-2.7,2.41,5.4,5.4,0,0,1-1,.15c-.43,1.36-1.1,2.66-2.4,3.09a10.55,10.55,0,0,0,3.8.07A4.45,4.45,0,0,0,629.86,1028.81Z"/><path d="M716.43,946a9.42,9.42,0,0,1-1,3.85,4.34,4.34,0,0,1-1.42,1.7c-1.93,1.26-4.72-.12-6.74,1-1.61.89-2.08,3-3.39,4.34-1.52,1.57-3.9,1.82-6.06,2.08s-4.58.85-5.73,2.66c-.85,1.39-.77,3.13-1.08,4.72a1.19,1.19,0,0,1-1.23,1.15l-.14,0c-4.24.3-7.33-1.17-11.3-2.2-1.87-.47-4-.41-5.47.85a6.26,6.26,0,0,0-1.61,4.82,35,35,0,0,1,.15,5.22,8.42,8.42,0,0,1-7.64,7.14,2.11,2.11,0,0,1-1.57-.4,2.35,2.35,0,0,1-.52-.94c-2.82-7.94-2.8-16.76-6.23-24.46a28.11,28.11,0,0,1-1.43-3.4,9.77,9.77,0,0,1-.4-2.21,1.86,1.86,0,0,0-1.24.69,5.16,5.16,0,0,0-.71,2.69,102.06,102.06,0,0,0,.85,20.37,101.75,101.75,0,0,1-.42-17.1,5.09,5.09,0,0,1,.71-2.69,1.77,1.77,0,0,1,1.24-.68,10.34,10.34,0,0,0,.39,2.21,29.87,29.87,0,0,0,1.44,3.4c3.39,7.7,3.39,16.51,6.23,24.46a2.32,2.32,0,0,0,.53.94,2,2,0,0,0,1.56.47,8.51,8.51,0,0,0,7.64-7.14,38,38,0,0,0-.16-5.23c0-1.75.33-3.64,1.62-4.81s3.6-1.34,5.45-.85c4,1,7,2.49,11.31,2.19a1.62,1.62,0,0,0,1-.34,1.54,1.54,0,0,0,.33-.79c.31-1.6.22-3.34,1.08-4.71,1.15-1.86,3.56-2.4,5.72-2.67s4.55-.51,6.07-2.08c1.29-1.33,1.74-3.44,3.4-4.34,2-1.11,4.79.27,6.73-1a4.23,4.23,0,0,0,1.42-1.74A9.64,9.64,0,0,0,716.43,946Z"/><path d="M656.2,994.82a21.42,21.42,0,0,1-2,8.39c-4.76,11-13.83,19.33-23.29,26.77a11.88,11.88,0,0,1-3,5.94c10.63-8.11,21.34-17.1,26.66-29.37a21.08,21.08,0,0,0,2-8.4,18.32,18.32,0,0,0-.43-3.69A3.21,3.21,0,0,1,656.2,994.82Z"/></g><path class="cls-9" d="M657.26,945.92c-.76,3.52-1.82,8.09-2.61,10.44a14.81,14.81,0,0,1-.2-1.49,2.1,2.1,0,0,0-1,.4c0-2.47.3-6.15.55-8.9a2.16,2.16,0,0,1,2.23,1.17A13.79,13.79,0,0,1,657.26,945.92Z"/><path class="cls-22" d="M656.85,945.92c-.76,3.52-1.81,8.09-2.6,10.44a12.42,12.42,0,0,1-.21-1.49,2.18,2.18,0,0,0-1,.4c0-2.47.3-6.15.56-8.9a2.13,2.13,0,0,1,2.22,1.17C656.16,947,656.54,946.45,656.85,945.92Z"/><g class="cls-30"><path class="cls-31" d="M829.7,755.43H970.32V892.2H829.7Z"/><path class="cls-32" d="M823.34,749V898.59h153.4V749Zm6.39,6.4H970.35V892.2H829.7Z"/><path class="cls-32" d="M934.74,811.86a8.69,8.69,0,0,0-3.7-.64c-8,0-13.42,6.2-13.42,16.49,0,11.76,5.5,16.49,12.65,16.49a11.91,11.91,0,0,0,4.42-.7V811.86Zm-28.65,16.37c0-14.9,9.58-26.54,25.31-26.54a28.27,28.27,0,0,1,3.32.14V785.21a.64.64,0,0,1,.64-.64h10.29c.51,0,.64.19.64.51V843.5a45.19,45.19,0,0,0,.32,6.26c0,.45,0,.52-.38.71a38.27,38.27,0,0,1-16.37,3.71c-13.87,0-23.76-8.57-23.76-25.95Zm-21.8-10.36,17.92,34.69c.32.5.13,1-.38,1H890.71a1.24,1.24,0,0,1-1.34-.85q-6.14-12.65-12.53-26.27h-.13c-3.84,8.57-8.05,17.91-12.14,26.32a1.24,1.24,0,0,1-1.16.7H852.8c-.64,0-.7-.52-.38-.9l17.51-33.68L853,785.5a.57.57,0,0,1,0-.81.6.6,0,0,1,.43-.15h11c.63,0,1,.13,1.14.7,4,8.49,8.13,16.88,12,25.47h.13c3.7-8.44,7.79-17,11.7-25.31.31-.52.51-.85,1.14-.85h10.3c.51,0,.7.38.38,1l-16.87,32.41Z"/></g><g class="cls-30"><path id="_88e22766-bb2e-4d8a-8c4e-873561c02ed1" data-name="88e22766-bb2e-4d8a-8c4e-873561c02ed1" class="cls-33" d="M246.82,810.5l48.06,94.06L214.11,810.5Z"/><path id="dcb2c17a-6570-4f03-a416-11c2a206e419" class="cls-33" d="M343,810.5l-48.06,94.06,80.78-94.06Z"/><path id="d2c5ae9b-dccc-4d4c-8aa0-840002be2480" class="cls-34" d="M246.82,810.5h96.12l-48.06,94.06Z"/><path id="_616bf47a-f8e5-41ce-b525-03b6ad416eda" data-name="616bf47a-f8e5-41ce-b525-03b6ad416eda" class="cls-35" d="M294.88,758.38l-45.53,4.81-2.54,47.31Z"/><path id="ca73b31d-b223-4f6c-ac2e-edd2597912ec" class="cls-35" d="M294.88,758.38l45.53,4.81L343,810.5Z"/><path id="_2a7c7013-4804-45aa-950a-2b5376f70ef0" data-name="2a7c7013-4804-45aa-950a-2b5376f70ef0" class="cls-34" d="M375.67,810.5l-35.25-47.31L343,810.5Z"/><path id="_5dac32ab-c712-4de9-a97f-2e05661e9f0b" data-name="5dac32ab-c712-4de9-a97f-2e05661e9f0b" class="cls-34" d="M214.11,810.5l35.24-47.31-2.54,47.31Z"/><path id="_2d1bbfda-86f6-4da7-9bb0-15ddbbfa97e7" data-name="2d1bbfda-86f6-4da7-9bb0-15ddbbfa97e7" class="cls-36" d="M294.88,758.38,246.82,810.5h96.12Z"/></g></g><text class="cls-37" transform="translate(93.77 412.18)"><tspan class="cls-38">R</tspan><tspan x="40.26" y="0">es</tspan><tspan class="cls-39" x="102.54" y="0">e</tspan><tspan x="136.62" y="0">a</tspan><tspan class="cls-40" x="173.16" y="0">r</tspan><tspan x="195.9" y="0">ch</tspan><tspan class="cls-41" x="0" y="72">D</tspan><tspan x="43.56" y="72">esign</tspan><tspan x="0" y="144">P</tspan><tspan class="cls-40" x="35.94" y="144">r</tspan><tspan x="58.68" y="144">o</tspan><tspan class="cls-38" x="94.8" y="144">t</tspan><tspan x="116.28" y="144">otype</tspan></text><g id="UX"><polygon class="cls-42" points="805 141 766 160.5 805 180 844 160.5 805 141"/><polyline class="cls-42" points="766 199.5 805 219 844 199.5"/><polyline class="cls-42" points="766 180 805 199.5 844 180"/></g></g></svg>